<svg width="293" height="50" viewBox="0 0 293 50" fill="none" xmlns="http://www.w3.org/2000/svg">
<path d="M204.699 33.1641C204.699 34.0195 204.523 34.8223 204.172 35.5723C203.832 36.3223 203.369 36.9785 202.783 37.541C202.209 38.1035 201.535 38.5488 200.762 38.877C200 39.1934 199.191 39.3516 198.336 39.3516H196.525C195.67 39.3516 194.855 39.1934 194.082 38.877C193.32 38.5488 192.646 38.1035 192.061 37.541C191.486 36.9785 191.023 36.3223 190.672 35.5723C190.332 34.8223 190.162 34.0195 190.162 33.1641V32.1621L192.43 31.793V33.1641C192.43 33.7266 192.541 34.2539 192.764 34.7461C192.998 35.2266 193.309 35.6543 193.695 36.0293C194.082 36.3926 194.527 36.6797 195.031 36.8906C195.547 37.1016 196.086 37.207 196.648 37.207H198.23C198.793 37.207 199.326 37.1016 199.83 36.8906C200.334 36.6797 200.779 36.3926 201.166 36.0293C201.553 35.6543 201.857 35.2266 202.08 34.7461C202.314 34.2539 202.432 33.7266 202.432 33.1641V32.4082C202.432 31.541 202.262 30.8203 201.922 30.2461C201.582 29.6719 201.131 29.1855 200.568 28.7871C200.006 28.377 199.367 28.0312 198.652 27.75C197.949 27.4688 197.223 27.1875 196.473 26.9062C195.723 26.625 194.99 26.3145 194.275 25.9746C193.572 25.6348 192.939 25.2129 192.377 24.709C191.814 24.1934 191.363 23.5664 191.023 22.8281C190.684 22.0898 190.514 21.1816 190.514 20.1035V19.6289C190.514 18.7734 190.672 17.9707 190.988 17.2207C191.316 16.4707 191.762 15.8145 192.324 15.252C192.887 14.6895 193.543 14.25 194.293 13.9336C195.055 13.6055 195.863 13.4414 196.719 13.4414H198.336C199.191 13.4414 199.994 13.6055 200.744 13.9336C201.494 14.25 202.15 14.6895 202.713 15.252C203.275 15.8145 203.715 16.4707 204.031 17.2207C204.359 17.9707 204.523 18.7734 204.523 19.6289V20.2793L202.256 20.6484V19.6289C202.256 19.0664 202.15 18.5449 201.939 18.0645C201.729 17.5723 201.441 17.1445 201.078 16.7812C200.715 16.418 200.287 16.1309 199.795 15.9199C199.314 15.709 198.793 15.6035 198.23 15.6035H196.824C196.262 15.6035 195.734 15.709 195.242 15.9199C194.762 16.1309 194.334 16.418 193.959 16.7812C193.596 17.1445 193.309 17.5723 193.098 18.0645C192.887 18.5449 192.781 19.0664 192.781 19.6289V20.1035C192.781 20.9121 192.951 21.5918 193.291 22.1426C193.631 22.6934 194.082 23.168 194.645 23.5664C195.207 23.9531 195.84 24.293 196.543 24.5859C197.258 24.8672 197.99 25.1602 198.74 25.4648C199.49 25.7578 200.217 26.0859 200.92 26.4492C201.635 26.8008 202.273 27.2402 202.836 27.7676C203.398 28.2832 203.85 28.916 204.189 29.666C204.529 30.416 204.699 31.3301 204.699 32.4082V33.1641ZM215.422 39C214.766 39 214.145 38.877 213.559 38.6309C212.984 38.3848 212.48 38.0449 212.047 37.6113C211.625 37.1777 211.285 36.6738 211.027 36.0996C210.781 35.5254 210.658 34.9102 210.658 34.2539V23.0566H207.424V21H210.658V16.6758L212.82 16.3242V21H217.391V23.0566H212.82V34.3594C212.82 34.7227 212.885 35.0625 213.014 35.3789C213.154 35.6836 213.342 35.9531 213.576 36.1875C213.811 36.4219 214.086 36.6094 214.402 36.75C214.719 36.8789 215.059 36.9434 215.422 36.9434H217.391V39H215.422ZM232.684 39L231.488 37.1719C230.996 37.8398 230.381 38.373 229.643 38.7715C228.904 39.1582 228.096 39.3516 227.217 39.3516H226.672C225.945 39.3516 225.26 39.2168 224.615 38.9473C223.971 38.666 223.408 38.2852 222.928 37.8047C222.447 37.3242 222.066 36.7617 221.785 36.1172C221.516 35.4727 221.381 34.7871 221.381 34.0605V21H223.543V34.1836C223.543 34.6172 223.625 35.0273 223.789 35.4141C223.953 35.7891 224.176 36.1172 224.457 36.3984C224.738 36.6797 225.066 36.9023 225.441 37.0664C225.828 37.2305 226.238 37.3125 226.672 37.3125H228.113C228.547 37.3125 228.951 37.2305 229.326 37.0664C229.713 36.9023 230.047 36.6797 230.328 36.3984C230.609 36.1172 230.832 35.7891 230.996 35.4141C231.16 35.0273 231.242 34.6172 231.242 34.1836V21H233.404V39H232.684ZM249.031 39L247.836 37.1719C247.344 37.8398 246.729 38.373 245.99 38.7715C245.252 39.1582 244.443 39.3516 243.564 39.3516H243.02C242.293 39.3516 241.607 39.2168 240.963 38.9473C240.318 38.666 239.756 38.2852 239.275 37.8047C238.795 37.3242 238.414 36.7617 238.133 36.1172C237.863 35.4727 237.729 34.7871 237.729 34.0605V25.9395C237.729 25.2129 237.863 24.5273 238.133 23.8828C238.414 23.2383 238.795 22.6758 239.275 22.1953C239.756 21.7148 240.318 21.3398 240.963 21.0703C241.607 20.7891 242.293 20.6484 243.02 20.6484H243.564C244.373 20.6484 245.123 20.8125 245.814 21.1406C246.506 21.4688 247.098 21.9258 247.59 22.5117V13.793H249.752V39H249.031ZM247.59 25.8164C247.59 25.3828 247.508 24.9785 247.344 24.6035C247.18 24.2168 246.957 23.8828 246.676 23.6016C246.395 23.3203 246.061 23.0977 245.674 22.9336C245.299 22.7695 244.895 22.6875 244.461 22.6875H243.02C242.586 22.6875 242.176 22.7695 241.789 22.9336C241.414 23.0977 241.086 23.3203 240.805 23.6016C240.523 23.8828 240.301 24.2168 240.137 24.6035C239.973 24.9785 239.891 25.3828 239.891 25.8164V34.1836C239.891 34.6172 239.973 35.0273 240.137 35.4141C240.301 35.7891 240.523 36.1172 240.805 36.3984C241.086 36.6797 241.414 36.9023 241.789 37.0664C242.176 37.2305 242.586 37.3125 243.02 37.3125H244.461C244.895 37.3125 245.299 37.2305 245.674 37.0664C246.061 36.9023 246.395 36.6797 246.676 36.3984C246.957 36.1172 247.18 35.7891 247.344 35.4141C247.508 35.0273 247.59 34.6172 247.59 34.1836V25.8164ZM254.621 16.6758V13.793H257.135V16.6758H254.621ZM254.797 39V21H256.959V39H254.797ZM274.045 34.0605C274.045 34.7871 273.904 35.4727 273.623 36.1172C273.354 36.7617 272.979 37.3242 272.498 37.8047C272.018 38.2852 271.455 38.666 270.811 38.9473C270.166 39.2168 269.48 39.3516 268.754 39.3516H267.312C266.586 39.3516 265.9 39.2168 265.256 38.9473C264.611 38.666 264.049 38.2852 263.568 37.8047C263.088 37.3242 262.707 36.7617 262.426 36.1172C262.156 35.4727 262.021 34.7871 262.021 34.0605V25.9395C262.021 25.2129 262.156 24.5273 262.426 23.8828C262.707 23.2383 263.088 22.6758 263.568 22.1953C264.049 21.7148 264.611 21.3398 265.256 21.0703C265.9 20.7891 266.586 20.6484 267.312 20.6484H268.754C269.48 20.6484 270.166 20.7891 270.811 21.0703C271.455 21.3398 272.018 21.7148 272.498 22.1953C272.979 22.6758 273.354 23.2383 273.623 23.8828C273.904 24.5273 274.045 25.2129 274.045 25.9395V34.0605ZM271.883 25.8164C271.883 25.3828 271.801 24.9785 271.637 24.6035C271.473 24.2168 271.25 23.8828 270.969 23.6016C270.688 23.3203 270.354 23.0977 269.967 22.9336C269.592 22.7695 269.188 22.6875 268.754 22.6875H267.312C266.879 22.6875 266.469 22.7695 266.082 22.9336C265.707 23.0977 265.379 23.3203 265.098 23.6016C264.816 23.8828 264.594 24.2168 264.43 24.6035C264.266 24.9785 264.184 25.3828 264.184 25.8164V34.1836C264.184 34.6172 264.266 35.0273 264.43 35.4141C264.594 35.7891 264.816 36.1172 265.098 36.3984C265.379 36.6797 265.707 36.9023 266.082 37.0664C266.469 37.2305 266.879 37.3125 267.312 37.3125H268.754C269.188 37.3125 269.592 37.2305 269.967 37.0664C270.354 36.9023 270.688 36.6797 270.969 36.3984C271.25 36.1172 271.473 35.7891 271.637 35.4141C271.801 35.0273 271.883 34.6172 271.883 34.1836V25.8164ZM290.744 34.4297C290.744 35.1562 290.598 35.8242 290.305 36.4336C290.012 37.0312 289.613 37.5469 289.109 37.9805C288.605 38.4141 288.02 38.7539 287.352 39C286.695 39.2344 286.004 39.3516 285.277 39.3516H283.836C283.109 39.3516 282.412 39.2168 281.744 38.9473C281.088 38.666 280.508 38.2852 280.004 37.8047C279.512 37.3242 279.113 36.7617 278.809 36.1172C278.516 35.4727 278.369 34.7871 278.369 34.0605V33.3398L280.531 32.9883V34.1836C280.531 34.6172 280.619 35.0273 280.795 35.4141C280.982 35.7891 281.229 36.1172 281.533 36.3984C281.838 36.6797 282.189 36.9023 282.588 37.0664C282.986 37.2305 283.402 37.3125 283.836 37.3125H285.277C285.711 37.3125 286.127 37.248 286.525 37.1191C286.924 36.9902 287.275 36.8086 287.58 36.5742C287.896 36.3281 288.143 36.0352 288.318 35.6953C288.506 35.3555 288.6 34.9688 288.6 34.5352C288.6 33.8906 288.459 33.3633 288.178 32.9531C287.896 32.543 287.521 32.2031 287.053 31.9336C286.596 31.6523 286.068 31.4238 285.471 31.248C284.885 31.0605 284.281 30.8789 283.66 30.7031C283.039 30.5156 282.43 30.3047 281.832 30.0703C281.246 29.8359 280.719 29.5312 280.25 29.1562C279.793 28.7695 279.424 28.2891 279.143 27.7148C278.861 27.1406 278.721 26.4258 278.721 25.5703C278.721 24.8438 278.861 24.1816 279.143 23.584C279.424 22.9746 279.805 22.4531 280.285 22.0195C280.766 21.5859 281.322 21.252 281.955 21.0176C282.6 20.7715 283.285 20.6484 284.012 20.6484H285.277C286.004 20.6484 286.689 20.7891 287.334 21.0703C287.979 21.3398 288.541 21.7148 289.021 22.1953C289.502 22.6758 289.877 23.2383 290.146 23.8828C290.428 24.5273 290.568 25.2129 290.568 25.9395V26.0098L288.406 26.3613V25.8164C288.406 25.3828 288.324 24.9785 288.16 24.6035C287.996 24.2168 287.773 23.8828 287.492 23.6016C287.211 23.3203 286.877 23.0977 286.49 22.9336C286.115 22.7695 285.711 22.6875 285.277 22.6875H284.012C283.578 22.6875 283.168 22.752 282.781 22.8809C282.406 23.0098 282.078 23.1973 281.797 23.4434C281.516 23.6777 281.293 23.9648 281.129 24.3047C280.965 24.6445 280.883 25.0312 280.883 25.4648C280.883 26.0859 281.023 26.5957 281.305 26.9941C281.586 27.3809 281.955 27.709 282.412 27.9785C282.881 28.248 283.408 28.4766 283.994 28.6641C284.592 28.8398 285.195 29.0273 285.805 29.2266C286.426 29.4141 287.029 29.6309 287.615 29.877C288.213 30.123 288.74 30.4395 289.197 30.8262C289.666 31.2129 290.041 31.6992 290.322 32.2852C290.604 32.8594 290.744 33.5742 290.744 34.4297Z" fill="white"/>
<path d="M19.446 40H2.73V17.614C2.73 15.542 3.388 13.876 4.704 12.616C5.6 11.776 6.608 11.23 7.728 10.978C8.848 10.726 10.22 10.6 11.844 10.6H19.446V14.296H11.298C8.218 14.296 6.678 15.584 6.678 18.16V22.948H16.38V26.644H6.678V36.304H19.446V40ZM24.0581 19.84H31.3241C34.4321 19.84 36.6581 20.302 38.0021 21.226C39.2061 22.038 39.9621 23.018 40.2701 24.166C40.6061 25.286 40.7741 26.77 40.7741 28.618V40H37.0781V28.66C37.0781 28.156 37.0641 27.736 37.0361 27.4C37.0081 27.036 36.9101 26.588 36.7421 26.056C36.5741 25.496 36.3361 25.048 36.0281 24.712C35.7201 24.348 35.2721 24.04 34.6841 23.788C34.0961 23.508 33.3821 23.368 32.5421 23.368H27.7541V40H24.0581V19.84ZM46.0425 19.84H53.3085C56.4165 19.84 58.6425 20.302 59.9865 21.226C61.1905 22.038 61.9465 23.018 62.2545 24.166C62.5905 25.286 62.7585 26.77 62.7585 28.618V40H59.0625V28.66C59.0625 28.156 59.0485 27.736 59.0205 27.4C58.9925 27.036 58.8945 26.588 58.7265 26.056C58.5585 25.496 58.3205 25.048 58.0125 24.712C57.7045 24.348 57.2565 24.04 56.6685 23.788C56.0805 23.508 55.3665 23.368 54.5265 23.368H49.7385V40H46.0425V19.84ZM77.6869 19.42C82.4469 19.616 84.8269 21.59 84.8269 25.342C84.8269 30.018 81.7609 32.356 75.6289 32.356H73.9069V29.122H75.9229C77.7989 29.122 79.1009 28.842 79.8289 28.282C80.5569 27.694 80.9209 26.728 80.9209 25.384C80.9209 24.516 80.5989 23.872 79.9549 23.452C79.3109 23.004 78.4849 22.78 77.4769 22.78C75.4889 22.78 73.9209 23.48 72.7729 24.88C71.6529 26.28 71.0929 27.96 71.0929 29.92C71.0929 31.992 71.6949 33.672 72.8989 34.96C74.1309 36.248 75.7269 36.892 77.6869 36.892C79.4509 36.892 80.8929 36.458 82.0129 35.59L84.5329 38.068C82.6009 39.636 80.3189 40.42 77.6869 40.42C74.4949 40.42 71.9469 39.482 70.0429 37.606C68.1389 35.73 67.1869 33.308 67.1869 30.34C67.1869 27.036 68.1249 24.362 70.0009 22.318C71.8769 20.274 74.4389 19.308 77.6869 19.42ZM100.236 28.156V31.936C99.172 31.124 97.87 30.718 96.33 30.718C95.014 30.718 93.992 30.984 93.264 31.516C92.536 32.02 92.172 32.748 92.172 33.7C92.172 35.548 93.544 36.472 96.288 36.472H101.832V28.45C101.832 25.062 100.18 23.368 96.876 23.368H90.156V19.84H97.086C99.802 19.84 101.888 20.512 103.344 21.856C104.8 23.2 105.528 25.132 105.528 27.652V40H96.162C93.782 40 91.892 39.468 90.492 38.404C89.092 37.34 88.392 35.786 88.392 33.742C88.392 31.698 89.134 30.144 90.618 29.08C92.102 28.016 93.964 27.484 96.204 27.484C97.464 27.484 98.808 27.708 100.236 28.156ZM119.511 40C116.767 40 114.415 39.076 112.455 37.228C110.495 35.38 109.515 33.014 109.515 30.13C109.515 27.218 110.495 24.782 112.455 22.822C114.443 20.834 116.893 19.84 119.805 19.84H129.675V39.412C129.675 40.672 129.507 41.806 129.171 42.814C128.863 43.822 128.415 44.676 127.827 45.376C127.239 46.076 126.707 46.622 126.231 47.014C125.755 47.406 125.181 47.812 124.509 48.232C122.773 49.128 120.659 49.576 118.167 49.576H113.463V46.048H117.789C120.253 46.048 122.003 45.74 123.039 45.124C124.943 44.06 125.895 42.296 125.895 39.832V23.368H119.805C117.817 23.368 116.235 23.984 115.059 25.216C113.883 26.448 113.295 28.086 113.295 30.13C113.295 32.09 113.897 33.644 115.101 34.792C116.333 35.912 117.803 36.472 119.511 36.472C121.359 36.472 122.983 35.968 124.383 34.96V38.74C122.871 39.58 121.247 40 119.511 40ZM137.228 22.486C139.188 20.442 141.638 19.42 144.578 19.42C146.006 19.42 147.336 19.7 148.568 20.26C149.828 20.792 150.92 21.534 151.844 22.486C152.796 23.438 153.538 24.558 154.07 25.846C154.602 27.106 154.868 28.464 154.868 29.92C154.868 31.376 154.602 32.748 154.07 34.036C153.566 35.296 152.852 36.402 151.928 37.354C151.004 38.306 149.912 39.062 148.652 39.622C147.392 40.154 146.034 40.42 144.578 40.42C143.094 40.42 141.722 40.154 140.462 39.622C139.23 39.062 138.152 38.306 137.228 37.354C136.304 36.402 135.576 35.296 135.044 34.036C134.54 32.748 134.288 31.376 134.288 29.92C134.288 26.952 135.268 24.474 137.228 22.486ZM144.578 22.948C142.618 22.948 141.036 23.592 139.832 24.88C138.656 26.168 138.068 27.848 138.068 29.92C138.068 31.992 138.656 33.672 139.832 34.96C141.036 36.248 142.618 36.892 144.578 36.892C146.566 36.892 148.148 36.248 149.324 34.96C150.5 33.644 151.088 31.964 151.088 29.92C151.088 27.876 150.5 26.21 149.324 24.922C148.148 23.606 146.566 22.948 144.578 22.948ZM159.492 19.84H166.758C169.866 19.84 172.092 20.302 173.436 21.226C174.64 22.038 175.396 23.018 175.704 24.166C176.04 25.286 176.208 26.77 176.208 28.618V40H172.512V28.66C172.512 28.156 172.498 27.736 172.47 27.4C172.442 27.036 172.344 26.588 172.176 26.056C172.008 25.496 171.77 25.048 171.462 24.712C171.154 24.348 170.706 24.04 170.118 23.788C169.53 23.508 168.816 23.368 167.976 23.368H163.188V40H159.492V19.84Z" fill="white"/>
</svg>
