<svg width="268" height="19" viewBox="0 0 268 19" fill="none" xmlns="http://www.w3.org/2000/svg">
<path d="M12.0586 14H11.3203L8.49902 4.08594C8.25879 3.26562 8.08301 2.59766 7.97168 2.08203C7.86621 2.63867 7.74023 3.19824 7.59375 3.76074C7.44727 4.31738 6.49512 7.73047 4.7373 14H3.98145L0.448242 1.15039H1.38867L3.63867 9.42969C4.04883 10.9941 4.30078 12.043 4.39453 12.5762C4.53516 11.791 4.83398 10.5811 5.29102 8.94629L7.48828 1.15039H8.48145L11.0566 10.0977C11.3438 11.082 11.5576 11.9141 11.6982 12.5938C11.7744 12.1719 11.8711 11.7236 11.9883 11.249C12.1113 10.7744 13.0166 7.4082 14.7041 1.15039H15.6094L12.0586 14ZM21.5244 14.1758C20.1416 14.1758 19.0576 13.748 18.2725 12.8926C17.499 12.0371 17.1123 10.8447 17.1123 9.31543C17.1123 7.78613 17.4844 6.56152 18.2285 5.6416C18.9785 4.72168 19.9922 4.26172 21.2695 4.26172C22.3945 4.26172 23.2822 4.65723 23.9326 5.44824C24.583 6.2334 24.9082 7.29688 24.9082 8.63867V9.3418H18.0264C18.0381 10.6543 18.3428 11.6562 18.9404 12.3477C19.5439 13.0391 20.4053 13.3848 21.5244 13.3848C22.0811 13.3848 22.5703 13.3438 22.9922 13.2617C23.4141 13.1797 23.9268 13.0186 24.5303 12.7783V13.5693C23.9971 13.8037 23.499 13.9619 23.0361 14.0439C22.5791 14.1318 22.0752 14.1758 21.5244 14.1758ZM23.9854 8.56836C23.9854 7.46094 23.7422 6.59668 23.2559 5.97559C22.7695 5.34863 22.084 5.03516 21.1992 5.03516C20.3203 5.03516 19.6025 5.33984 19.0459 5.94922C18.4951 6.55859 18.1729 7.43164 18.0791 8.56836H23.9854ZM28.415 0.324219V3.76074C28.415 4.3291 28.4033 4.80371 28.3799 5.18457L28.3535 5.93164H28.415C28.7783 5.35742 29.2148 4.93555 29.7246 4.66602C30.2402 4.39648 30.8584 4.26172 31.5791 4.26172C32.9092 4.26172 33.9141 4.68066 34.5938 5.51855C35.2734 6.35645 35.6133 7.57812 35.6133 9.18359C35.6133 10.7891 35.2529 12.0225 34.5322 12.8838C33.8291 13.7451 32.833 14.1758 31.5439 14.1758C30.8643 14.1758 30.252 14.0352 29.707 13.7539C29.1621 13.4727 28.7314 13.0742 28.415 12.5586H28.3359L28.0898 14H27.5449V0.324219H28.415ZM28.415 9.20996V9.35938C28.415 10.8008 28.667 11.835 29.1709 12.4619C29.6807 13.0889 30.46 13.4023 31.5088 13.4023C32.5635 13.4023 33.3545 13.042 33.8818 12.3213C34.415 11.5947 34.6816 10.5518 34.6816 9.19238C34.6816 6.43262 33.6416 5.05273 31.5615 5.05273C30.4424 5.05273 29.6367 5.375 29.1445 6.01953C28.6582 6.66406 28.415 7.72754 28.415 9.20996ZM50.1855 1.97656H44.0596V6.83691H49.8428V7.66309H44.0596V13.1826H50.1855V14H43.1631V1.15039H50.1855V1.97656ZM57.1465 4.26172C59.3145 4.26172 60.3984 5.4248 60.3984 7.75098V14H59.5371V7.80371C59.5371 6.84863 59.335 6.15137 58.9307 5.71191C58.5322 5.27246 57.9053 5.05273 57.0498 5.05273C55.9189 5.05273 55.084 5.33984 54.5449 5.91406C54.0117 6.48828 53.7451 7.42578 53.7451 8.72656V14H52.875V4.44629H53.6133L53.7803 5.75586H53.833C54.46 4.75977 55.5645 4.26172 57.1465 4.26172ZM65.9092 12.6816H67.5791C68.6221 12.6816 69.416 12.8926 69.9609 13.3145C70.5117 13.7305 70.7871 14.3486 70.7871 15.1689C70.7871 16.1768 70.377 16.9531 69.5566 17.498C68.7422 18.0488 67.5791 18.3242 66.0674 18.3242C64.8721 18.3242 63.9434 18.0928 63.2812 17.6299C62.6191 17.167 62.2881 16.5225 62.2881 15.6963C62.2881 15.0518 62.4873 14.5098 62.8857 14.0703C63.29 13.6367 63.8467 13.3408 64.5557 13.1826C64.2627 13.0537 64.0312 12.875 63.8613 12.6465C63.6914 12.418 63.6064 12.1602 63.6064 11.873C63.6064 11.2285 64.0137 10.666 64.8281 10.1855C64.2715 9.95703 63.8379 9.59961 63.5273 9.11328C63.2168 8.62109 63.0615 8.05859 63.0615 7.42578C63.0615 6.46484 63.3633 5.69727 63.9668 5.12305C64.5762 4.54883 65.3965 4.26172 66.4277 4.26172C67.0605 4.26172 67.5469 4.32324 67.8867 4.44629H70.9453V5.05273L68.9678 5.17578C69.4951 5.83203 69.7588 6.55273 69.7588 7.33789C69.7588 8.26367 69.4541 9.01074 68.8447 9.5791C68.2354 10.1475 67.4121 10.4316 66.375 10.4316C65.9414 10.4316 65.6367 10.4141 65.4609 10.3789C64.752 10.748 64.3975 11.2227 64.3975 11.8027C64.3975 12.1074 64.5146 12.3301 64.749 12.4707C64.9834 12.6113 65.3701 12.6816 65.9092 12.6816ZM68.8799 7.36426C68.8799 6.5791 68.6631 5.98145 68.2295 5.57129C67.8018 5.15527 67.1982 4.94727 66.4189 4.94727C65.6396 4.94727 65.0303 5.16699 64.5908 5.60645C64.1572 6.0459 63.9404 6.64355 63.9404 7.39941C63.9404 8.15527 64.1631 8.73828 64.6084 9.14844C65.0596 9.55273 65.6719 9.75488 66.4453 9.75488C67.2188 9.75488 67.8164 9.55273 68.2383 9.14844C68.666 8.74414 68.8799 8.14941 68.8799 7.36426ZM67.4033 13.5518H65.8389C64.0869 13.5518 63.2109 14.2402 63.2109 15.6172C63.2109 16.9297 64.1865 17.5859 66.1377 17.5859C68.6455 17.5859 69.8994 16.7861 69.8994 15.1865C69.8994 14.6123 69.7031 14.1963 69.3105 13.9385C68.918 13.6807 68.2822 13.5518 67.4033 13.5518ZM73.3447 0.948242C73.5264 0.948242 73.667 1.02148 73.7666 1.16797C73.8721 1.31445 73.9248 1.52246 73.9248 1.79199C73.9248 2.05566 73.8721 2.26367 73.7666 2.41602C73.667 2.56836 73.5264 2.64453 73.3447 2.64453C72.9756 2.64453 72.791 2.36328 72.791 1.80078C72.791 1.23242 72.9756 0.948242 73.3447 0.948242ZM73.7842 14H72.9141V4.44629H73.7842V14ZM81.2637 4.26172C83.4316 4.26172 84.5156 5.4248 84.5156 7.75098V14H83.6543V7.80371C83.6543 6.84863 83.4521 6.15137 83.0479 5.71191C82.6494 5.27246 82.0225 5.05273 81.167 5.05273C80.0361 5.05273 79.2012 5.33984 78.6621 5.91406C78.1289 6.48828 77.8623 7.42578 77.8623 8.72656V14H76.9922V4.44629H77.7305L77.8975 5.75586H77.9502C78.5771 4.75977 79.6816 4.26172 81.2637 4.26172ZM91.4678 14.1758C90.085 14.1758 89.001 13.748 88.2158 12.8926C87.4424 12.0371 87.0557 10.8447 87.0557 9.31543C87.0557 7.78613 87.4277 6.56152 88.1719 5.6416C88.9219 4.72168 89.9355 4.26172 91.2129 4.26172C92.3379 4.26172 93.2256 4.65723 93.876 5.44824C94.5264 6.2334 94.8516 7.29688 94.8516 8.63867V9.3418H87.9697C87.9814 10.6543 88.2861 11.6562 88.8838 12.3477C89.4873 13.0391 90.3486 13.3848 91.4678 13.3848C92.0244 13.3848 92.5137 13.3438 92.9355 13.2617C93.3574 13.1797 93.8701 13.0186 94.4736 12.7783V13.5693C93.9404 13.8037 93.4424 13.9619 92.9795 14.0439C92.5225 14.1318 92.0186 14.1758 91.4678 14.1758ZM93.9287 8.56836C93.9287 7.46094 93.6855 6.59668 93.1992 5.97559C92.7129 5.34863 92.0273 5.03516 91.1426 5.03516C90.2637 5.03516 89.5459 5.33984 88.9893 5.94922C88.4385 6.55859 88.1162 7.43164 88.0225 8.56836H93.9287ZM101.347 14.1758C99.9639 14.1758 98.8799 13.748 98.0947 12.8926C97.3213 12.0371 96.9346 10.8447 96.9346 9.31543C96.9346 7.78613 97.3066 6.56152 98.0508 5.6416C98.8008 4.72168 99.8145 4.26172 101.092 4.26172C102.217 4.26172 103.104 4.65723 103.755 5.44824C104.405 6.2334 104.73 7.29688 104.73 8.63867V9.3418H97.8486C97.8604 10.6543 98.165 11.6562 98.7627 12.3477C99.3662 13.0391 100.228 13.3848 101.347 13.3848C101.903 13.3848 102.393 13.3438 102.814 13.2617C103.236 13.1797 103.749 13.0186 104.353 12.7783V13.5693C103.819 13.8037 103.321 13.9619 102.858 14.0439C102.401 14.1318 101.897 14.1758 101.347 14.1758ZM103.808 8.56836C103.808 7.46094 103.564 6.59668 103.078 5.97559C102.592 5.34863 101.906 5.03516 101.021 5.03516C100.143 5.03516 99.4248 5.33984 98.8682 5.94922C98.3174 6.55859 97.9951 7.43164 97.9014 8.56836H103.808ZM111.129 4.26172C111.516 4.26172 111.949 4.30273 112.43 4.38477L112.263 5.22852C111.87 5.12305 111.457 5.07031 111.023 5.07031C110.209 5.07031 109.541 5.41895 109.02 6.11621C108.498 6.80762 108.237 7.67773 108.237 8.72656V14H107.367V4.44629H108.105L108.193 6.16895H108.255C108.659 5.4541 109.078 4.96191 109.512 4.69238C109.957 4.40527 110.496 4.26172 111.129 4.26172ZM114.812 0.948242C114.993 0.948242 115.134 1.02148 115.233 1.16797C115.339 1.31445 115.392 1.52246 115.392 1.79199C115.392 2.05566 115.339 2.26367 115.233 2.41602C115.134 2.56836 114.993 2.64453 114.812 2.64453C114.442 2.64453 114.258 2.36328 114.258 1.80078C114.258 1.23242 114.442 0.948242 114.812 0.948242ZM115.251 14H114.381V4.44629H115.251V14ZM122.73 4.26172C124.898 4.26172 125.982 5.4248 125.982 7.75098V14H125.121V7.80371C125.121 6.84863 124.919 6.15137 124.515 5.71191C124.116 5.27246 123.489 5.05273 122.634 5.05273C121.503 5.05273 120.668 5.33984 120.129 5.91406C119.596 6.48828 119.329 7.42578 119.329 8.72656V14H118.459V4.44629H119.197L119.364 5.75586H119.417C120.044 4.75977 121.148 4.26172 122.73 4.26172ZM131.493 12.6816H133.163C134.206 12.6816 135 12.8926 135.545 13.3145C136.096 13.7305 136.371 14.3486 136.371 15.1689C136.371 16.1768 135.961 16.9531 135.141 17.498C134.326 18.0488 133.163 18.3242 131.651 18.3242C130.456 18.3242 129.527 18.0928 128.865 17.6299C128.203 17.167 127.872 16.5225 127.872 15.6963C127.872 15.0518 128.071 14.5098 128.47 14.0703C128.874 13.6367 129.431 13.3408 130.14 13.1826C129.847 13.0537 129.615 12.875 129.445 12.6465C129.275 12.418 129.19 12.1602 129.19 11.873C129.19 11.2285 129.598 10.666 130.412 10.1855C129.855 9.95703 129.422 9.59961 129.111 9.11328C128.801 8.62109 128.646 8.05859 128.646 7.42578C128.646 6.46484 128.947 5.69727 129.551 5.12305C130.16 4.54883 130.98 4.26172 132.012 4.26172C132.645 4.26172 133.131 4.32324 133.471 4.44629H136.529V5.05273L134.552 5.17578C135.079 5.83203 135.343 6.55273 135.343 7.33789C135.343 8.26367 135.038 9.01074 134.429 9.5791C133.819 10.1475 132.996 10.4316 131.959 10.4316C131.525 10.4316 131.221 10.4141 131.045 10.3789C130.336 10.748 129.981 11.2227 129.981 11.8027C129.981 12.1074 130.099 12.3301 130.333 12.4707C130.567 12.6113 130.954 12.6816 131.493 12.6816ZM134.464 7.36426C134.464 6.5791 134.247 5.98145 133.813 5.57129C133.386 5.15527 132.782 4.94727 132.003 4.94727C131.224 4.94727 130.614 5.16699 130.175 5.60645C129.741 6.0459 129.524 6.64355 129.524 7.39941C129.524 8.15527 129.747 8.73828 130.192 9.14844C130.644 9.55273 131.256 9.75488 132.029 9.75488C132.803 9.75488 133.4 9.55273 133.822 9.14844C134.25 8.74414 134.464 8.14941 134.464 7.36426ZM132.987 13.5518H131.423C129.671 13.5518 128.795 14.2402 128.795 15.6172C128.795 16.9297 129.771 17.5859 131.722 17.5859C134.229 17.5859 135.483 16.7861 135.483 15.1865C135.483 14.6123 135.287 14.1963 134.895 13.9385C134.502 13.6807 133.866 13.5518 132.987 13.5518ZM145.055 6.15137C144.293 5.33691 143.912 4.51367 143.912 3.68164C143.912 2.84375 144.19 2.17871 144.747 1.68652C145.31 1.19434 146.054 0.948242 146.979 0.948242C147.905 0.948242 148.632 1.18555 149.159 1.66016C149.692 2.13477 149.959 2.79102 149.959 3.62891C149.959 4.24414 149.754 4.8125 149.344 5.33398C148.916 5.84961 148.175 6.41504 147.12 7.03027L151.093 11.0469C151.79 10.2207 152.314 9.17188 152.666 7.90039H153.51C153.141 9.33594 152.528 10.584 151.673 11.6445L154.011 14H152.824L151.128 12.2686C150.589 12.8018 150.108 13.1885 149.687 13.4287C148.831 13.9268 147.794 14.1758 146.575 14.1758C145.356 14.1758 144.398 13.874 143.701 13.2705C143.004 12.6611 142.655 11.8174 142.655 10.7393C142.655 9.93066 142.869 9.24512 143.297 8.68262C143.725 8.11426 144.53 7.51074 145.714 6.87207L145.055 6.15137ZM149.027 3.60254C149.027 3.05176 148.846 2.60352 148.482 2.25781C148.119 1.91211 147.615 1.73926 146.971 1.73926C146.326 1.73926 145.811 1.90918 145.424 2.24902C145.043 2.58887 144.853 3.06055 144.853 3.66406C144.853 4.12695 144.97 4.55762 145.204 4.95605C145.438 5.34863 145.884 5.85547 146.54 6.47656C147.478 5.97266 148.125 5.50684 148.482 5.0791C148.846 4.64551 149.027 4.15332 149.027 3.60254ZM144.58 8.5332C143.906 9.0957 143.569 9.80762 143.569 10.6689C143.569 11.5303 143.839 12.1982 144.378 12.6729C144.917 13.1475 145.676 13.3848 146.654 13.3848C147.41 13.3848 148.096 13.2588 148.711 13.0068C149.332 12.7549 149.947 12.3242 150.557 11.7148L146.312 7.45215C145.526 7.86816 144.949 8.22852 144.58 8.5332ZM160.901 1.15039H164.373C166.424 1.15039 167.982 1.68652 169.049 2.75879C170.121 3.83105 170.657 5.42188 170.657 7.53125C170.657 9.63477 170.092 11.2402 168.961 12.3477C167.836 13.4492 166.175 14 163.978 14H160.901V1.15039ZM161.798 1.94141V13.209H163.925C167.763 13.209 169.682 11.3018 169.682 7.4873C169.682 5.65332 169.213 4.27051 168.275 3.33887C167.344 2.40723 165.973 1.94141 164.162 1.94141H161.798ZM177.249 14.1758C175.866 14.1758 174.782 13.748 173.997 12.8926C173.224 12.0371 172.837 10.8447 172.837 9.31543C172.837 7.78613 173.209 6.56152 173.953 5.6416C174.703 4.72168 175.717 4.26172 176.994 4.26172C178.119 4.26172 179.007 4.65723 179.657 5.44824C180.308 6.2334 180.633 7.29688 180.633 8.63867V9.3418H173.751C173.763 10.6543 174.067 11.6562 174.665 12.3477C175.269 13.0391 176.13 13.3848 177.249 13.3848C177.806 13.3848 178.295 13.3438 178.717 13.2617C179.139 13.1797 179.651 13.0186 180.255 12.7783V13.5693C179.722 13.8037 179.224 13.9619 178.761 14.0439C178.304 14.1318 177.8 14.1758 177.249 14.1758ZM179.71 8.56836C179.71 7.46094 179.467 6.59668 178.98 5.97559C178.494 5.34863 177.809 5.03516 176.924 5.03516C176.045 5.03516 175.327 5.33984 174.771 5.94922C174.22 6.55859 173.897 7.43164 173.804 8.56836H179.71ZM186.24 14H185.361L181.67 4.44629H182.566L185.036 10.9414C185.37 11.7969 185.616 12.5264 185.774 13.1299H185.827C186.056 12.3447 186.302 11.6094 186.565 10.9238L189.035 4.44629H189.932L186.24 14ZM195.39 14.1758C194.007 14.1758 192.923 13.748 192.138 12.8926C191.364 12.0371 190.978 10.8447 190.978 9.31543C190.978 7.78613 191.35 6.56152 192.094 5.6416C192.844 4.72168 193.857 4.26172 195.135 4.26172C196.26 4.26172 197.147 4.65723 197.798 5.44824C198.448 6.2334 198.773 7.29688 198.773 8.63867V9.3418H191.892C191.903 10.6543 192.208 11.6562 192.806 12.3477C193.409 13.0391 194.271 13.3848 195.39 13.3848C195.946 13.3848 196.436 13.3438 196.857 13.2617C197.279 13.1797 197.792 13.0186 198.396 12.7783V13.5693C197.862 13.8037 197.364 13.9619 196.901 14.0439C196.444 14.1318 195.94 14.1758 195.39 14.1758ZM197.851 8.56836C197.851 7.46094 197.607 6.59668 197.121 5.97559C196.635 5.34863 195.949 5.03516 195.064 5.03516C194.186 5.03516 193.468 5.33984 192.911 5.94922C192.36 6.55859 192.038 7.43164 191.944 8.56836H197.851ZM202.28 14H201.41V0.324219H202.28V14ZM204.926 9.20996C204.926 7.65723 205.304 6.44434 206.06 5.57129C206.815 4.69824 207.85 4.26172 209.162 4.26172C210.48 4.26172 211.512 4.7041 212.256 5.58887C213.006 6.47363 213.381 7.68945 213.381 9.23633C213.381 10.7773 213.003 11.9873 212.247 12.8662C211.491 13.7393 210.448 14.1758 209.118 14.1758C209.089 14.1758 209.057 14.1758 209.021 14.1758C207.809 14.1758 206.821 13.7275 206.06 12.8311C205.304 11.9346 204.926 10.7715 204.926 9.3418C204.926 9.29492 204.926 9.25098 204.926 9.20996ZM209.153 13.3848C210.208 13.3848 211.022 13.0186 211.597 12.2861C212.171 11.5537 212.458 10.5283 212.458 9.20996C212.458 7.88574 212.165 6.86328 211.579 6.14258C210.999 5.41602 210.182 5.05273 209.127 5.05273C208.078 5.05273 207.267 5.41602 206.692 6.14258C206.124 6.86328 205.84 7.88281 205.84 9.20117C205.84 10.5137 206.127 11.542 206.701 12.2861C207.281 13.0186 208.099 13.3848 209.153 13.3848ZM220.14 4.26172C221.429 4.26172 222.41 4.68652 223.084 5.53613C223.764 6.37988 224.104 7.59863 224.104 9.19238C224.104 10.7803 223.746 12.0078 223.031 12.875C222.322 13.7422 221.353 14.1758 220.122 14.1758C218.657 14.1758 217.585 13.625 216.905 12.5234H216.844L216.87 13.2617C216.894 13.6426 216.905 14.1172 216.905 14.6855V18.3242H216.035V4.44629H216.773L216.94 5.80859H216.993C217.655 4.77734 218.704 4.26172 220.14 4.26172ZM216.905 8.96387V9.24512C216.905 10.7393 217.154 11.8057 217.652 12.4443C218.15 13.083 218.968 13.4023 220.104 13.4023C221.083 13.4023 221.839 13.0391 222.372 12.3125C222.905 11.5859 223.172 10.5693 223.172 9.2627C223.172 6.45605 222.161 5.05273 220.14 5.05273C219.032 5.05273 218.215 5.36035 217.688 5.97559C217.166 6.58496 216.905 7.58105 216.905 8.96387ZM236.426 4.26172C237.48 4.26172 238.266 4.5459 238.781 5.11426C239.297 5.67676 239.555 6.55566 239.555 7.75098V14H238.693V7.7334C238.693 6.80762 238.512 6.13086 238.148 5.70312C237.791 5.26953 237.234 5.05273 236.479 5.05273C235.494 5.05273 234.768 5.32227 234.299 5.86133C233.836 6.40039 233.604 7.24707 233.604 8.40137V14H232.717V7.46973C232.717 5.8584 231.979 5.05273 230.502 5.05273C229.5 5.05273 228.771 5.3457 228.313 5.93164C227.856 6.51172 227.628 7.44336 227.628 8.72656V14H226.758V4.44629H227.479L227.663 5.75586H227.716C227.979 5.28711 228.352 4.9209 228.832 4.65723C229.318 4.39355 229.857 4.26172 230.449 4.26172C231.955 4.26172 232.922 4.82715 233.35 5.95801H233.385C233.695 5.41309 234.111 4.99414 234.633 4.70117C235.16 4.4082 235.758 4.26172 236.426 4.26172ZM246.507 14.1758C245.124 14.1758 244.04 13.748 243.255 12.8926C242.481 12.0371 242.095 10.8447 242.095 9.31543C242.095 7.78613 242.467 6.56152 243.211 5.6416C243.961 4.72168 244.975 4.26172 246.252 4.26172C247.377 4.26172 248.265 4.65723 248.915 5.44824C249.565 6.2334 249.891 7.29688 249.891 8.63867V9.3418H243.009C243.021 10.6543 243.325 11.6562 243.923 12.3477C244.526 13.0391 245.388 13.3848 246.507 13.3848C247.063 13.3848 247.553 13.3438 247.975 13.2617C248.396 13.1797 248.909 13.0186 249.513 12.7783V13.5693C248.979 13.8037 248.481 13.9619 248.019 14.0439C247.562 14.1318 247.058 14.1758 246.507 14.1758ZM248.968 8.56836C248.968 7.46094 248.725 6.59668 248.238 5.97559C247.752 5.34863 247.066 5.03516 246.182 5.03516C245.303 5.03516 244.585 5.33984 244.028 5.94922C243.478 6.55859 243.155 7.43164 243.062 8.56836H248.968ZM256.799 4.26172C258.967 4.26172 260.051 5.4248 260.051 7.75098V14H259.189V7.80371C259.189 6.84863 258.987 6.15137 258.583 5.71191C258.185 5.27246 257.558 5.05273 256.702 5.05273C255.571 5.05273 254.736 5.33984 254.197 5.91406C253.664 6.48828 253.397 7.42578 253.397 8.72656V14H252.527V4.44629H253.266L253.433 5.75586H253.485C254.112 4.75977 255.217 4.26172 256.799 4.26172ZM264.067 4.44629H266.871V5.20215H264.067V11.249C264.067 11.9814 264.196 12.5234 264.454 12.875C264.712 13.2266 265.119 13.4023 265.676 13.4023C266.232 13.4023 266.71 13.3555 267.108 13.2617V13.9648C266.687 14.1055 266.2 14.1758 265.649 14.1758C264.806 14.1758 264.182 13.9502 263.777 13.499C263.379 13.0479 263.18 12.3389 263.18 11.3721V5.20215H261.765V4.69238L263.18 4.29688L263.619 2.13477H264.067V4.44629Z" fill="white"/>
</svg>
