<svg width="179" height="84" viewBox="0 0 179 84" fill="none" xmlns="http://www.w3.org/2000/svg">
<path d="M16.6992 67.1641C16.6992 68.0195 16.5234 68.8223 16.1719 69.5723C15.832 70.3223 15.3691 70.9785 14.7832 71.541C14.209 72.1035 13.5352 72.5488 12.7617 72.877C12 73.1934 11.1914 73.3516 10.3359 73.3516H8.52539C7.66992 73.3516 6.85547 73.1934 6.08203 72.877C5.32031 72.5488 4.64648 72.1035 4.06055 71.541C3.48633 70.9785 3.02344 70.3223 2.67188 69.5723C2.33203 68.8223 2.16211 68.0195 2.16211 67.1641V66.1621L4.42969 65.793V67.1641C4.42969 67.7266 4.54102 68.2539 4.76367 68.7461C4.99805 69.2266 5.30859 69.6543 5.69531 70.0293C6.08203 70.3926 6.52734 70.6797 7.03125 70.8906C7.54688 71.1016 8.08594 71.207 8.64844 71.207H10.2305C10.793 71.207 11.3262 71.1016 11.8301 70.8906C12.334 70.6797 12.7793 70.3926 13.166 70.0293C13.5527 69.6543 13.8574 69.2266 14.0801 68.7461C14.3145 68.2539 14.4316 67.7266 14.4316 67.1641V66.4082C14.4316 65.541 14.2617 64.8203 13.9219 64.2461C13.582 63.6719 13.1309 63.1855 12.5684 62.7871C12.0059 62.377 11.3672 62.0312 10.6523 61.75C9.94922 61.4688 9.22266 61.1875 8.47266 60.9062C7.72266 60.625 6.99023 60.3145 6.27539 59.9746C5.57227 59.6348 4.93945 59.2129 4.37695 58.709C3.81445 58.1934 3.36328 57.5664 3.02344 56.8281C2.68359 56.0898 2.51367 55.1816 2.51367 54.1035V53.6289C2.51367 52.7734 2.67188 51.9707 2.98828 51.2207C3.31641 50.4707 3.76172 49.8145 4.32422 49.252C4.88672 48.6895 5.54297 48.25 6.29297 47.9336C7.05469 47.6055 7.86328 47.4414 8.71875 47.4414H10.3359C11.1914 47.4414 11.9941 47.6055 12.7441 47.9336C13.4941 48.25 14.1504 48.6895 14.7129 49.252C15.2754 49.8145 15.7148 50.4707 16.0312 51.2207C16.3594 51.9707 16.5234 52.7734 16.5234 53.6289V54.2793L14.2559 54.6484V53.6289C14.2559 53.0664 14.1504 52.5449 13.9395 52.0645C13.7285 51.5723 13.4414 51.1445 13.0781 50.7812C12.7148 50.418 12.2871 50.1309 11.7949 49.9199C11.3145 49.709 10.793 49.6035 10.2305 49.6035H8.82422C8.26172 49.6035 7.73438 49.709 7.24219 49.9199C6.76172 50.1309 6.33398 50.418 5.95898 50.7812C5.5957 51.1445 5.30859 51.5723 5.09766 52.0645C4.88672 52.5449 4.78125 53.0664 4.78125 53.6289V54.1035C4.78125 54.9121 4.95117 55.5918 5.29102 56.1426C5.63086 56.6934 6.08203 57.168 6.64453 57.5664C7.20703 57.9531 7.83984 58.293 8.54297 58.5859C9.25781 58.8672 9.99023 59.1602 10.7402 59.4648C11.4902 59.7578 12.2168 60.0859 12.9199 60.4492C13.6348 60.8008 14.2734 61.2402 14.8359 61.7676C15.3984 62.2832 15.8496 62.916 16.1895 63.666C16.5293 64.416 16.6992 65.3301 16.6992 66.4082V67.1641ZM27.7819 73C27.1256 73 26.5045 72.877 25.9186 72.6309C25.3444 72.3848 24.8405 72.0449 24.4069 71.6113C23.985 71.1777 23.6452 70.6738 23.3873 70.0996C23.1413 69.5254 23.0182 68.9102 23.0182 68.2539V57.0566H19.7838V55H23.0182V50.6758L25.1803 50.3242V55H29.7506V57.0566H25.1803V68.3594C25.1803 68.7227 25.2448 69.0625 25.3737 69.3789C25.5143 69.6836 25.7018 69.9531 25.9362 70.1875C26.1705 70.4219 26.4459 70.6094 26.7623 70.75C27.0788 70.8789 27.4186 70.9434 27.7819 70.9434H29.7506V73H27.7819ZM45.4036 73L44.2083 71.1719C43.7161 71.8398 43.1009 72.373 42.3626 72.7715C41.6243 73.1582 40.8157 73.3516 39.9368 73.3516H39.3919C38.6653 73.3516 37.9798 73.2168 37.3352 72.9473C36.6907 72.666 36.1282 72.2852 35.6477 71.8047C35.1673 71.3242 34.7864 70.7617 34.5052 70.1172C34.2356 69.4727 34.1009 68.7871 34.1009 68.0605V55H36.263V68.1836C36.263 68.6172 36.345 69.0273 36.5091 69.4141C36.6731 69.7891 36.8958 70.1172 37.177 70.3984C37.4583 70.6797 37.7864 70.9023 38.1614 71.0664C38.5481 71.2305 38.9583 71.3125 39.3919 71.3125H40.8333C41.2669 71.3125 41.6712 71.2305 42.0462 71.0664C42.4329 70.9023 42.7669 70.6797 43.0481 70.3984C43.3294 70.1172 43.552 69.7891 43.7161 69.4141C43.8802 69.0273 43.9622 68.6172 43.9622 68.1836V55H46.1243V73H45.4036ZM62.1113 73L60.9159 71.1719C60.4238 71.8398 59.8085 72.373 59.0702 72.7715C58.332 73.1582 57.5234 73.3516 56.6445 73.3516H56.0995C55.373 73.3516 54.6874 73.2168 54.0429 72.9473C53.3984 72.666 52.8359 72.2852 52.3554 71.8047C51.8749 71.3242 51.4941 70.7617 51.2128 70.1172C50.9433 69.4727 50.8085 68.7871 50.8085 68.0605V59.9395C50.8085 59.2129 50.9433 58.5273 51.2128 57.8828C51.4941 57.2383 51.8749 56.6758 52.3554 56.1953C52.8359 55.7148 53.3984 55.3398 54.0429 55.0703C54.6874 54.7891 55.373 54.6484 56.0995 54.6484H56.6445C57.453 54.6484 58.203 54.8125 58.8945 55.1406C59.5859 55.4688 60.1777 55.9258 60.6698 56.5117V47.793H62.832V73H62.1113ZM60.6698 59.8164C60.6698 59.3828 60.5878 58.9785 60.4238 58.6035C60.2597 58.2168 60.037 57.8828 59.7558 57.6016C59.4745 57.3203 59.1405 57.0977 58.7538 56.9336C58.3788 56.7695 57.9745 56.6875 57.5409 56.6875H56.0995C55.6659 56.6875 55.2558 56.7695 54.8691 56.9336C54.4941 57.0977 54.1659 57.3203 53.8847 57.6016C53.6034 57.8828 53.3808 58.2168 53.2167 58.6035C53.0527 58.9785 52.9706 59.3828 52.9706 59.8164V68.1836C52.9706 68.6172 53.0527 69.0273 53.2167 69.4141C53.3808 69.7891 53.6034 70.1172 53.8847 70.3984C54.1659 70.6797 54.4941 70.9023 54.8691 71.0664C55.2558 71.2305 55.6659 71.3125 56.0995 71.3125H57.5409C57.9745 71.3125 58.3788 71.2305 58.7538 71.0664C59.1405 70.9023 59.4745 70.6797 59.7558 70.3984C60.037 70.1172 60.2597 69.7891 60.4238 69.4141C60.5878 69.0273 60.6698 68.6172 60.6698 68.1836V59.8164ZM68.0611 50.6758V47.793H70.5748V50.6758H68.0611ZM68.2369 73V55H70.399V73H68.2369ZM87.8449 68.0605C87.8449 68.7871 87.7043 69.4727 87.423 70.1172C87.1535 70.7617 86.7785 71.3242 86.298 71.8047C85.8176 72.2852 85.2551 72.666 84.6105 72.9473C83.966 73.2168 83.2805 73.3516 82.5539 73.3516H81.1125C80.3859 73.3516 79.7004 73.2168 79.0559 72.9473C78.4113 72.666 77.8488 72.2852 77.3684 71.8047C76.8879 71.3242 76.507 70.7617 76.2258 70.1172C75.9563 69.4727 75.8215 68.7871 75.8215 68.0605V59.9395C75.8215 59.2129 75.9563 58.5273 76.2258 57.8828C76.507 57.2383 76.8879 56.6758 77.3684 56.1953C77.8488 55.7148 78.4113 55.3398 79.0559 55.0703C79.7004 54.7891 80.3859 54.6484 81.1125 54.6484H82.5539C83.2805 54.6484 83.966 54.7891 84.6105 55.0703C85.2551 55.3398 85.8176 55.7148 86.298 56.1953C86.7785 56.6758 87.1535 57.2383 87.423 57.8828C87.7043 58.5273 87.8449 59.2129 87.8449 59.9395V68.0605ZM85.6828 59.8164C85.6828 59.3828 85.6008 58.9785 85.4367 58.6035C85.2727 58.2168 85.05 57.8828 84.7688 57.6016C84.4875 57.3203 84.1535 57.0977 83.7668 56.9336C83.3918 56.7695 82.9875 56.6875 82.5539 56.6875H81.1125C80.6789 56.6875 80.2688 56.7695 79.882 56.9336C79.507 57.0977 79.1789 57.3203 78.8977 57.6016C78.6164 57.8828 78.3938 58.2168 78.2297 58.6035C78.0656 58.9785 77.9836 59.3828 77.9836 59.8164V68.1836C77.9836 68.6172 78.0656 69.0273 78.2297 69.4141C78.3938 69.7891 78.6164 70.1172 78.8977 70.3984C79.1789 70.6797 79.507 70.9023 79.882 71.0664C80.2688 71.2305 80.6789 71.3125 81.1125 71.3125H82.5539C82.9875 71.3125 83.3918 71.2305 83.7668 71.0664C84.1535 70.9023 84.4875 70.6797 84.7688 70.3984C85.05 70.1172 85.2727 69.7891 85.4367 69.4141C85.6008 69.0273 85.6828 68.6172 85.6828 68.1836V59.8164ZM104.904 68.4297C104.904 69.1562 104.758 69.8242 104.465 70.4336C104.172 71.0312 103.773 71.5469 103.269 71.9805C102.765 72.4141 102.18 72.7539 101.512 73C100.855 73.2344 100.164 73.3516 99.4373 73.3516H97.9959C97.2694 73.3516 96.5721 73.2168 95.9041 72.9473C95.2479 72.666 94.6678 72.2852 94.1639 71.8047C93.6717 71.3242 93.2733 70.7617 92.9686 70.1172C92.6756 69.4727 92.5291 68.7871 92.5291 68.0605V67.3398L94.6913 66.9883V68.1836C94.6913 68.6172 94.7791 69.0273 94.9549 69.4141C95.1424 69.7891 95.3885 70.1172 95.6932 70.3984C95.9979 70.6797 96.3495 70.9023 96.7479 71.0664C97.1463 71.2305 97.5623 71.3125 97.9959 71.3125H99.4373C99.8709 71.3125 100.287 71.248 100.685 71.1191C101.084 70.9902 101.435 70.8086 101.74 70.5742C102.056 70.3281 102.303 70.0352 102.478 69.6953C102.666 69.3555 102.76 68.9688 102.76 68.5352C102.76 67.8906 102.619 67.3633 102.338 66.9531C102.056 66.543 101.681 66.2031 101.213 65.9336C100.756 65.6523 100.228 65.4238 99.6307 65.248C99.0448 65.0605 98.4413 64.8789 97.8202 64.7031C97.1991 64.5156 96.5897 64.3047 95.992 64.0703C95.4061 63.8359 94.8788 63.5312 94.41 63.1562C93.953 62.7695 93.5838 62.2891 93.3026 61.7148C93.0213 61.1406 92.8807 60.4258 92.8807 59.5703C92.8807 58.8438 93.0213 58.1816 93.3026 57.584C93.5838 56.9746 93.9647 56.4531 94.4452 56.0195C94.9256 55.5859 95.4823 55.252 96.1151 55.0176C96.7596 54.7715 97.4452 54.6484 98.1717 54.6484H99.4373C100.164 54.6484 100.849 54.7891 101.494 55.0703C102.139 55.3398 102.701 55.7148 103.181 56.1953C103.662 56.6758 104.037 57.2383 104.306 57.8828C104.588 58.5273 104.728 59.2129 104.728 59.9395V60.0098L102.566 60.3613V59.8164C102.566 59.3828 102.484 58.9785 102.32 58.6035C102.156 58.2168 101.933 57.8828 101.652 57.6016C101.371 57.3203 101.037 57.0977 100.65 56.9336C100.275 56.7695 99.8709 56.6875 99.4373 56.6875H98.1717C97.7381 56.6875 97.328 56.752 96.9413 56.8809C96.5663 57.0098 96.2381 57.1973 95.9569 57.4434C95.6756 57.6777 95.453 57.9648 95.2889 58.3047C95.1248 58.6445 95.0428 59.0312 95.0428 59.4648C95.0428 60.0859 95.1834 60.5957 95.4647 60.9941C95.7459 61.3809 96.1151 61.709 96.5721 61.9785C97.0409 62.248 97.5682 62.4766 98.1541 62.6641C98.7518 62.8398 99.3553 63.0273 99.9647 63.2266C100.586 63.4141 101.189 63.6309 101.775 63.877C102.373 64.123 102.9 64.4395 103.357 64.8262C103.826 65.2129 104.201 65.6992 104.482 66.2852C104.764 66.8594 104.904 67.5742 104.904 68.4297Z" fill="white"/>
<path d="M19.446 40H2.73V17.614C2.73 15.542 3.388 13.876 4.704 12.616C5.6 11.776 6.608 11.23 7.728 10.978C8.848 10.726 10.22 10.6 11.844 10.6H19.446V14.296H11.298C8.218 14.296 6.678 15.584 6.678 18.16V22.948H16.38V26.644H6.678V36.304H19.446V40ZM24.0581 19.84H31.3241C34.4321 19.84 36.6581 20.302 38.0021 21.226C39.2061 22.038 39.9621 23.018 40.2701 24.166C40.6061 25.286 40.7741 26.77 40.7741 28.618V40H37.0781V28.66C37.0781 28.156 37.0641 27.736 37.0361 27.4C37.0081 27.036 36.9101 26.588 36.7421 26.056C36.5741 25.496 36.3361 25.048 36.0281 24.712C35.7201 24.348 35.2721 24.04 34.6841 23.788C34.0961 23.508 33.3821 23.368 32.5421 23.368H27.7541V40H24.0581V19.84ZM46.0425 19.84H53.3085C56.4165 19.84 58.6425 20.302 59.9865 21.226C61.1905 22.038 61.9465 23.018 62.2545 24.166C62.5905 25.286 62.7585 26.77 62.7585 28.618V40H59.0625V28.66C59.0625 28.156 59.0485 27.736 59.0205 27.4C58.9925 27.036 58.8945 26.588 58.7265 26.056C58.5585 25.496 58.3205 25.048 58.0125 24.712C57.7045 24.348 57.2565 24.04 56.6685 23.788C56.0805 23.508 55.3665 23.368 54.5265 23.368H49.7385V40H46.0425V19.84ZM77.6869 19.42C82.4469 19.616 84.8269 21.59 84.8269 25.342C84.8269 30.018 81.7609 32.356 75.6289 32.356H73.9069V29.122H75.9229C77.7989 29.122 79.1009 28.842 79.8289 28.282C80.5569 27.694 80.9209 26.728 80.9209 25.384C80.9209 24.516 80.5989 23.872 79.9549 23.452C79.3109 23.004 78.4849 22.78 77.4769 22.78C75.4889 22.78 73.9209 23.48 72.7729 24.88C71.6529 26.28 71.0929 27.96 71.0929 29.92C71.0929 31.992 71.6949 33.672 72.8989 34.96C74.1309 36.248 75.7269 36.892 77.6869 36.892C79.4509 36.892 80.8929 36.458 82.0129 35.59L84.5329 38.068C82.6009 39.636 80.3189 40.42 77.6869 40.42C74.4949 40.42 71.9469 39.482 70.0429 37.606C68.1389 35.73 67.1869 33.308 67.1869 30.34C67.1869 27.036 68.1249 24.362 70.0009 22.318C71.8769 20.274 74.4389 19.308 77.6869 19.42ZM100.236 28.156V31.936C99.172 31.124 97.87 30.718 96.33 30.718C95.014 30.718 93.992 30.984 93.264 31.516C92.536 32.02 92.172 32.748 92.172 33.7C92.172 35.548 93.544 36.472 96.288 36.472H101.832V28.45C101.832 25.062 100.18 23.368 96.876 23.368H90.156V19.84H97.086C99.802 19.84 101.888 20.512 103.344 21.856C104.8 23.2 105.528 25.132 105.528 27.652V40H96.162C93.782 40 91.892 39.468 90.492 38.404C89.092 37.34 88.392 35.786 88.392 33.742C88.392 31.698 89.134 30.144 90.618 29.08C92.102 28.016 93.964 27.484 96.204 27.484C97.464 27.484 98.808 27.708 100.236 28.156ZM119.511 40C116.767 40 114.415 39.076 112.455 37.228C110.495 35.38 109.515 33.014 109.515 30.13C109.515 27.218 110.495 24.782 112.455 22.822C114.443 20.834 116.893 19.84 119.805 19.84H129.675V39.412C129.675 40.672 129.507 41.806 129.171 42.814C128.863 43.822 128.415 44.676 127.827 45.376C127.239 46.076 126.707 46.622 126.231 47.014C125.755 47.406 125.181 47.812 124.509 48.232C122.773 49.128 120.659 49.576 118.167 49.576H113.463V46.048H117.789C120.253 46.048 122.003 45.74 123.039 45.124C124.943 44.06 125.895 42.296 125.895 39.832V23.368H119.805C117.817 23.368 116.235 23.984 115.059 25.216C113.883 26.448 113.295 28.086 113.295 30.13C113.295 32.09 113.897 33.644 115.101 34.792C116.333 35.912 117.803 36.472 119.511 36.472C121.359 36.472 122.983 35.968 124.383 34.96V38.74C122.871 39.58 121.247 40 119.511 40ZM137.228 22.486C139.188 20.442 141.638 19.42 144.578 19.42C146.006 19.42 147.336 19.7 148.568 20.26C149.828 20.792 150.92 21.534 151.844 22.486C152.796 23.438 153.538 24.558 154.07 25.846C154.602 27.106 154.868 28.464 154.868 29.92C154.868 31.376 154.602 32.748 154.07 34.036C153.566 35.296 152.852 36.402 151.928 37.354C151.004 38.306 149.912 39.062 148.652 39.622C147.392 40.154 146.034 40.42 144.578 40.42C143.094 40.42 141.722 40.154 140.462 39.622C139.23 39.062 138.152 38.306 137.228 37.354C136.304 36.402 135.576 35.296 135.044 34.036C134.54 32.748 134.288 31.376 134.288 29.92C134.288 26.952 135.268 24.474 137.228 22.486ZM144.578 22.948C142.618 22.948 141.036 23.592 139.832 24.88C138.656 26.168 138.068 27.848 138.068 29.92C138.068 31.992 138.656 33.672 139.832 34.96C141.036 36.248 142.618 36.892 144.578 36.892C146.566 36.892 148.148 36.248 149.324 34.96C150.5 33.644 151.088 31.964 151.088 29.92C151.088 27.876 150.5 26.21 149.324 24.922C148.148 23.606 146.566 22.948 144.578 22.948ZM159.492 19.84H166.758C169.866 19.84 172.092 20.302 173.436 21.226C174.64 22.038 175.396 23.018 175.704 24.166C176.04 25.286 176.208 26.77 176.208 28.618V40H172.512V28.66C172.512 28.156 172.498 27.736 172.47 27.4C172.442 27.036 172.344 26.588 172.176 26.056C172.008 25.496 171.77 25.048 171.462 24.712C171.154 24.348 170.706 24.04 170.118 23.788C169.53 23.508 168.816 23.368 167.976 23.368H163.188V40H159.492V19.84Z" fill="white"/>
</svg>
