<svg width="364" height="75" viewBox="0 0 364 75" fill="none" xmlns="http://www.w3.org/2000/svg">
<path d="M14.0586 69H13.3203L10.499 59.0859C10.2588 58.2656 10.083 57.5977 9.97168 57.082C9.86621 57.6387 9.74023 58.1982 9.59375 58.7607C9.44727 59.3174 8.49512 62.7305 6.7373 69H5.98145L2.44824 56.1504H3.38867L5.63867 64.4297C6.04883 65.9941 6.30078 67.043 6.39453 67.5762C6.53516 66.791 6.83398 65.5811 7.29102 63.9463L9.48828 56.1504H10.4814L13.0566 65.0977C13.3438 66.082 13.5576 66.9141 13.6982 67.5938C13.7744 67.1719 13.8711 66.7236 13.9883 66.249C14.1113 65.7744 15.0166 62.4082 16.7041 56.1504H17.6094L14.0586 69ZM23.5244 69.1758C22.1416 69.1758 21.0576 68.748 20.2725 67.8926C19.499 67.0371 19.1123 65.8447 19.1123 64.3154C19.1123 62.7861 19.4844 61.5615 20.2285 60.6416C20.9785 59.7217 21.9922 59.2617 23.2695 59.2617C24.3945 59.2617 25.2822 59.6572 25.9326 60.4482C26.583 61.2334 26.9082 62.2969 26.9082 63.6387V64.3418H20.0264C20.0381 65.6543 20.3428 66.6562 20.9404 67.3477C21.5439 68.0391 22.4053 68.3848 23.5244 68.3848C24.0811 68.3848 24.5703 68.3438 24.9922 68.2617C25.4141 68.1797 25.9268 68.0186 26.5303 67.7783V68.5693C25.9971 68.8037 25.499 68.9619 25.0361 69.0439C24.5791 69.1318 24.0752 69.1758 23.5244 69.1758ZM25.9854 63.5684C25.9854 62.4609 25.7422 61.5967 25.2559 60.9756C24.7695 60.3486 24.084 60.0352 23.1992 60.0352C22.3203 60.0352 21.6025 60.3398 21.0459 60.9492C20.4951 61.5586 20.1729 62.4316 20.0791 63.5684H25.9854ZM30.415 55.3242V58.7607C30.415 59.3291 30.4033 59.8037 30.3799 60.1846L30.3535 60.9316H30.415C30.7783 60.3574 31.2148 59.9355 31.7246 59.666C32.2402 59.3965 32.8584 59.2617 33.5791 59.2617C34.9092 59.2617 35.9141 59.6807 36.5938 60.5186C37.2734 61.3564 37.6133 62.5781 37.6133 64.1836C37.6133 65.7891 37.2529 67.0225 36.5322 67.8838C35.8291 68.7451 34.833 69.1758 33.5439 69.1758C32.8643 69.1758 32.252 69.0352 31.707 68.7539C31.1621 68.4727 30.7314 68.0742 30.415 67.5586H30.3359L30.0898 69H29.5449V55.3242H30.415ZM30.415 64.21V64.3594C30.415 65.8008 30.667 66.835 31.1709 67.4619C31.6807 68.0889 32.46 68.4023 33.5088 68.4023C34.5635 68.4023 35.3545 68.042 35.8818 67.3213C36.415 66.5947 36.6816 65.5518 36.6816 64.1924C36.6816 61.4326 35.6416 60.0527 33.5615 60.0527C32.4424 60.0527 31.6367 60.375 31.1445 61.0195C30.6582 61.6641 30.415 62.7275 30.415 64.21ZM52.1855 56.9766H46.0596V61.8369H51.8428V62.6631H46.0596V68.1826H52.1855V69H45.1631V56.1504H52.1855V56.9766ZM59.1465 59.2617C61.3145 59.2617 62.3984 60.4248 62.3984 62.751V69H61.5371V62.8037C61.5371 61.8486 61.335 61.1514 60.9307 60.7119C60.5322 60.2725 59.9053 60.0527 59.0498 60.0527C57.9189 60.0527 57.084 60.3398 56.5449 60.9141C56.0117 61.4883 55.7451 62.4258 55.7451 63.7266V69H54.875V59.4463H55.6133L55.7803 60.7559H55.833C56.46 59.7598 57.5645 59.2617 59.1465 59.2617ZM67.9092 67.6816H69.5791C70.6221 67.6816 71.416 67.8926 71.9609 68.3145C72.5117 68.7305 72.7871 69.3486 72.7871 70.1689C72.7871 71.1768 72.377 71.9531 71.5566 72.498C70.7422 73.0488 69.5791 73.3242 68.0674 73.3242C66.8721 73.3242 65.9434 73.0928 65.2812 72.6299C64.6191 72.167 64.2881 71.5225 64.2881 70.6963C64.2881 70.0518 64.4873 69.5098 64.8857 69.0703C65.29 68.6367 65.8467 68.3408 66.5557 68.1826C66.2627 68.0537 66.0312 67.875 65.8613 67.6465C65.6914 67.418 65.6064 67.1602 65.6064 66.873C65.6064 66.2285 66.0137 65.666 66.8281 65.1855C66.2715 64.957 65.8379 64.5996 65.5273 64.1133C65.2168 63.6211 65.0615 63.0586 65.0615 62.4258C65.0615 61.4648 65.3633 60.6973 65.9668 60.123C66.5762 59.5488 67.3965 59.2617 68.4277 59.2617C69.0605 59.2617 69.5469 59.3232 69.8867 59.4463H72.9453V60.0527L70.9678 60.1758C71.4951 60.832 71.7588 61.5527 71.7588 62.3379C71.7588 63.2637 71.4541 64.0107 70.8447 64.5791C70.2354 65.1475 69.4121 65.4316 68.375 65.4316C67.9414 65.4316 67.6367 65.4141 67.4609 65.3789C66.752 65.748 66.3975 66.2227 66.3975 66.8027C66.3975 67.1074 66.5146 67.3301 66.749 67.4707C66.9834 67.6113 67.3701 67.6816 67.9092 67.6816ZM70.8799 62.3643C70.8799 61.5791 70.6631 60.9814 70.2295 60.5713C69.8018 60.1553 69.1982 59.9473 68.4189 59.9473C67.6396 59.9473 67.0303 60.167 66.5908 60.6064C66.1572 61.0459 65.9404 61.6436 65.9404 62.3994C65.9404 63.1553 66.1631 63.7383 66.6084 64.1484C67.0596 64.5527 67.6719 64.7549 68.4453 64.7549C69.2188 64.7549 69.8164 64.5527 70.2383 64.1484C70.666 63.7441 70.8799 63.1494 70.8799 62.3643ZM69.4033 68.5518H67.8389C66.0869 68.5518 65.2109 69.2402 65.2109 70.6172C65.2109 71.9297 66.1865 72.5859 68.1377 72.5859C70.6455 72.5859 71.8994 71.7861 71.8994 70.1865C71.8994 69.6123 71.7031 69.1963 71.3105 68.9385C70.918 68.6807 70.2822 68.5518 69.4033 68.5518ZM75.3447 55.9482C75.5264 55.9482 75.667 56.0215 75.7666 56.168C75.8721 56.3145 75.9248 56.5225 75.9248 56.792C75.9248 57.0557 75.8721 57.2637 75.7666 57.416C75.667 57.5684 75.5264 57.6445 75.3447 57.6445C74.9756 57.6445 74.791 57.3633 74.791 56.8008C74.791 56.2324 74.9756 55.9482 75.3447 55.9482ZM75.7842 69H74.9141V59.4463H75.7842V69ZM83.2637 59.2617C85.4316 59.2617 86.5156 60.4248 86.5156 62.751V69H85.6543V62.8037C85.6543 61.8486 85.4521 61.1514 85.0479 60.7119C84.6494 60.2725 84.0225 60.0527 83.167 60.0527C82.0361 60.0527 81.2012 60.3398 80.6621 60.9141C80.1289 61.4883 79.8623 62.4258 79.8623 63.7266V69H78.9922V59.4463H79.7305L79.8975 60.7559H79.9502C80.5771 59.7598 81.6816 59.2617 83.2637 59.2617ZM93.4678 69.1758C92.085 69.1758 91.001 68.748 90.2158 67.8926C89.4424 67.0371 89.0557 65.8447 89.0557 64.3154C89.0557 62.7861 89.4277 61.5615 90.1719 60.6416C90.9219 59.7217 91.9355 59.2617 93.2129 59.2617C94.3379 59.2617 95.2256 59.6572 95.876 60.4482C96.5264 61.2334 96.8516 62.2969 96.8516 63.6387V64.3418H89.9697C89.9814 65.6543 90.2861 66.6562 90.8838 67.3477C91.4873 68.0391 92.3486 68.3848 93.4678 68.3848C94.0244 68.3848 94.5137 68.3438 94.9355 68.2617C95.3574 68.1797 95.8701 68.0186 96.4736 67.7783V68.5693C95.9404 68.8037 95.4424 68.9619 94.9795 69.0439C94.5225 69.1318 94.0186 69.1758 93.4678 69.1758ZM95.9287 63.5684C95.9287 62.4609 95.6855 61.5967 95.1992 60.9756C94.7129 60.3486 94.0273 60.0352 93.1426 60.0352C92.2637 60.0352 91.5459 60.3398 90.9893 60.9492C90.4385 61.5586 90.1162 62.4316 90.0225 63.5684H95.9287ZM103.347 69.1758C101.964 69.1758 100.88 68.748 100.095 67.8926C99.3213 67.0371 98.9346 65.8447 98.9346 64.3154C98.9346 62.7861 99.3066 61.5615 100.051 60.6416C100.801 59.7217 101.814 59.2617 103.092 59.2617C104.217 59.2617 105.104 59.6572 105.755 60.4482C106.405 61.2334 106.73 62.2969 106.73 63.6387V64.3418H99.8486C99.8604 65.6543 100.165 66.6562 100.763 67.3477C101.366 68.0391 102.228 68.3848 103.347 68.3848C103.903 68.3848 104.393 68.3438 104.814 68.2617C105.236 68.1797 105.749 68.0186 106.353 67.7783V68.5693C105.819 68.8037 105.321 68.9619 104.858 69.0439C104.401 69.1318 103.897 69.1758 103.347 69.1758ZM105.808 63.5684C105.808 62.4609 105.564 61.5967 105.078 60.9756C104.592 60.3486 103.906 60.0352 103.021 60.0352C102.143 60.0352 101.425 60.3398 100.868 60.9492C100.317 61.5586 99.9951 62.4316 99.9014 63.5684H105.808ZM113.129 59.2617C113.516 59.2617 113.949 59.3027 114.43 59.3848L114.263 60.2285C113.87 60.123 113.457 60.0703 113.023 60.0703C112.209 60.0703 111.541 60.4189 111.02 61.1162C110.498 61.8076 110.237 62.6777 110.237 63.7266V69H109.367V59.4463H110.105L110.193 61.1689H110.255C110.659 60.4541 111.078 59.9619 111.512 59.6924C111.957 59.4053 112.496 59.2617 113.129 59.2617ZM116.812 55.9482C116.993 55.9482 117.134 56.0215 117.233 56.168C117.339 56.3145 117.392 56.5225 117.392 56.792C117.392 57.0557 117.339 57.2637 117.233 57.416C117.134 57.5684 116.993 57.6445 116.812 57.6445C116.442 57.6445 116.258 57.3633 116.258 56.8008C116.258 56.2324 116.442 55.9482 116.812 55.9482ZM117.251 69H116.381V59.4463H117.251V69ZM124.73 59.2617C126.898 59.2617 127.982 60.4248 127.982 62.751V69H127.121V62.8037C127.121 61.8486 126.919 61.1514 126.515 60.7119C126.116 60.2725 125.489 60.0527 124.634 60.0527C123.503 60.0527 122.668 60.3398 122.129 60.9141C121.596 61.4883 121.329 62.4258 121.329 63.7266V69H120.459V59.4463H121.197L121.364 60.7559H121.417C122.044 59.7598 123.148 59.2617 124.73 59.2617ZM133.493 67.6816H135.163C136.206 67.6816 137 67.8926 137.545 68.3145C138.096 68.7305 138.371 69.3486 138.371 70.1689C138.371 71.1768 137.961 71.9531 137.141 72.498C136.326 73.0488 135.163 73.3242 133.651 73.3242C132.456 73.3242 131.527 73.0928 130.865 72.6299C130.203 72.167 129.872 71.5225 129.872 70.6963C129.872 70.0518 130.071 69.5098 130.47 69.0703C130.874 68.6367 131.431 68.3408 132.14 68.1826C131.847 68.0537 131.615 67.875 131.445 67.6465C131.275 67.418 131.19 67.1602 131.19 66.873C131.19 66.2285 131.598 65.666 132.412 65.1855C131.855 64.957 131.422 64.5996 131.111 64.1133C130.801 63.6211 130.646 63.0586 130.646 62.4258C130.646 61.4648 130.947 60.6973 131.551 60.123C132.16 59.5488 132.98 59.2617 134.012 59.2617C134.645 59.2617 135.131 59.3232 135.471 59.4463H138.529V60.0527L136.552 60.1758C137.079 60.832 137.343 61.5527 137.343 62.3379C137.343 63.2637 137.038 64.0107 136.429 64.5791C135.819 65.1475 134.996 65.4316 133.959 65.4316C133.525 65.4316 133.221 65.4141 133.045 65.3789C132.336 65.748 131.981 66.2227 131.981 66.8027C131.981 67.1074 132.099 67.3301 132.333 67.4707C132.567 67.6113 132.954 67.6816 133.493 67.6816ZM136.464 62.3643C136.464 61.5791 136.247 60.9814 135.813 60.5713C135.386 60.1553 134.782 59.9473 134.003 59.9473C133.224 59.9473 132.614 60.167 132.175 60.6064C131.741 61.0459 131.524 61.6436 131.524 62.3994C131.524 63.1553 131.747 63.7383 132.192 64.1484C132.644 64.5527 133.256 64.7549 134.029 64.7549C134.803 64.7549 135.4 64.5527 135.822 64.1484C136.25 63.7441 136.464 63.1494 136.464 62.3643ZM134.987 68.5518H133.423C131.671 68.5518 130.795 69.2402 130.795 70.6172C130.795 71.9297 131.771 72.5859 133.722 72.5859C136.229 72.5859 137.483 71.7861 137.483 70.1865C137.483 69.6123 137.287 69.1963 136.895 68.9385C136.502 68.6807 135.866 68.5518 134.987 68.5518ZM141.491 66.9082L141.597 67.0928C141.157 68.6396 140.647 70.0488 140.067 71.3203H139.496C139.947 69.6973 140.27 68.2266 140.463 66.9082H141.491ZM154.385 69.1758C152.58 69.1758 151.159 68.5928 150.122 67.4268C149.085 66.2549 148.566 64.626 148.566 62.54C148.566 62.499 148.566 62.4551 148.566 62.4082C148.566 61.1719 148.812 60.0615 149.305 59.0771C149.803 58.0869 150.512 57.3223 151.432 56.7832C152.357 56.2383 153.403 55.9658 154.569 55.9658C154.61 55.9658 154.648 55.9658 154.684 55.9658C155.926 55.9658 157.048 56.2002 158.05 56.6689L157.689 57.4775C156.74 57.0088 155.756 56.7744 154.736 56.7744C153.125 56.7744 151.856 57.29 150.931 58.3213C150.005 59.3525 149.542 60.7764 149.542 62.5928C149.542 64.4033 149.979 65.8154 150.852 66.8291C151.725 67.8428 152.973 68.3496 154.596 68.3496C155.662 68.3496 156.652 68.2119 157.566 67.9365V68.7275C156.717 69.0264 155.656 69.1758 154.385 69.1758ZM159.658 64.21C159.658 62.6572 160.036 61.4443 160.792 60.5713C161.548 59.6982 162.582 59.2617 163.895 59.2617C165.213 59.2617 166.244 59.7041 166.988 60.5889C167.738 61.4736 168.113 62.6895 168.113 64.2363C168.113 65.7773 167.735 66.9873 166.979 67.8662C166.224 68.7393 165.181 69.1758 163.851 69.1758C163.821 69.1758 163.789 69.1758 163.754 69.1758C162.541 69.1758 161.554 68.7275 160.792 67.8311C160.036 66.9346 159.658 65.7715 159.658 64.3418C159.658 64.2949 159.658 64.251 159.658 64.21ZM163.886 68.3848C164.94 68.3848 165.755 68.0186 166.329 67.2861C166.903 66.5537 167.19 65.5283 167.19 64.21C167.19 62.8857 166.897 61.8633 166.312 61.1426C165.731 60.416 164.914 60.0527 163.859 60.0527C162.811 60.0527 161.999 60.416 161.425 61.1426C160.856 61.8633 160.572 62.8828 160.572 64.2012C160.572 65.5137 160.859 66.542 161.434 67.2861C162.014 68.0186 162.831 68.3848 163.886 68.3848ZM175.039 59.2617C177.207 59.2617 178.291 60.4248 178.291 62.751V69H177.43V62.8037C177.43 61.8486 177.228 61.1514 176.823 60.7119C176.425 60.2725 175.798 60.0527 174.942 60.0527C173.812 60.0527 172.977 60.3398 172.438 60.9141C171.904 61.4883 171.638 62.4258 171.638 63.7266V69H170.768V59.4463H171.506L171.673 60.7559H171.726C172.353 59.7598 173.457 59.2617 175.039 59.2617ZM180.523 67.6465C181.461 68.127 182.434 68.3672 183.441 68.3672C184.449 68.3672 185.202 68.2148 185.7 67.9102C186.198 67.5996 186.447 67.1895 186.447 66.6797C186.447 66.1699 186.251 65.7539 185.858 65.4316C185.466 65.1035 184.812 64.7783 183.898 64.4561C182.984 64.1279 182.328 63.835 181.93 63.5771C181.531 63.3193 181.235 63.0322 181.042 62.7158C180.854 62.3994 180.761 62.0215 180.761 61.582C180.761 60.873 181.06 60.3076 181.657 59.8857C182.267 59.4697 183.096 59.2617 184.145 59.2617C185.199 59.2617 186.189 59.4551 187.115 59.8418L186.79 60.6328C185.829 60.2461 184.959 60.0527 184.18 60.0527C183.4 60.0527 182.782 60.1816 182.325 60.4395C181.868 60.6973 181.64 61.0664 181.64 61.5469C181.64 62.0215 181.815 62.4082 182.167 62.707C182.524 63.0059 183.175 63.3252 184.118 63.665C185.062 63.999 185.732 64.2949 186.131 64.5527C186.916 65.0449 187.309 65.71 187.309 66.5479C187.309 67.3799 186.983 68.0273 186.333 68.4902C185.683 68.9473 184.736 69.1758 183.494 69.1758C182.258 69.1758 181.268 68.9795 180.523 68.5869V67.6465ZM197.188 69H196.449L196.291 67.6816H196.238C195.611 68.6777 194.507 69.1758 192.925 69.1758C190.751 69.1758 189.664 68.0127 189.664 65.6865V59.4463H190.525V65.6338C190.525 66.5889 190.725 67.2861 191.123 67.7256C191.527 68.165 192.157 68.3848 193.013 68.3848C194.144 68.3848 194.979 68.0977 195.518 67.5234C196.057 66.9492 196.326 66.0146 196.326 64.7197V59.4463H197.188V69ZM201.257 69H200.387V55.3242H201.257V69ZM205.388 59.4463H208.191V60.2021H205.388V66.249C205.388 66.9814 205.517 67.5234 205.774 67.875C206.032 68.2266 206.439 68.4023 206.996 68.4023C207.553 68.4023 208.03 68.3555 208.429 68.2617V68.9648C208.007 69.1055 207.521 69.1758 206.97 69.1758C206.126 69.1758 205.502 68.9502 205.098 68.499C204.699 68.0479 204.5 67.3389 204.5 66.3721V60.2021H203.085V59.6924L204.5 59.2969L204.939 57.1348H205.388V59.4463ZM210.925 55.9482C211.106 55.9482 211.247 56.0215 211.347 56.168C211.452 56.3145 211.505 56.5225 211.505 56.792C211.505 57.0557 211.452 57.2637 211.347 57.416C211.247 57.5684 211.106 57.6445 210.925 57.6445C210.556 57.6445 210.371 57.3633 210.371 56.8008C210.371 56.2324 210.556 55.9482 210.925 55.9482ZM211.364 69H210.494V59.4463H211.364V69ZM218.844 59.2617C221.012 59.2617 222.096 60.4248 222.096 62.751V69H221.234V62.8037C221.234 61.8486 221.032 61.1514 220.628 60.7119C220.229 60.2725 219.603 60.0527 218.747 60.0527C217.616 60.0527 216.781 60.3398 216.242 60.9141C215.709 61.4883 215.442 62.4258 215.442 63.7266V69H214.572V59.4463H215.311L215.478 60.7559H215.53C216.157 59.7598 217.262 59.2617 218.844 59.2617ZM227.606 67.6816H229.276C230.319 67.6816 231.113 67.8926 231.658 68.3145C232.209 68.7305 232.484 69.3486 232.484 70.1689C232.484 71.1768 232.074 71.9531 231.254 72.498C230.439 73.0488 229.276 73.3242 227.765 73.3242C226.569 73.3242 225.641 73.0928 224.979 72.6299C224.316 72.167 223.985 71.5225 223.985 70.6963C223.985 70.0518 224.185 69.5098 224.583 69.0703C224.987 68.6367 225.544 68.3408 226.253 68.1826C225.96 68.0537 225.729 67.875 225.559 67.6465C225.389 67.418 225.304 67.1602 225.304 66.873C225.304 66.2285 225.711 65.666 226.525 65.1855C225.969 64.957 225.535 64.5996 225.225 64.1133C224.914 63.6211 224.759 63.0586 224.759 62.4258C224.759 61.4648 225.061 60.6973 225.664 60.123C226.273 59.5488 227.094 59.2617 228.125 59.2617C228.758 59.2617 229.244 59.3232 229.584 59.4463H232.643V60.0527L230.665 60.1758C231.192 60.832 231.456 61.5527 231.456 62.3379C231.456 63.2637 231.151 64.0107 230.542 64.5791C229.933 65.1475 229.109 65.4316 228.072 65.4316C227.639 65.4316 227.334 65.4141 227.158 65.3789C226.449 65.748 226.095 66.2227 226.095 66.8027C226.095 67.1074 226.212 67.3301 226.446 67.4707C226.681 67.6113 227.067 67.6816 227.606 67.6816ZM230.577 62.3643C230.577 61.5791 230.36 60.9814 229.927 60.5713C229.499 60.1553 228.896 59.9473 228.116 59.9473C227.337 59.9473 226.728 60.167 226.288 60.6064C225.854 61.0459 225.638 61.6436 225.638 62.3994C225.638 63.1553 225.86 63.7383 226.306 64.1484C226.757 64.5527 227.369 64.7549 228.143 64.7549C228.916 64.7549 229.514 64.5527 229.936 64.1484C230.363 63.7441 230.577 63.1494 230.577 62.3643ZM229.101 68.5518H227.536C225.784 68.5518 224.908 69.2402 224.908 70.6172C224.908 71.9297 225.884 72.5859 227.835 72.5859C230.343 72.5859 231.597 71.7861 231.597 70.1865C231.597 69.6123 231.4 69.1963 231.008 68.9385C230.615 68.6807 229.979 68.5518 229.101 68.5518ZM241.168 61.1514C240.406 60.3369 240.025 59.5137 240.025 58.6816C240.025 57.8438 240.304 57.1787 240.86 56.6865C241.423 56.1943 242.167 55.9482 243.093 55.9482C244.019 55.9482 244.745 56.1855 245.272 56.6602C245.806 57.1348 246.072 57.791 246.072 58.6289C246.072 59.2441 245.867 59.8125 245.457 60.334C245.029 60.8496 244.288 61.415 243.233 62.0303L247.206 66.0469C247.903 65.2207 248.428 64.1719 248.779 62.9004H249.623C249.254 64.3359 248.642 65.584 247.786 66.6445L250.124 69H248.938L247.241 67.2686C246.702 67.8018 246.222 68.1885 245.8 68.4287C244.944 68.9268 243.907 69.1758 242.688 69.1758C241.47 69.1758 240.512 68.874 239.814 68.2705C239.117 67.6611 238.769 66.8174 238.769 65.7393C238.769 64.9307 238.982 64.2451 239.41 63.6826C239.838 63.1143 240.644 62.5107 241.827 61.8721L241.168 61.1514ZM245.141 58.6025C245.141 58.0518 244.959 57.6035 244.596 57.2578C244.232 56.9121 243.729 56.7393 243.084 56.7393C242.439 56.7393 241.924 56.9092 241.537 57.249C241.156 57.5889 240.966 58.0605 240.966 58.6641C240.966 59.127 241.083 59.5576 241.317 59.9561C241.552 60.3486 241.997 60.8555 242.653 61.4766C243.591 60.9727 244.238 60.5068 244.596 60.0791C244.959 59.6455 245.141 59.1533 245.141 58.6025ZM240.693 63.5332C240.02 64.0957 239.683 64.8076 239.683 65.6689C239.683 66.5303 239.952 67.1982 240.491 67.6729C241.03 68.1475 241.789 68.3848 242.768 68.3848C243.523 68.3848 244.209 68.2588 244.824 68.0068C245.445 67.7549 246.061 67.3242 246.67 66.7148L242.425 62.4521C241.64 62.8682 241.062 63.2285 240.693 63.5332ZM257.015 56.1504H260.486C262.537 56.1504 264.096 56.6865 265.162 57.7588C266.234 58.8311 266.771 60.4219 266.771 62.5312C266.771 64.6348 266.205 66.2402 265.074 67.3477C263.949 68.4492 262.288 69 260.091 69H257.015V56.1504ZM257.911 56.9414V68.209H260.038C263.876 68.209 265.795 66.3018 265.795 62.4873C265.795 60.6533 265.326 59.2705 264.389 58.3389C263.457 57.4072 262.086 56.9414 260.275 56.9414H257.911ZM273.362 69.1758C271.979 69.1758 270.896 68.748 270.11 67.8926C269.337 67.0371 268.95 65.8447 268.95 64.3154C268.95 62.7861 269.322 61.5615 270.066 60.6416C270.816 59.7217 271.83 59.2617 273.107 59.2617C274.232 59.2617 275.12 59.6572 275.771 60.4482C276.421 61.2334 276.746 62.2969 276.746 63.6387V64.3418H269.864C269.876 65.6543 270.181 66.6562 270.778 67.3477C271.382 68.0391 272.243 68.3848 273.362 68.3848C273.919 68.3848 274.408 68.3438 274.83 68.2617C275.252 68.1797 275.765 68.0186 276.368 67.7783V68.5693C275.835 68.8037 275.337 68.9619 274.874 69.0439C274.417 69.1318 273.913 69.1758 273.362 69.1758ZM275.823 63.5684C275.823 62.4609 275.58 61.5967 275.094 60.9756C274.607 60.3486 273.922 60.0352 273.037 60.0352C272.158 60.0352 271.44 60.3398 270.884 60.9492C270.333 61.5586 270.011 62.4316 269.917 63.5684H275.823ZM282.354 69H281.475L277.783 59.4463H278.68L281.149 65.9414C281.483 66.7969 281.729 67.5264 281.888 68.1299H281.94C282.169 67.3447 282.415 66.6094 282.679 65.9238L285.148 59.4463H286.045L282.354 69ZM291.503 69.1758C290.12 69.1758 289.036 68.748 288.251 67.8926C287.478 67.0371 287.091 65.8447 287.091 64.3154C287.091 62.7861 287.463 61.5615 288.207 60.6416C288.957 59.7217 289.971 59.2617 291.248 59.2617C292.373 59.2617 293.261 59.6572 293.911 60.4482C294.562 61.2334 294.887 62.2969 294.887 63.6387V64.3418H288.005C288.017 65.6543 288.321 66.6562 288.919 67.3477C289.522 68.0391 290.384 68.3848 291.503 68.3848C292.06 68.3848 292.549 68.3438 292.971 68.2617C293.393 68.1797 293.905 68.0186 294.509 67.7783V68.5693C293.976 68.8037 293.478 68.9619 293.015 69.0439C292.558 69.1318 292.054 69.1758 291.503 69.1758ZM293.964 63.5684C293.964 62.4609 293.721 61.5967 293.234 60.9756C292.748 60.3486 292.062 60.0352 291.178 60.0352C290.299 60.0352 289.581 60.3398 289.024 60.9492C288.474 61.5586 288.151 62.4316 288.058 63.5684H293.964ZM298.394 69H297.523V55.3242H298.394V69ZM301.039 64.21C301.039 62.6572 301.417 61.4443 302.173 60.5713C302.929 59.6982 303.963 59.2617 305.275 59.2617C306.594 59.2617 307.625 59.7041 308.369 60.5889C309.119 61.4736 309.494 62.6895 309.494 64.2363C309.494 65.7773 309.116 66.9873 308.36 67.8662C307.604 68.7393 306.562 69.1758 305.231 69.1758C305.202 69.1758 305.17 69.1758 305.135 69.1758C303.922 69.1758 302.935 68.7275 302.173 67.8311C301.417 66.9346 301.039 65.7715 301.039 64.3418C301.039 64.2949 301.039 64.251 301.039 64.21ZM305.267 68.3848C306.321 68.3848 307.136 68.0186 307.71 67.2861C308.284 66.5537 308.571 65.5283 308.571 64.21C308.571 62.8857 308.278 61.8633 307.692 61.1426C307.112 60.416 306.295 60.0527 305.24 60.0527C304.191 60.0527 303.38 60.416 302.806 61.1426C302.237 61.8633 301.953 62.8828 301.953 64.2012C301.953 65.5137 302.24 66.542 302.814 67.2861C303.395 68.0186 304.212 68.3848 305.267 68.3848ZM316.253 59.2617C317.542 59.2617 318.523 59.6865 319.197 60.5361C319.877 61.3799 320.217 62.5986 320.217 64.1924C320.217 65.7803 319.859 67.0078 319.145 67.875C318.436 68.7422 317.466 69.1758 316.235 69.1758C314.771 69.1758 313.698 68.625 313.019 67.5234H312.957L312.983 68.2617C313.007 68.6426 313.019 69.1172 313.019 69.6855V73.3242H312.148V59.4463H312.887L313.054 60.8086H313.106C313.769 59.7773 314.817 59.2617 316.253 59.2617ZM313.019 63.9639V64.2451C313.019 65.7393 313.268 66.8057 313.766 67.4443C314.264 68.083 315.081 68.4023 316.218 68.4023C317.196 68.4023 317.952 68.0391 318.485 67.3125C319.019 66.5859 319.285 65.5693 319.285 64.2627C319.285 61.4561 318.274 60.0527 316.253 60.0527C315.146 60.0527 314.328 60.3604 313.801 60.9756C313.279 61.585 313.019 62.5811 313.019 63.9639ZM332.539 59.2617C333.594 59.2617 334.379 59.5459 334.895 60.1143C335.41 60.6768 335.668 61.5557 335.668 62.751V69H334.807V62.7334C334.807 61.8076 334.625 61.1309 334.262 60.7031C333.904 60.2695 333.348 60.0527 332.592 60.0527C331.607 60.0527 330.881 60.3223 330.412 60.8613C329.949 61.4004 329.718 62.2471 329.718 63.4014V69H328.83V62.4697C328.83 60.8584 328.092 60.0527 326.615 60.0527C325.613 60.0527 324.884 60.3457 324.427 60.9316C323.97 61.5117 323.741 62.4434 323.741 63.7266V69H322.871V59.4463H323.592L323.776 60.7559H323.829C324.093 60.2871 324.465 59.9209 324.945 59.6572C325.432 59.3936 325.971 59.2617 326.562 59.2617C328.068 59.2617 329.035 59.8271 329.463 60.958H329.498C329.809 60.4131 330.225 59.9941 330.746 59.7012C331.273 59.4082 331.871 59.2617 332.539 59.2617ZM342.62 69.1758C341.237 69.1758 340.153 68.748 339.368 67.8926C338.595 67.0371 338.208 65.8447 338.208 64.3154C338.208 62.7861 338.58 61.5615 339.324 60.6416C340.074 59.7217 341.088 59.2617 342.365 59.2617C343.49 59.2617 344.378 59.6572 345.028 60.4482C345.679 61.2334 346.004 62.2969 346.004 63.6387V64.3418H339.122C339.134 65.6543 339.438 66.6562 340.036 67.3477C340.64 68.0391 341.501 68.3848 342.62 68.3848C343.177 68.3848 343.666 68.3438 344.088 68.2617C344.51 68.1797 345.022 68.0186 345.626 67.7783V68.5693C345.093 68.8037 344.595 68.9619 344.132 69.0439C343.675 69.1318 343.171 69.1758 342.62 69.1758ZM345.081 63.5684C345.081 62.4609 344.838 61.5967 344.352 60.9756C343.865 60.3486 343.18 60.0352 342.295 60.0352C341.416 60.0352 340.698 60.3398 340.142 60.9492C339.591 61.5586 339.269 62.4316 339.175 63.5684H345.081ZM352.912 59.2617C355.08 59.2617 356.164 60.4248 356.164 62.751V69H355.303V62.8037C355.303 61.8486 355.101 61.1514 354.696 60.7119C354.298 60.2725 353.671 60.0527 352.815 60.0527C351.685 60.0527 350.85 60.3398 350.311 60.9141C349.777 61.4883 349.511 62.4258 349.511 63.7266V69H348.641V59.4463H349.379L349.546 60.7559H349.599C350.226 59.7598 351.33 59.2617 352.912 59.2617ZM360.181 59.4463H362.984V60.2021H360.181V66.249C360.181 66.9814 360.31 67.5234 360.567 67.875C360.825 68.2266 361.232 68.4023 361.789 68.4023C362.346 68.4023 362.823 68.3555 363.222 68.2617V68.9648C362.8 69.1055 362.313 69.1758 361.763 69.1758C360.919 69.1758 360.295 68.9502 359.891 68.499C359.492 68.0479 359.293 67.3389 359.293 66.3721V60.2021H357.878V59.6924L359.293 59.2969L359.732 57.1348H360.181V59.4463Z" fill="white"/>
<path d="M204.699 33.1641C204.699 34.0195 204.523 34.8223 204.172 35.5723C203.832 36.3223 203.369 36.9785 202.783 37.541C202.209 38.1035 201.535 38.5488 200.762 38.877C200 39.1934 199.191 39.3516 198.336 39.3516H196.525C195.67 39.3516 194.855 39.1934 194.082 38.877C193.32 38.5488 192.646 38.1035 192.061 37.541C191.486 36.9785 191.023 36.3223 190.672 35.5723C190.332 34.8223 190.162 34.0195 190.162 33.1641V32.1621L192.43 31.793V33.1641C192.43 33.7266 192.541 34.2539 192.764 34.7461C192.998 35.2266 193.309 35.6543 193.695 36.0293C194.082 36.3926 194.527 36.6797 195.031 36.8906C195.547 37.1016 196.086 37.207 196.648 37.207H198.23C198.793 37.207 199.326 37.1016 199.83 36.8906C200.334 36.6797 200.779 36.3926 201.166 36.0293C201.553 35.6543 201.857 35.2266 202.08 34.7461C202.314 34.2539 202.432 33.7266 202.432 33.1641V32.4082C202.432 31.541 202.262 30.8203 201.922 30.2461C201.582 29.6719 201.131 29.1855 200.568 28.7871C200.006 28.377 199.367 28.0312 198.652 27.75C197.949 27.4688 197.223 27.1875 196.473 26.9062C195.723 26.625 194.99 26.3145 194.275 25.9746C193.572 25.6348 192.939 25.2129 192.377 24.709C191.814 24.1934 191.363 23.5664 191.023 22.8281C190.684 22.0898 190.514 21.1816 190.514 20.1035V19.6289C190.514 18.7734 190.672 17.9707 190.988 17.2207C191.316 16.4707 191.762 15.8145 192.324 15.252C192.887 14.6895 193.543 14.25 194.293 13.9336C195.055 13.6055 195.863 13.4414 196.719 13.4414H198.336C199.191 13.4414 199.994 13.6055 200.744 13.9336C201.494 14.25 202.15 14.6895 202.713 15.252C203.275 15.8145 203.715 16.4707 204.031 17.2207C204.359 17.9707 204.523 18.7734 204.523 19.6289V20.2793L202.256 20.6484V19.6289C202.256 19.0664 202.15 18.5449 201.939 18.0645C201.729 17.5723 201.441 17.1445 201.078 16.7812C200.715 16.418 200.287 16.1309 199.795 15.9199C199.314 15.709 198.793 15.6035 198.23 15.6035H196.824C196.262 15.6035 195.734 15.709 195.242 15.9199C194.762 16.1309 194.334 16.418 193.959 16.7812C193.596 17.1445 193.309 17.5723 193.098 18.0645C192.887 18.5449 192.781 19.0664 192.781 19.6289V20.1035C192.781 20.9121 192.951 21.5918 193.291 22.1426C193.631 22.6934 194.082 23.168 194.645 23.5664C195.207 23.9531 195.84 24.293 196.543 24.5859C197.258 24.8672 197.99 25.1602 198.74 25.4648C199.49 25.7578 200.217 26.0859 200.92 26.4492C201.635 26.8008 202.273 27.2402 202.836 27.7676C203.398 28.2832 203.85 28.916 204.189 29.666C204.529 30.416 204.699 31.3301 204.699 32.4082V33.1641ZM215.422 39C214.766 39 214.145 38.877 213.559 38.6309C212.984 38.3848 212.48 38.0449 212.047 37.6113C211.625 37.1777 211.285 36.6738 211.027 36.0996C210.781 35.5254 210.658 34.9102 210.658 34.2539V23.0566H207.424V21H210.658V16.6758L212.82 16.3242V21H217.391V23.0566H212.82V34.3594C212.82 34.7227 212.885 35.0625 213.014 35.3789C213.154 35.6836 213.342 35.9531 213.576 36.1875C213.811 36.4219 214.086 36.6094 214.402 36.75C214.719 36.8789 215.059 36.9434 215.422 36.9434H217.391V39H215.422ZM232.684 39L231.488 37.1719C230.996 37.8398 230.381 38.373 229.643 38.7715C228.904 39.1582 228.096 39.3516 227.217 39.3516H226.672C225.945 39.3516 225.26 39.2168 224.615 38.9473C223.971 38.666 223.408 38.2852 222.928 37.8047C222.447 37.3242 222.066 36.7617 221.785 36.1172C221.516 35.4727 221.381 34.7871 221.381 34.0605V21H223.543V34.1836C223.543 34.6172 223.625 35.0273 223.789 35.4141C223.953 35.7891 224.176 36.1172 224.457 36.3984C224.738 36.6797 225.066 36.9023 225.441 37.0664C225.828 37.2305 226.238 37.3125 226.672 37.3125H228.113C228.547 37.3125 228.951 37.2305 229.326 37.0664C229.713 36.9023 230.047 36.6797 230.328 36.3984C230.609 36.1172 230.832 35.7891 230.996 35.4141C231.16 35.0273 231.242 34.6172 231.242 34.1836V21H233.404V39H232.684ZM249.031 39L247.836 37.1719C247.344 37.8398 246.729 38.373 245.99 38.7715C245.252 39.1582 244.443 39.3516 243.564 39.3516H243.02C242.293 39.3516 241.607 39.2168 240.963 38.9473C240.318 38.666 239.756 38.2852 239.275 37.8047C238.795 37.3242 238.414 36.7617 238.133 36.1172C237.863 35.4727 237.729 34.7871 237.729 34.0605V25.9395C237.729 25.2129 237.863 24.5273 238.133 23.8828C238.414 23.2383 238.795 22.6758 239.275 22.1953C239.756 21.7148 240.318 21.3398 240.963 21.0703C241.607 20.7891 242.293 20.6484 243.02 20.6484H243.564C244.373 20.6484 245.123 20.8125 245.814 21.1406C246.506 21.4688 247.098 21.9258 247.59 22.5117V13.793H249.752V39H249.031ZM247.59 25.8164C247.59 25.3828 247.508 24.9785 247.344 24.6035C247.18 24.2168 246.957 23.8828 246.676 23.6016C246.395 23.3203 246.061 23.0977 245.674 22.9336C245.299 22.7695 244.895 22.6875 244.461 22.6875H243.02C242.586 22.6875 242.176 22.7695 241.789 22.9336C241.414 23.0977 241.086 23.3203 240.805 23.6016C240.523 23.8828 240.301 24.2168 240.137 24.6035C239.973 24.9785 239.891 25.3828 239.891 25.8164V34.1836C239.891 34.6172 239.973 35.0273 240.137 35.4141C240.301 35.7891 240.523 36.1172 240.805 36.3984C241.086 36.6797 241.414 36.9023 241.789 37.0664C242.176 37.2305 242.586 37.3125 243.02 37.3125H244.461C244.895 37.3125 245.299 37.2305 245.674 37.0664C246.061 36.9023 246.395 36.6797 246.676 36.3984C246.957 36.1172 247.18 35.7891 247.344 35.4141C247.508 35.0273 247.59 34.6172 247.59 34.1836V25.8164ZM254.621 16.6758V13.793H257.135V16.6758H254.621ZM254.797 39V21H256.959V39H254.797ZM274.045 34.0605C274.045 34.7871 273.904 35.4727 273.623 36.1172C273.354 36.7617 272.979 37.3242 272.498 37.8047C272.018 38.2852 271.455 38.666 270.811 38.9473C270.166 39.2168 269.48 39.3516 268.754 39.3516H267.312C266.586 39.3516 265.9 39.2168 265.256 38.9473C264.611 38.666 264.049 38.2852 263.568 37.8047C263.088 37.3242 262.707 36.7617 262.426 36.1172C262.156 35.4727 262.021 34.7871 262.021 34.0605V25.9395C262.021 25.2129 262.156 24.5273 262.426 23.8828C262.707 23.2383 263.088 22.6758 263.568 22.1953C264.049 21.7148 264.611 21.3398 265.256 21.0703C265.9 20.7891 266.586 20.6484 267.312 20.6484H268.754C269.48 20.6484 270.166 20.7891 270.811 21.0703C271.455 21.3398 272.018 21.7148 272.498 22.1953C272.979 22.6758 273.354 23.2383 273.623 23.8828C273.904 24.5273 274.045 25.2129 274.045 25.9395V34.0605ZM271.883 25.8164C271.883 25.3828 271.801 24.9785 271.637 24.6035C271.473 24.2168 271.25 23.8828 270.969 23.6016C270.688 23.3203 270.354 23.0977 269.967 22.9336C269.592 22.7695 269.188 22.6875 268.754 22.6875H267.312C266.879 22.6875 266.469 22.7695 266.082 22.9336C265.707 23.0977 265.379 23.3203 265.098 23.6016C264.816 23.8828 264.594 24.2168 264.43 24.6035C264.266 24.9785 264.184 25.3828 264.184 25.8164V34.1836C264.184 34.6172 264.266 35.0273 264.43 35.4141C264.594 35.7891 264.816 36.1172 265.098 36.3984C265.379 36.6797 265.707 36.9023 266.082 37.0664C266.469 37.2305 266.879 37.3125 267.312 37.3125H268.754C269.188 37.3125 269.592 37.2305 269.967 37.0664C270.354 36.9023 270.688 36.6797 270.969 36.3984C271.25 36.1172 271.473 35.7891 271.637 35.4141C271.801 35.0273 271.883 34.6172 271.883 34.1836V25.8164ZM290.744 34.4297C290.744 35.1562 290.598 35.8242 290.305 36.4336C290.012 37.0312 289.613 37.5469 289.109 37.9805C288.605 38.4141 288.02 38.7539 287.352 39C286.695 39.2344 286.004 39.3516 285.277 39.3516H283.836C283.109 39.3516 282.412 39.2168 281.744 38.9473C281.088 38.666 280.508 38.2852 280.004 37.8047C279.512 37.3242 279.113 36.7617 278.809 36.1172C278.516 35.4727 278.369 34.7871 278.369 34.0605V33.3398L280.531 32.9883V34.1836C280.531 34.6172 280.619 35.0273 280.795 35.4141C280.982 35.7891 281.229 36.1172 281.533 36.3984C281.838 36.6797 282.189 36.9023 282.588 37.0664C282.986 37.2305 283.402 37.3125 283.836 37.3125H285.277C285.711 37.3125 286.127 37.248 286.525 37.1191C286.924 36.9902 287.275 36.8086 287.58 36.5742C287.896 36.3281 288.143 36.0352 288.318 35.6953C288.506 35.3555 288.6 34.9688 288.6 34.5352C288.6 33.8906 288.459 33.3633 288.178 32.9531C287.896 32.543 287.521 32.2031 287.053 31.9336C286.596 31.6523 286.068 31.4238 285.471 31.248C284.885 31.0605 284.281 30.8789 283.66 30.7031C283.039 30.5156 282.43 30.3047 281.832 30.0703C281.246 29.8359 280.719 29.5312 280.25 29.1562C279.793 28.7695 279.424 28.2891 279.143 27.7148C278.861 27.1406 278.721 26.4258 278.721 25.5703C278.721 24.8438 278.861 24.1816 279.143 23.584C279.424 22.9746 279.805 22.4531 280.285 22.0195C280.766 21.5859 281.322 21.252 281.955 21.0176C282.6 20.7715 283.285 20.6484 284.012 20.6484H285.277C286.004 20.6484 286.689 20.7891 287.334 21.0703C287.979 21.3398 288.541 21.7148 289.021 22.1953C289.502 22.6758 289.877 23.2383 290.146 23.8828C290.428 24.5273 290.568 25.2129 290.568 25.9395V26.0098L288.406 26.3613V25.8164C288.406 25.3828 288.324 24.9785 288.16 24.6035C287.996 24.2168 287.773 23.8828 287.492 23.6016C287.211 23.3203 286.877 23.0977 286.49 22.9336C286.115 22.7695 285.711 22.6875 285.277 22.6875H284.012C283.578 22.6875 283.168 22.752 282.781 22.8809C282.406 23.0098 282.078 23.1973 281.797 23.4434C281.516 23.6777 281.293 23.9648 281.129 24.3047C280.965 24.6445 280.883 25.0312 280.883 25.4648C280.883 26.0859 281.023 26.5957 281.305 26.9941C281.586 27.3809 281.955 27.709 282.412 27.9785C282.881 28.248 283.408 28.4766 283.994 28.6641C284.592 28.8398 285.195 29.0273 285.805 29.2266C286.426 29.4141 287.029 29.6309 287.615 29.877C288.213 30.123 288.74 30.4395 289.197 30.8262C289.666 31.2129 290.041 31.6992 290.322 32.2852C290.604 32.8594 290.744 33.5742 290.744 34.4297Z" fill="white"/>
<path d="M19.446 40H2.73V17.614C2.73 15.542 3.388 13.876 4.704 12.616C5.6 11.776 6.608 11.23 7.728 10.978C8.848 10.726 10.22 10.6 11.844 10.6H19.446V14.296H11.298C8.218 14.296 6.678 15.584 6.678 18.16V22.948H16.38V26.644H6.678V36.304H19.446V40ZM24.0581 19.84H31.3241C34.4321 19.84 36.6581 20.302 38.0021 21.226C39.2061 22.038 39.9621 23.018 40.2701 24.166C40.6061 25.286 40.7741 26.77 40.7741 28.618V40H37.0781V28.66C37.0781 28.156 37.0641 27.736 37.0361 27.4C37.0081 27.036 36.9101 26.588 36.7421 26.056C36.5741 25.496 36.3361 25.048 36.0281 24.712C35.7201 24.348 35.2721 24.04 34.6841 23.788C34.0961 23.508 33.3821 23.368 32.5421 23.368H27.7541V40H24.0581V19.84ZM46.0425 19.84H53.3085C56.4165 19.84 58.6425 20.302 59.9865 21.226C61.1905 22.038 61.9465 23.018 62.2545 24.166C62.5905 25.286 62.7585 26.77 62.7585 28.618V40H59.0625V28.66C59.0625 28.156 59.0485 27.736 59.0205 27.4C58.9925 27.036 58.8945 26.588 58.7265 26.056C58.5585 25.496 58.3205 25.048 58.0125 24.712C57.7045 24.348 57.2565 24.04 56.6685 23.788C56.0805 23.508 55.3665 23.368 54.5265 23.368H49.7385V40H46.0425V19.84ZM77.6869 19.42C82.4469 19.616 84.8269 21.59 84.8269 25.342C84.8269 30.018 81.7609 32.356 75.6289 32.356H73.9069V29.122H75.9229C77.7989 29.122 79.1009 28.842 79.8289 28.282C80.5569 27.694 80.9209 26.728 80.9209 25.384C80.9209 24.516 80.5989 23.872 79.9549 23.452C79.3109 23.004 78.4849 22.78 77.4769 22.78C75.4889 22.78 73.9209 23.48 72.7729 24.88C71.6529 26.28 71.0929 27.96 71.0929 29.92C71.0929 31.992 71.6949 33.672 72.8989 34.96C74.1309 36.248 75.7269 36.892 77.6869 36.892C79.4509 36.892 80.8929 36.458 82.0129 35.59L84.5329 38.068C82.6009 39.636 80.3189 40.42 77.6869 40.42C74.4949 40.42 71.9469 39.482 70.0429 37.606C68.1389 35.73 67.1869 33.308 67.1869 30.34C67.1869 27.036 68.1249 24.362 70.0009 22.318C71.8769 20.274 74.4389 19.308 77.6869 19.42ZM100.236 28.156V31.936C99.172 31.124 97.87 30.718 96.33 30.718C95.014 30.718 93.992 30.984 93.264 31.516C92.536 32.02 92.172 32.748 92.172 33.7C92.172 35.548 93.544 36.472 96.288 36.472H101.832V28.45C101.832 25.062 100.18 23.368 96.876 23.368H90.156V19.84H97.086C99.802 19.84 101.888 20.512 103.344 21.856C104.8 23.2 105.528 25.132 105.528 27.652V40H96.162C93.782 40 91.892 39.468 90.492 38.404C89.092 37.34 88.392 35.786 88.392 33.742C88.392 31.698 89.134 30.144 90.618 29.08C92.102 28.016 93.964 27.484 96.204 27.484C97.464 27.484 98.808 27.708 100.236 28.156ZM119.511 40C116.767 40 114.415 39.076 112.455 37.228C110.495 35.38 109.515 33.014 109.515 30.13C109.515 27.218 110.495 24.782 112.455 22.822C114.443 20.834 116.893 19.84 119.805 19.84H129.675V39.412C129.675 40.672 129.507 41.806 129.171 42.814C128.863 43.822 128.415 44.676 127.827 45.376C127.239 46.076 126.707 46.622 126.231 47.014C125.755 47.406 125.181 47.812 124.509 48.232C122.773 49.128 120.659 49.576 118.167 49.576H113.463V46.048H117.789C120.253 46.048 122.003 45.74 123.039 45.124C124.943 44.06 125.895 42.296 125.895 39.832V23.368H119.805C117.817 23.368 116.235 23.984 115.059 25.216C113.883 26.448 113.295 28.086 113.295 30.13C113.295 32.09 113.897 33.644 115.101 34.792C116.333 35.912 117.803 36.472 119.511 36.472C121.359 36.472 122.983 35.968 124.383 34.96V38.74C122.871 39.58 121.247 40 119.511 40ZM137.228 22.486C139.188 20.442 141.638 19.42 144.578 19.42C146.006 19.42 147.336 19.7 148.568 20.26C149.828 20.792 150.92 21.534 151.844 22.486C152.796 23.438 153.538 24.558 154.07 25.846C154.602 27.106 154.868 28.464 154.868 29.92C154.868 31.376 154.602 32.748 154.07 34.036C153.566 35.296 152.852 36.402 151.928 37.354C151.004 38.306 149.912 39.062 148.652 39.622C147.392 40.154 146.034 40.42 144.578 40.42C143.094 40.42 141.722 40.154 140.462 39.622C139.23 39.062 138.152 38.306 137.228 37.354C136.304 36.402 135.576 35.296 135.044 34.036C134.54 32.748 134.288 31.376 134.288 29.92C134.288 26.952 135.268 24.474 137.228 22.486ZM144.578 22.948C142.618 22.948 141.036 23.592 139.832 24.88C138.656 26.168 138.068 27.848 138.068 29.92C138.068 31.992 138.656 33.672 139.832 34.96C141.036 36.248 142.618 36.892 144.578 36.892C146.566 36.892 148.148 36.248 149.324 34.96C150.5 33.644 151.088 31.964 151.088 29.92C151.088 27.876 150.5 26.21 149.324 24.922C148.148 23.606 146.566 22.948 144.578 22.948ZM159.492 19.84H166.758C169.866 19.84 172.092 20.302 173.436 21.226C174.64 22.038 175.396 23.018 175.704 24.166C176.04 25.286 176.208 26.77 176.208 28.618V40H172.512V28.66C172.512 28.156 172.498 27.736 172.47 27.4C172.442 27.036 172.344 26.588 172.176 26.056C172.008 25.496 171.77 25.048 171.462 24.712C171.154 24.348 170.706 24.04 170.118 23.788C169.53 23.508 168.816 23.368 167.976 23.368H163.188V40H159.492V19.84Z" fill="white"/>
</svg>
