<svg width="294" height="50" viewBox="0 0 294 50" fill="none" xmlns="http://www.w3.org/2000/svg">
<path d="M202.699 33.1641C202.699 34.0195 202.523 34.8223 202.172 35.5723C201.832 36.3223 201.369 36.9785 200.783 37.541C200.209 38.1035 199.535 38.5488 198.762 38.877C198 39.1934 197.191 39.3516 196.336 39.3516H194.525C193.67 39.3516 192.855 39.1934 192.082 38.877C191.32 38.5488 190.646 38.1035 190.061 37.541C189.486 36.9785 189.023 36.3223 188.672 35.5723C188.332 34.8223 188.162 34.0195 188.162 33.1641V32.1621L190.43 31.793V33.1641C190.43 33.7266 190.541 34.2539 190.764 34.7461C190.998 35.2266 191.309 35.6543 191.695 36.0293C192.082 36.3926 192.527 36.6797 193.031 36.8906C193.547 37.1016 194.086 37.207 194.648 37.207H196.23C196.793 37.207 197.326 37.1016 197.83 36.8906C198.334 36.6797 198.779 36.3926 199.166 36.0293C199.553 35.6543 199.857 35.2266 200.08 34.7461C200.314 34.2539 200.432 33.7266 200.432 33.1641V32.4082C200.432 31.541 200.262 30.8203 199.922 30.2461C199.582 29.6719 199.131 29.1855 198.568 28.7871C198.006 28.377 197.367 28.0312 196.652 27.75C195.949 27.4688 195.223 27.1875 194.473 26.9062C193.723 26.625 192.99 26.3145 192.275 25.9746C191.572 25.6348 190.939 25.2129 190.377 24.709C189.814 24.1934 189.363 23.5664 189.023 22.8281C188.684 22.0898 188.514 21.1816 188.514 20.1035V19.6289C188.514 18.7734 188.672 17.9707 188.988 17.2207C189.316 16.4707 189.762 15.8145 190.324 15.252C190.887 14.6895 191.543 14.25 192.293 13.9336C193.055 13.6055 193.863 13.4414 194.719 13.4414H196.336C197.191 13.4414 197.994 13.6055 198.744 13.9336C199.494 14.25 200.15 14.6895 200.713 15.252C201.275 15.8145 201.715 16.4707 202.031 17.2207C202.359 17.9707 202.523 18.7734 202.523 19.6289V20.2793L200.256 20.6484V19.6289C200.256 19.0664 200.15 18.5449 199.939 18.0645C199.729 17.5723 199.441 17.1445 199.078 16.7812C198.715 16.418 198.287 16.1309 197.795 15.9199C197.314 15.709 196.793 15.6035 196.23 15.6035H194.824C194.262 15.6035 193.734 15.709 193.242 15.9199C192.762 16.1309 192.334 16.418 191.959 16.7812C191.596 17.1445 191.309 17.5723 191.098 18.0645C190.887 18.5449 190.781 19.0664 190.781 19.6289V20.1035C190.781 20.9121 190.951 21.5918 191.291 22.1426C191.631 22.6934 192.082 23.168 192.645 23.5664C193.207 23.9531 193.84 24.293 194.543 24.5859C195.258 24.8672 195.99 25.1602 196.74 25.4648C197.49 25.7578 198.217 26.0859 198.92 26.4492C199.635 26.8008 200.273 27.2402 200.836 27.7676C201.398 28.2832 201.85 28.916 202.189 29.666C202.529 30.416 202.699 31.3301 202.699 32.4082V33.1641ZM213.782 39C213.126 39 212.505 38.877 211.919 38.6309C211.344 38.3848 210.84 38.0449 210.407 37.6113C209.985 37.1777 209.645 36.6738 209.387 36.0996C209.141 35.5254 209.018 34.9102 209.018 34.2539V23.0566H205.784V21H209.018V16.6758L211.18 16.3242V21H215.751V23.0566H211.18V34.3594C211.18 34.7227 211.245 35.0625 211.374 35.3789C211.514 35.6836 211.702 35.9531 211.936 36.1875C212.171 36.4219 212.446 36.6094 212.762 36.75C213.079 36.8789 213.419 36.9434 213.782 36.9434H215.751V39H213.782ZM231.404 39L230.208 37.1719C229.716 37.8398 229.101 38.373 228.363 38.7715C227.624 39.1582 226.816 39.3516 225.937 39.3516H225.392C224.665 39.3516 223.98 39.2168 223.335 38.9473C222.691 38.666 222.128 38.2852 221.648 37.8047C221.167 37.3242 220.786 36.7617 220.505 36.1172C220.236 35.4727 220.101 34.7871 220.101 34.0605V21H222.263V34.1836C222.263 34.6172 222.345 35.0273 222.509 35.4141C222.673 35.7891 222.896 36.1172 223.177 36.3984C223.458 36.6797 223.786 36.9023 224.161 37.0664C224.548 37.2305 224.958 37.3125 225.392 37.3125H226.833C227.267 37.3125 227.671 37.2305 228.046 37.0664C228.433 36.9023 228.767 36.6797 229.048 36.3984C229.329 36.1172 229.552 35.7891 229.716 35.4141C229.88 35.0273 229.962 34.6172 229.962 34.1836V21H232.124V39H231.404ZM248.111 39L246.916 37.1719C246.424 37.8398 245.809 38.373 245.07 38.7715C244.332 39.1582 243.523 39.3516 242.644 39.3516H242.1C241.373 39.3516 240.687 39.2168 240.043 38.9473C239.398 38.666 238.836 38.2852 238.355 37.8047C237.875 37.3242 237.494 36.7617 237.213 36.1172C236.943 35.4727 236.809 34.7871 236.809 34.0605V25.9395C236.809 25.2129 236.943 24.5273 237.213 23.8828C237.494 23.2383 237.875 22.6758 238.355 22.1953C238.836 21.7148 239.398 21.3398 240.043 21.0703C240.687 20.7891 241.373 20.6484 242.1 20.6484H242.644C243.453 20.6484 244.203 20.8125 244.894 21.1406C245.586 21.4688 246.178 21.9258 246.67 22.5117V13.793H248.832V39H248.111ZM246.67 25.8164C246.67 25.3828 246.588 24.9785 246.424 24.6035C246.26 24.2168 246.037 23.8828 245.756 23.6016C245.475 23.3203 245.141 23.0977 244.754 22.9336C244.379 22.7695 243.975 22.6875 243.541 22.6875H242.1C241.666 22.6875 241.256 22.7695 240.869 22.9336C240.494 23.0977 240.166 23.3203 239.885 23.6016C239.603 23.8828 239.381 24.2168 239.217 24.6035C239.053 24.9785 238.971 25.3828 238.971 25.8164V34.1836C238.971 34.6172 239.053 35.0273 239.217 35.4141C239.381 35.7891 239.603 36.1172 239.885 36.3984C240.166 36.6797 240.494 36.9023 240.869 37.0664C241.256 37.2305 241.666 37.3125 242.1 37.3125H243.541C243.975 37.3125 244.379 37.2305 244.754 37.0664C245.141 36.9023 245.475 36.6797 245.756 36.3984C246.037 36.1172 246.26 35.7891 246.424 35.4141C246.588 35.0273 246.67 34.6172 246.67 34.1836V25.8164ZM254.061 16.6758V13.793H256.575V16.6758H254.061ZM254.237 39V21H256.399V39H254.237ZM273.845 34.0605C273.845 34.7871 273.704 35.4727 273.423 36.1172C273.154 36.7617 272.779 37.3242 272.298 37.8047C271.818 38.2852 271.255 38.666 270.611 38.9473C269.966 39.2168 269.28 39.3516 268.554 39.3516H267.113C266.386 39.3516 265.7 39.2168 265.056 38.9473C264.411 38.666 263.849 38.2852 263.368 37.8047C262.888 37.3242 262.507 36.7617 262.226 36.1172C261.956 35.4727 261.821 34.7871 261.821 34.0605V25.9395C261.821 25.2129 261.956 24.5273 262.226 23.8828C262.507 23.2383 262.888 22.6758 263.368 22.1953C263.849 21.7148 264.411 21.3398 265.056 21.0703C265.7 20.7891 266.386 20.6484 267.113 20.6484H268.554C269.28 20.6484 269.966 20.7891 270.611 21.0703C271.255 21.3398 271.818 21.7148 272.298 22.1953C272.779 22.6758 273.154 23.2383 273.423 23.8828C273.704 24.5273 273.845 25.2129 273.845 25.9395V34.0605ZM271.683 25.8164C271.683 25.3828 271.601 24.9785 271.437 24.6035C271.273 24.2168 271.05 23.8828 270.769 23.6016C270.488 23.3203 270.154 23.0977 269.767 22.9336C269.392 22.7695 268.988 22.6875 268.554 22.6875H267.113C266.679 22.6875 266.269 22.7695 265.882 22.9336C265.507 23.0977 265.179 23.3203 264.898 23.6016C264.616 23.8828 264.394 24.2168 264.23 24.6035C264.066 24.9785 263.984 25.3828 263.984 25.8164V34.1836C263.984 34.6172 264.066 35.0273 264.23 35.4141C264.394 35.7891 264.616 36.1172 264.898 36.3984C265.179 36.6797 265.507 36.9023 265.882 37.0664C266.269 37.2305 266.679 37.3125 267.113 37.3125H268.554C268.988 37.3125 269.392 37.2305 269.767 37.0664C270.154 36.9023 270.488 36.6797 270.769 36.3984C271.05 36.1172 271.273 35.7891 271.437 35.4141C271.601 35.0273 271.683 34.6172 271.683 34.1836V25.8164ZM290.904 34.4297C290.904 35.1562 290.758 35.8242 290.465 36.4336C290.172 37.0312 289.773 37.5469 289.269 37.9805C288.765 38.4141 288.18 38.7539 287.512 39C286.855 39.2344 286.164 39.3516 285.437 39.3516H283.996C283.269 39.3516 282.572 39.2168 281.904 38.9473C281.248 38.666 280.668 38.2852 280.164 37.8047C279.672 37.3242 279.273 36.7617 278.969 36.1172C278.676 35.4727 278.529 34.7871 278.529 34.0605V33.3398L280.691 32.9883V34.1836C280.691 34.6172 280.779 35.0273 280.955 35.4141C281.142 35.7891 281.389 36.1172 281.693 36.3984C281.998 36.6797 282.349 36.9023 282.748 37.0664C283.146 37.2305 283.562 37.3125 283.996 37.3125H285.437C285.871 37.3125 286.287 37.248 286.685 37.1191C287.084 36.9902 287.435 36.8086 287.74 36.5742C288.056 36.3281 288.303 36.0352 288.478 35.6953C288.666 35.3555 288.76 34.9688 288.76 34.5352C288.76 33.8906 288.619 33.3633 288.338 32.9531C288.056 32.543 287.681 32.2031 287.213 31.9336C286.756 31.6523 286.228 31.4238 285.631 31.248C285.045 31.0605 284.441 30.8789 283.82 30.7031C283.199 30.5156 282.59 30.3047 281.992 30.0703C281.406 29.8359 280.879 29.5312 280.41 29.1562C279.953 28.7695 279.584 28.2891 279.303 27.7148C279.021 27.1406 278.881 26.4258 278.881 25.5703C278.881 24.8438 279.021 24.1816 279.303 23.584C279.584 22.9746 279.965 22.4531 280.445 22.0195C280.926 21.5859 281.482 21.252 282.115 21.0176C282.76 20.7715 283.445 20.6484 284.172 20.6484H285.437C286.164 20.6484 286.849 20.7891 287.494 21.0703C288.139 21.3398 288.701 21.7148 289.181 22.1953C289.662 22.6758 290.037 23.2383 290.306 23.8828C290.588 24.5273 290.728 25.2129 290.728 25.9395V26.0098L288.566 26.3613V25.8164C288.566 25.3828 288.484 24.9785 288.32 24.6035C288.156 24.2168 287.933 23.8828 287.652 23.6016C287.371 23.3203 287.037 23.0977 286.65 22.9336C286.275 22.7695 285.871 22.6875 285.437 22.6875H284.172C283.738 22.6875 283.328 22.752 282.941 22.8809C282.566 23.0098 282.238 23.1973 281.957 23.4434C281.676 23.6777 281.453 23.9648 281.289 24.3047C281.125 24.6445 281.043 25.0312 281.043 25.4648C281.043 26.0859 281.183 26.5957 281.465 26.9941C281.746 27.3809 282.115 27.709 282.572 27.9785C283.041 28.248 283.568 28.4766 284.154 28.6641C284.752 28.8398 285.355 29.0273 285.965 29.2266C286.586 29.4141 287.189 29.6309 287.775 29.877C288.373 30.123 288.9 30.4395 289.357 30.8262C289.826 31.2129 290.201 31.6992 290.482 32.2852C290.764 32.8594 290.904 33.5742 290.904 34.4297Z" fill="white"/>
<path d="M19.446 40H2.73V17.614C2.73 15.542 3.388 13.876 4.704 12.616C5.6 11.776 6.608 11.23 7.728 10.978C8.848 10.726 10.22 10.6 11.844 10.6H19.446V14.296H11.298C8.218 14.296 6.678 15.584 6.678 18.16V22.948H16.38V26.644H6.678V36.304H19.446V40ZM24.0581 19.84H31.3241C34.4321 19.84 36.6581 20.302 38.0021 21.226C39.2061 22.038 39.9621 23.018 40.2701 24.166C40.6061 25.286 40.7741 26.77 40.7741 28.618V40H37.0781V28.66C37.0781 28.156 37.0641 27.736 37.0361 27.4C37.0081 27.036 36.9101 26.588 36.7421 26.056C36.5741 25.496 36.3361 25.048 36.0281 24.712C35.7201 24.348 35.2721 24.04 34.6841 23.788C34.0961 23.508 33.3821 23.368 32.5421 23.368H27.7541V40H24.0581V19.84ZM46.0425 19.84H53.3085C56.4165 19.84 58.6425 20.302 59.9865 21.226C61.1905 22.038 61.9465 23.018 62.2545 24.166C62.5905 25.286 62.7585 26.77 62.7585 28.618V40H59.0625V28.66C59.0625 28.156 59.0485 27.736 59.0205 27.4C58.9925 27.036 58.8945 26.588 58.7265 26.056C58.5585 25.496 58.3205 25.048 58.0125 24.712C57.7045 24.348 57.2565 24.04 56.6685 23.788C56.0805 23.508 55.3665 23.368 54.5265 23.368H49.7385V40H46.0425V19.84ZM77.6869 19.42C82.4469 19.616 84.8269 21.59 84.8269 25.342C84.8269 30.018 81.7609 32.356 75.6289 32.356H73.9069V29.122H75.9229C77.7989 29.122 79.1009 28.842 79.8289 28.282C80.5569 27.694 80.9209 26.728 80.9209 25.384C80.9209 24.516 80.5989 23.872 79.9549 23.452C79.3109 23.004 78.4849 22.78 77.4769 22.78C75.4889 22.78 73.9209 23.48 72.7729 24.88C71.6529 26.28 71.0929 27.96 71.0929 29.92C71.0929 31.992 71.6949 33.672 72.8989 34.96C74.1309 36.248 75.7269 36.892 77.6869 36.892C79.4509 36.892 80.8929 36.458 82.0129 35.59L84.5329 38.068C82.6009 39.636 80.3189 40.42 77.6869 40.42C74.4949 40.42 71.9469 39.482 70.0429 37.606C68.1389 35.73 67.1869 33.308 67.1869 30.34C67.1869 27.036 68.1249 24.362 70.0009 22.318C71.8769 20.274 74.4389 19.308 77.6869 19.42ZM100.236 28.156V31.936C99.172 31.124 97.87 30.718 96.33 30.718C95.014 30.718 93.992 30.984 93.264 31.516C92.536 32.02 92.172 32.748 92.172 33.7C92.172 35.548 93.544 36.472 96.288 36.472H101.832V28.45C101.832 25.062 100.18 23.368 96.876 23.368H90.156V19.84H97.086C99.802 19.84 101.888 20.512 103.344 21.856C104.8 23.2 105.528 25.132 105.528 27.652V40H96.162C93.782 40 91.892 39.468 90.492 38.404C89.092 37.34 88.392 35.786 88.392 33.742C88.392 31.698 89.134 30.144 90.618 29.08C92.102 28.016 93.964 27.484 96.204 27.484C97.464 27.484 98.808 27.708 100.236 28.156ZM119.511 40C116.767 40 114.415 39.076 112.455 37.228C110.495 35.38 109.515 33.014 109.515 30.13C109.515 27.218 110.495 24.782 112.455 22.822C114.443 20.834 116.893 19.84 119.805 19.84H129.675V39.412C129.675 40.672 129.507 41.806 129.171 42.814C128.863 43.822 128.415 44.676 127.827 45.376C127.239 46.076 126.707 46.622 126.231 47.014C125.755 47.406 125.181 47.812 124.509 48.232C122.773 49.128 120.659 49.576 118.167 49.576H113.463V46.048H117.789C120.253 46.048 122.003 45.74 123.039 45.124C124.943 44.06 125.895 42.296 125.895 39.832V23.368H119.805C117.817 23.368 116.235 23.984 115.059 25.216C113.883 26.448 113.295 28.086 113.295 30.13C113.295 32.09 113.897 33.644 115.101 34.792C116.333 35.912 117.803 36.472 119.511 36.472C121.359 36.472 122.983 35.968 124.383 34.96V38.74C122.871 39.58 121.247 40 119.511 40ZM137.228 22.486C139.188 20.442 141.638 19.42 144.578 19.42C146.006 19.42 147.336 19.7 148.568 20.26C149.828 20.792 150.92 21.534 151.844 22.486C152.796 23.438 153.538 24.558 154.07 25.846C154.602 27.106 154.868 28.464 154.868 29.92C154.868 31.376 154.602 32.748 154.07 34.036C153.566 35.296 152.852 36.402 151.928 37.354C151.004 38.306 149.912 39.062 148.652 39.622C147.392 40.154 146.034 40.42 144.578 40.42C143.094 40.42 141.722 40.154 140.462 39.622C139.23 39.062 138.152 38.306 137.228 37.354C136.304 36.402 135.576 35.296 135.044 34.036C134.54 32.748 134.288 31.376 134.288 29.92C134.288 26.952 135.268 24.474 137.228 22.486ZM144.578 22.948C142.618 22.948 141.036 23.592 139.832 24.88C138.656 26.168 138.068 27.848 138.068 29.92C138.068 31.992 138.656 33.672 139.832 34.96C141.036 36.248 142.618 36.892 144.578 36.892C146.566 36.892 148.148 36.248 149.324 34.96C150.5 33.644 151.088 31.964 151.088 29.92C151.088 27.876 150.5 26.21 149.324 24.922C148.148 23.606 146.566 22.948 144.578 22.948ZM159.492 19.84H166.758C169.866 19.84 172.092 20.302 173.436 21.226C174.64 22.038 175.396 23.018 175.704 24.166C176.04 25.286 176.208 26.77 176.208 28.618V40H172.512V28.66C172.512 28.156 172.498 27.736 172.47 27.4C172.442 27.036 172.344 26.588 172.176 26.056C172.008 25.496 171.77 25.048 171.462 24.712C171.154 24.348 170.706 24.04 170.118 23.788C169.53 23.508 168.816 23.368 167.976 23.368H163.188V40H159.492V19.84Z" fill="white"/>
</svg>
