<svg width="325" height="73" viewBox="0 0 325 73" fill="none" xmlns="http://www.w3.org/2000/svg">
<path d="M14.5586 67H13.8203L10.999 57.0859C10.7588 56.2656 10.583 55.5977 10.4717 55.082C10.3662 55.6387 10.2402 56.1982 10.0938 56.7607C9.94727 57.3174 8.99512 60.7305 7.2373 67H6.48145L2.94824 54.1504H3.88867L6.13867 62.4297C6.54883 63.9941 6.80078 65.043 6.89453 65.5762C7.03516 64.791 7.33398 63.5811 7.79102 61.9463L9.98828 54.1504H10.9814L13.5566 63.0977C13.8438 64.082 14.0576 64.9141 14.1982 65.5938C14.2744 65.1719 14.3711 64.7236 14.4883 64.249C14.6113 63.7744 15.5166 60.4082 17.2041 54.1504H18.1094L14.5586 67ZM24.0244 67.1758C22.6416 67.1758 21.5576 66.748 20.7725 65.8926C19.999 65.0371 19.6123 63.8447 19.6123 62.3154C19.6123 60.7861 19.9844 59.5615 20.7285 58.6416C21.4785 57.7217 22.4922 57.2617 23.7695 57.2617C24.8945 57.2617 25.7822 57.6572 26.4326 58.4482C27.083 59.2334 27.4082 60.2969 27.4082 61.6387V62.3418H20.5264C20.5381 63.6543 20.8428 64.6562 21.4404 65.3477C22.0439 66.0391 22.9053 66.3848 24.0244 66.3848C24.5811 66.3848 25.0703 66.3438 25.4922 66.2617C25.9141 66.1797 26.4268 66.0186 27.0303 65.7783V66.5693C26.4971 66.8037 25.999 66.9619 25.5361 67.0439C25.0791 67.1318 24.5752 67.1758 24.0244 67.1758ZM26.4854 61.5684C26.4854 60.4609 26.2422 59.5967 25.7559 58.9756C25.2695 58.3486 24.584 58.0352 23.6992 58.0352C22.8203 58.0352 22.1025 58.3398 21.5459 58.9492C20.9951 59.5586 20.6729 60.4316 20.5791 61.5684H26.4854ZM30.915 53.3242V56.7607C30.915 57.3291 30.9033 57.8037 30.8799 58.1846L30.8535 58.9316H30.915C31.2783 58.3574 31.7148 57.9355 32.2246 57.666C32.7402 57.3965 33.3584 57.2617 34.0791 57.2617C35.4092 57.2617 36.4141 57.6807 37.0938 58.5186C37.7734 59.3564 38.1133 60.5781 38.1133 62.1836C38.1133 63.7891 37.7529 65.0225 37.0322 65.8838C36.3291 66.7451 35.333 67.1758 34.0439 67.1758C33.3643 67.1758 32.752 67.0352 32.207 66.7539C31.6621 66.4727 31.2314 66.0742 30.915 65.5586H30.8359L30.5898 67H30.0449V53.3242H30.915ZM30.915 62.21V62.3594C30.915 63.8008 31.167 64.835 31.6709 65.4619C32.1807 66.0889 32.96 66.4023 34.0088 66.4023C35.0635 66.4023 35.8545 66.042 36.3818 65.3213C36.915 64.5947 37.1816 63.5518 37.1816 62.1924C37.1816 59.4326 36.1416 58.0527 34.0615 58.0527C32.9424 58.0527 32.1367 58.375 31.6445 59.0195C31.1582 59.6641 30.915 60.7275 30.915 62.21ZM50.7871 67.1758C48.9824 67.1758 47.5615 66.5928 46.5244 65.4268C45.4873 64.2549 44.9688 62.626 44.9688 60.54C44.9688 60.499 44.9688 60.4551 44.9688 60.4082C44.9688 59.1719 45.2148 58.0615 45.707 57.0771C46.2051 56.0869 46.9141 55.3223 47.834 54.7832C48.7598 54.2383 49.8057 53.9658 50.9717 53.9658C51.0127 53.9658 51.0508 53.9658 51.0859 53.9658C52.3281 53.9658 53.4502 54.2002 54.4521 54.6689L54.0918 55.4775C53.1426 55.0088 52.1582 54.7744 51.1387 54.7744C49.5273 54.7744 48.2588 55.29 47.333 56.3213C46.4072 57.3525 45.9443 58.7764 45.9443 60.5928C45.9443 62.4033 46.3809 63.8154 47.2539 64.8291C48.127 65.8428 49.375 66.3496 50.998 66.3496C52.0645 66.3496 53.0547 66.2119 53.9688 65.9365V66.7275C53.1191 67.0264 52.0586 67.1758 50.7871 67.1758ZM56.0605 62.21C56.0605 60.6572 56.4385 59.4443 57.1943 58.5713C57.9502 57.6982 58.9844 57.2617 60.2969 57.2617C61.6152 57.2617 62.6465 57.7041 63.3906 58.5889C64.1406 59.4736 64.5156 60.6895 64.5156 62.2363C64.5156 63.7773 64.1377 64.9873 63.3818 65.8662C62.626 66.7393 61.583 67.1758 60.2529 67.1758C60.2236 67.1758 60.1914 67.1758 60.1562 67.1758C58.9434 67.1758 57.9561 66.7275 57.1943 65.8311C56.4385 64.9346 56.0605 63.7715 56.0605 62.3418C56.0605 62.2949 56.0605 62.251 56.0605 62.21ZM60.2881 66.3848C61.3428 66.3848 62.1572 66.0186 62.7314 65.2861C63.3057 64.5537 63.5928 63.5283 63.5928 62.21C63.5928 60.8857 63.2998 59.8633 62.7139 59.1426C62.1338 58.416 61.3164 58.0527 60.2617 58.0527C59.2129 58.0527 58.4014 58.416 57.8271 59.1426C57.2588 59.8633 56.9746 60.8828 56.9746 62.2012C56.9746 63.5137 57.2617 64.542 57.8359 65.2861C58.416 66.0186 59.2334 66.3848 60.2881 66.3848ZM71.4414 57.2617C73.6094 57.2617 74.6934 58.4248 74.6934 60.751V67H73.832V60.8037C73.832 59.8486 73.6299 59.1514 73.2256 58.7119C72.8271 58.2725 72.2002 58.0527 71.3447 58.0527C70.2139 58.0527 69.3789 58.3398 68.8398 58.9141C68.3066 59.4883 68.04 60.4258 68.04 61.7266V67H67.1699V57.4463H67.9082L68.0752 58.7559H68.1279C68.7549 57.7598 69.8594 57.2617 71.4414 57.2617ZM76.9258 65.6465C77.8633 66.127 78.8359 66.3672 79.8438 66.3672C80.8516 66.3672 81.6045 66.2148 82.1025 65.9102C82.6006 65.5996 82.8496 65.1895 82.8496 64.6797C82.8496 64.1699 82.6533 63.7539 82.2607 63.4316C81.8682 63.1035 81.2148 62.7783 80.3008 62.4561C79.3867 62.1279 78.7305 61.835 78.332 61.5771C77.9336 61.3193 77.6377 61.0322 77.4443 60.7158C77.2568 60.3994 77.1631 60.0215 77.1631 59.582C77.1631 58.873 77.4619 58.3076 78.0596 57.8857C78.6689 57.4697 79.498 57.2617 80.5469 57.2617C81.6016 57.2617 82.5918 57.4551 83.5176 57.8418L83.1924 58.6328C82.2314 58.2461 81.3613 58.0527 80.582 58.0527C79.8027 58.0527 79.1846 58.1816 78.7275 58.4395C78.2705 58.6973 78.042 59.0664 78.042 59.5469C78.042 60.0215 78.2178 60.4082 78.5693 60.707C78.9268 61.0059 79.5771 61.3252 80.5205 61.665C81.4639 61.999 82.1348 62.2949 82.5332 62.5527C83.3184 63.0449 83.7109 63.71 83.7109 64.5479C83.7109 65.3799 83.3857 66.0273 82.7354 66.4902C82.085 66.9473 81.1387 67.1758 79.8965 67.1758C78.6602 67.1758 77.6699 66.9795 76.9258 66.5869V65.6465ZM93.5898 67H92.8516L92.6934 65.6816H92.6406C92.0137 66.6777 90.9092 67.1758 89.3271 67.1758C87.1533 67.1758 86.0664 66.0127 86.0664 63.6865V57.4463H86.9277V63.6338C86.9277 64.5889 87.127 65.2861 87.5254 65.7256C87.9297 66.165 88.5596 66.3848 89.415 66.3848C90.5459 66.3848 91.3809 66.0977 91.9199 65.5234C92.459 64.9492 92.7285 64.0146 92.7285 62.7197V57.4463H93.5898V67ZM97.6592 67H96.7891V53.3242H97.6592V67ZM101.79 57.4463H104.594V58.2021H101.79V64.249C101.79 64.9814 101.919 65.5234 102.177 65.875C102.435 66.2266 102.842 66.4023 103.398 66.4023C103.955 66.4023 104.433 66.3555 104.831 66.2617V66.9648C104.409 67.1055 103.923 67.1758 103.372 67.1758C102.528 67.1758 101.904 66.9502 101.5 66.499C101.102 66.0479 100.902 65.3389 100.902 64.3721V58.2021H99.4873V57.6924L100.902 57.2969L101.342 55.1348H101.79V57.4463ZM107.327 53.9482C107.509 53.9482 107.649 54.0215 107.749 54.168C107.854 54.3145 107.907 54.5225 107.907 54.792C107.907 55.0557 107.854 55.2637 107.749 55.416C107.649 55.5684 107.509 55.6445 107.327 55.6445C106.958 55.6445 106.773 55.3633 106.773 54.8008C106.773 54.2324 106.958 53.9482 107.327 53.9482ZM107.767 67H106.896V57.4463H107.767V67ZM115.246 57.2617C117.414 57.2617 118.498 58.4248 118.498 60.751V67H117.637V60.8037C117.637 59.8486 117.435 59.1514 117.03 58.7119C116.632 58.2725 116.005 58.0527 115.149 58.0527C114.019 58.0527 113.184 58.3398 112.645 58.9141C112.111 59.4883 111.845 60.4258 111.845 61.7266V67H110.975V57.4463H111.713L111.88 58.7559H111.933C112.56 57.7598 113.664 57.2617 115.246 57.2617ZM124.009 65.6816H125.679C126.722 65.6816 127.516 65.8926 128.061 66.3145C128.611 66.7305 128.887 67.3486 128.887 68.1689C128.887 69.1768 128.477 69.9531 127.656 70.498C126.842 71.0488 125.679 71.3242 124.167 71.3242C122.972 71.3242 122.043 71.0928 121.381 70.6299C120.719 70.167 120.388 69.5225 120.388 68.6963C120.388 68.0518 120.587 67.5098 120.985 67.0703C121.39 66.6367 121.946 66.3408 122.655 66.1826C122.362 66.0537 122.131 65.875 121.961 65.6465C121.791 65.418 121.706 65.1602 121.706 64.873C121.706 64.2285 122.113 63.666 122.928 63.1855C122.371 62.957 121.938 62.5996 121.627 62.1133C121.316 61.6211 121.161 61.0586 121.161 60.4258C121.161 59.4648 121.463 58.6973 122.066 58.123C122.676 57.5488 123.496 57.2617 124.527 57.2617C125.16 57.2617 125.646 57.3232 125.986 57.4463H129.045V58.0527L127.067 58.1758C127.595 58.832 127.858 59.5527 127.858 60.3379C127.858 61.2637 127.554 62.0107 126.944 62.5791C126.335 63.1475 125.512 63.4316 124.475 63.4316C124.041 63.4316 123.736 63.4141 123.561 63.3789C122.852 63.748 122.497 64.2227 122.497 64.8027C122.497 65.1074 122.614 65.3301 122.849 65.4707C123.083 65.6113 123.47 65.6816 124.009 65.6816ZM126.979 60.3643C126.979 59.5791 126.763 58.9814 126.329 58.5713C125.901 58.1553 125.298 57.9473 124.519 57.9473C123.739 57.9473 123.13 58.167 122.69 58.6064C122.257 59.0459 122.04 59.6436 122.04 60.3994C122.04 61.1553 122.263 61.7383 122.708 62.1484C123.159 62.5527 123.771 62.7549 124.545 62.7549C125.318 62.7549 125.916 62.5527 126.338 62.1484C126.766 61.7441 126.979 61.1494 126.979 60.3643ZM125.503 66.5518H123.938C122.187 66.5518 121.311 67.2402 121.311 68.6172C121.311 69.9297 122.286 70.5859 124.237 70.5859C126.745 70.5859 127.999 69.7861 127.999 68.1865C127.999 67.6123 127.803 67.1963 127.41 66.9385C127.018 66.6807 126.382 66.5518 125.503 66.5518ZM132.007 64.9082L132.112 65.0928C131.673 66.6396 131.163 68.0488 130.583 69.3203H130.012C130.463 67.6973 130.785 66.2266 130.979 64.9082H132.007ZM139.776 54.1504H143.248C145.299 54.1504 146.857 54.6865 147.924 55.7588C148.996 56.8311 149.532 58.4219 149.532 60.5312C149.532 62.6348 148.967 64.2402 147.836 65.3477C146.711 66.4492 145.05 67 142.853 67H139.776V54.1504ZM140.673 54.9414V66.209H142.8C146.638 66.209 148.557 64.3018 148.557 60.4873C148.557 58.6533 148.088 57.2705 147.15 56.3389C146.219 55.4072 144.848 54.9414 143.037 54.9414H140.673ZM156.124 67.1758C154.741 67.1758 153.657 66.748 152.872 65.8926C152.099 65.0371 151.712 63.8447 151.712 62.3154C151.712 60.7861 152.084 59.5615 152.828 58.6416C153.578 57.7217 154.592 57.2617 155.869 57.2617C156.994 57.2617 157.882 57.6572 158.532 58.4482C159.183 59.2334 159.508 60.2969 159.508 61.6387V62.3418H152.626C152.638 63.6543 152.942 64.6562 153.54 65.3477C154.144 66.0391 155.005 66.3848 156.124 66.3848C156.681 66.3848 157.17 66.3438 157.592 66.2617C158.014 66.1797 158.526 66.0186 159.13 65.7783V66.5693C158.597 66.8037 158.099 66.9619 157.636 67.0439C157.179 67.1318 156.675 67.1758 156.124 67.1758ZM158.585 61.5684C158.585 60.4609 158.342 59.5967 157.855 58.9756C157.369 58.3486 156.684 58.0352 155.799 58.0352C154.92 58.0352 154.202 58.3398 153.646 58.9492C153.095 59.5586 152.772 60.4316 152.679 61.5684H158.585ZM161.283 65.6465C162.221 66.127 163.193 66.3672 164.201 66.3672C165.209 66.3672 165.962 66.2148 166.46 65.9102C166.958 65.5996 167.207 65.1895 167.207 64.6797C167.207 64.1699 167.011 63.7539 166.618 63.4316C166.226 63.1035 165.572 62.7783 164.658 62.4561C163.744 62.1279 163.088 61.835 162.689 61.5771C162.291 61.3193 161.995 61.0322 161.802 60.7158C161.614 60.3994 161.521 60.0215 161.521 59.582C161.521 58.873 161.819 58.3076 162.417 57.8857C163.026 57.4697 163.855 57.2617 164.904 57.2617C165.959 57.2617 166.949 57.4551 167.875 57.8418L167.55 58.6328C166.589 58.2461 165.719 58.0527 164.939 58.0527C164.16 58.0527 163.542 58.1816 163.085 58.4395C162.628 58.6973 162.399 59.0664 162.399 59.5469C162.399 60.0215 162.575 60.4082 162.927 60.707C163.284 61.0059 163.935 61.3252 164.878 61.665C165.821 61.999 166.492 62.2949 166.891 62.5527C167.676 63.0449 168.068 63.71 168.068 64.5479C168.068 65.3799 167.743 66.0273 167.093 66.4902C166.442 66.9473 165.496 67.1758 164.254 67.1758C163.018 67.1758 162.027 66.9795 161.283 66.5869V65.6465ZM170.96 53.9482C171.142 53.9482 171.282 54.0215 171.382 54.168C171.487 54.3145 171.54 54.5225 171.54 54.792C171.54 55.0557 171.487 55.2637 171.382 55.416C171.282 55.5684 171.142 55.6445 170.96 55.6445C170.591 55.6445 170.406 55.3633 170.406 54.8008C170.406 54.2324 170.591 53.9482 170.96 53.9482ZM171.399 67H170.529V57.4463H171.399V67ZM177.024 65.6816H178.694C179.737 65.6816 180.531 65.8926 181.076 66.3145C181.627 66.7305 181.902 67.3486 181.902 68.1689C181.902 69.1768 181.492 69.9531 180.672 70.498C179.857 71.0488 178.694 71.3242 177.183 71.3242C175.987 71.3242 175.059 71.0928 174.396 70.6299C173.734 70.167 173.403 69.5225 173.403 68.6963C173.403 68.0518 173.603 67.5098 174.001 67.0703C174.405 66.6367 174.962 66.3408 175.671 66.1826C175.378 66.0537 175.146 65.875 174.977 65.6465C174.807 65.418 174.722 65.1602 174.722 64.873C174.722 64.2285 175.129 63.666 175.943 63.1855C175.387 62.957 174.953 62.5996 174.643 62.1133C174.332 61.6211 174.177 61.0586 174.177 60.4258C174.177 59.4648 174.479 58.6973 175.082 58.123C175.691 57.5488 176.512 57.2617 177.543 57.2617C178.176 57.2617 178.662 57.3232 179.002 57.4463H182.061V58.0527L180.083 58.1758C180.61 58.832 180.874 59.5527 180.874 60.3379C180.874 61.2637 180.569 62.0107 179.96 62.5791C179.351 63.1475 178.527 63.4316 177.49 63.4316C177.057 63.4316 176.752 63.4141 176.576 63.3789C175.867 63.748 175.513 64.2227 175.513 64.8027C175.513 65.1074 175.63 65.3301 175.864 65.4707C176.099 65.6113 176.485 65.6816 177.024 65.6816ZM179.995 60.3643C179.995 59.5791 179.778 58.9814 179.345 58.5713C178.917 58.1553 178.313 57.9473 177.534 57.9473C176.755 57.9473 176.146 58.167 175.706 58.6064C175.272 59.0459 175.056 59.6436 175.056 60.3994C175.056 61.1553 175.278 61.7383 175.724 62.1484C176.175 62.5527 176.787 62.7549 177.561 62.7549C178.334 62.7549 178.932 62.5527 179.354 62.1484C179.781 61.7441 179.995 61.1494 179.995 60.3643ZM178.519 66.5518H176.954C175.202 66.5518 174.326 67.2402 174.326 68.6172C174.326 69.9297 175.302 70.5859 177.253 70.5859C179.761 70.5859 181.015 69.7861 181.015 68.1865C181.015 67.6123 180.818 67.1963 180.426 66.9385C180.033 66.6807 179.397 66.5518 178.519 66.5518ZM188.301 57.2617C190.469 57.2617 191.553 58.4248 191.553 60.751V67H190.691V60.8037C190.691 59.8486 190.489 59.1514 190.085 58.7119C189.687 58.2725 189.06 58.0527 188.204 58.0527C187.073 58.0527 186.238 58.3398 185.699 58.9141C185.166 59.4883 184.899 60.4258 184.899 61.7266V67H184.029V57.4463H184.768L184.935 58.7559H184.987C185.614 57.7598 186.719 57.2617 188.301 57.2617ZM201.203 59.1514C200.441 58.3369 200.061 57.5137 200.061 56.6816C200.061 55.8438 200.339 55.1787 200.896 54.6865C201.458 54.1943 202.202 53.9482 203.128 53.9482C204.054 53.9482 204.78 54.1855 205.308 54.6602C205.841 55.1348 206.107 55.791 206.107 56.6289C206.107 57.2441 205.902 57.8125 205.492 58.334C205.064 58.8496 204.323 59.415 203.269 60.0303L207.241 64.0469C207.938 63.2207 208.463 62.1719 208.814 60.9004H209.658C209.289 62.3359 208.677 63.584 207.821 64.6445L210.159 67H208.973L207.276 65.2686C206.737 65.8018 206.257 66.1885 205.835 66.4287C204.979 66.9268 203.942 67.1758 202.724 67.1758C201.505 67.1758 200.547 66.874 199.85 66.2705C199.152 65.6611 198.804 64.8174 198.804 63.7393C198.804 62.9307 199.018 62.2451 199.445 61.6826C199.873 61.1143 200.679 60.5107 201.862 59.8721L201.203 59.1514ZM205.176 56.6025C205.176 56.0518 204.994 55.6035 204.631 55.2578C204.268 54.9121 203.764 54.7393 203.119 54.7393C202.475 54.7393 201.959 54.9092 201.572 55.249C201.191 55.5889 201.001 56.0605 201.001 56.6641C201.001 57.127 201.118 57.5576 201.353 57.9561C201.587 58.3486 202.032 58.8555 202.688 59.4766C203.626 58.9727 204.273 58.5068 204.631 58.0791C204.994 57.6455 205.176 57.1533 205.176 56.6025ZM200.729 61.5332C200.055 62.0957 199.718 62.8076 199.718 63.6689C199.718 64.5303 199.987 65.1982 200.526 65.6729C201.065 66.1475 201.824 66.3848 202.803 66.3848C203.559 66.3848 204.244 66.2588 204.859 66.0068C205.48 65.7549 206.096 65.3242 206.705 64.7148L202.46 60.4521C201.675 60.8682 201.098 61.2285 200.729 61.5332ZM217.05 54.1504H220.521C222.572 54.1504 224.131 54.6865 225.197 55.7588C226.27 56.8311 226.806 58.4219 226.806 60.5312C226.806 62.6348 226.24 64.2402 225.109 65.3477C223.984 66.4492 222.323 67 220.126 67H217.05V54.1504ZM217.946 54.9414V66.209H220.073C223.911 66.209 225.83 64.3018 225.83 60.4873C225.83 58.6533 225.361 57.2705 224.424 56.3389C223.492 55.4072 222.121 54.9414 220.311 54.9414H217.946ZM233.397 67.1758C232.015 67.1758 230.931 66.748 230.146 65.8926C229.372 65.0371 228.985 63.8447 228.985 62.3154C228.985 60.7861 229.357 59.5615 230.102 58.6416C230.852 57.7217 231.865 57.2617 233.143 57.2617C234.268 57.2617 235.155 57.6572 235.806 58.4482C236.456 59.2334 236.781 60.2969 236.781 61.6387V62.3418H229.899C229.911 63.6543 230.216 64.6562 230.813 65.3477C231.417 66.0391 232.278 66.3848 233.397 66.3848C233.954 66.3848 234.443 66.3438 234.865 66.2617C235.287 66.1797 235.8 66.0186 236.403 65.7783V66.5693C235.87 66.8037 235.372 66.9619 234.909 67.0439C234.452 67.1318 233.948 67.1758 233.397 67.1758ZM235.858 61.5684C235.858 60.4609 235.615 59.5967 235.129 58.9756C234.643 58.3486 233.957 58.0352 233.072 58.0352C232.193 58.0352 231.476 58.3398 230.919 58.9492C230.368 59.5586 230.046 60.4316 229.952 61.5684H235.858ZM242.389 67H241.51L237.818 57.4463H238.715L241.185 63.9414C241.519 64.7969 241.765 65.5264 241.923 66.1299H241.976C242.204 65.3447 242.45 64.6094 242.714 63.9238L245.184 57.4463H246.08L242.389 67ZM251.538 67.1758C250.155 67.1758 249.071 66.748 248.286 65.8926C247.513 65.0371 247.126 63.8447 247.126 62.3154C247.126 60.7861 247.498 59.5615 248.242 58.6416C248.992 57.7217 250.006 57.2617 251.283 57.2617C252.408 57.2617 253.296 57.6572 253.946 58.4482C254.597 59.2334 254.922 60.2969 254.922 61.6387V62.3418H248.04C248.052 63.6543 248.356 64.6562 248.954 65.3477C249.558 66.0391 250.419 66.3848 251.538 66.3848C252.095 66.3848 252.584 66.3438 253.006 66.2617C253.428 66.1797 253.94 66.0186 254.544 65.7783V66.5693C254.011 66.8037 253.513 66.9619 253.05 67.0439C252.593 67.1318 252.089 67.1758 251.538 67.1758ZM253.999 61.5684C253.999 60.4609 253.756 59.5967 253.27 58.9756C252.783 58.3486 252.098 58.0352 251.213 58.0352C250.334 58.0352 249.616 58.3398 249.06 58.9492C248.509 59.5586 248.187 60.4316 248.093 61.5684H253.999ZM258.429 67H257.559V53.3242H258.429V67ZM261.074 62.21C261.074 60.6572 261.452 59.4443 262.208 58.5713C262.964 57.6982 263.998 57.2617 265.311 57.2617C266.629 57.2617 267.66 57.7041 268.404 58.5889C269.154 59.4736 269.529 60.6895 269.529 62.2363C269.529 63.7773 269.151 64.9873 268.396 65.8662C267.64 66.7393 266.597 67.1758 265.267 67.1758C265.237 67.1758 265.205 67.1758 265.17 67.1758C263.957 67.1758 262.97 66.7275 262.208 65.8311C261.452 64.9346 261.074 63.7715 261.074 62.3418C261.074 62.2949 261.074 62.251 261.074 62.21ZM265.302 66.3848C266.356 66.3848 267.171 66.0186 267.745 65.2861C268.319 64.5537 268.606 63.5283 268.606 62.21C268.606 60.8857 268.313 59.8633 267.728 59.1426C267.147 58.416 266.33 58.0527 265.275 58.0527C264.227 58.0527 263.415 58.416 262.841 59.1426C262.272 59.8633 261.988 60.8828 261.988 62.2012C261.988 63.5137 262.275 64.542 262.85 65.2861C263.43 66.0186 264.247 66.3848 265.302 66.3848ZM276.288 57.2617C277.577 57.2617 278.559 57.6865 279.232 58.5361C279.912 59.3799 280.252 60.5986 280.252 62.1924C280.252 63.7803 279.895 65.0078 279.18 65.875C278.471 66.7422 277.501 67.1758 276.271 67.1758C274.806 67.1758 273.733 66.625 273.054 65.5234H272.992L273.019 66.2617C273.042 66.6426 273.054 67.1172 273.054 67.6855V71.3242H272.184V57.4463H272.922L273.089 58.8086H273.142C273.804 57.7773 274.853 57.2617 276.288 57.2617ZM273.054 61.9639V62.2451C273.054 63.7393 273.303 64.8057 273.801 65.4443C274.299 66.083 275.116 66.4023 276.253 66.4023C277.231 66.4023 277.987 66.0391 278.521 65.3125C279.054 64.5859 279.32 63.5693 279.32 62.2627C279.32 59.4561 278.31 58.0527 276.288 58.0527C275.181 58.0527 274.363 58.3604 273.836 58.9756C273.314 59.585 273.054 60.5811 273.054 61.9639ZM292.574 57.2617C293.629 57.2617 294.414 57.5459 294.93 58.1143C295.445 58.6768 295.703 59.5557 295.703 60.751V67H294.842V60.7334C294.842 59.8076 294.66 59.1309 294.297 58.7031C293.939 58.2695 293.383 58.0527 292.627 58.0527C291.643 58.0527 290.916 58.3223 290.447 58.8613C289.984 59.4004 289.753 60.2471 289.753 61.4014V67H288.865V60.4697C288.865 58.8584 288.127 58.0527 286.65 58.0527C285.648 58.0527 284.919 58.3457 284.462 58.9316C284.005 59.5117 283.776 60.4434 283.776 61.7266V67H282.906V57.4463H283.627L283.812 58.7559H283.864C284.128 58.2871 284.5 57.9209 284.98 57.6572C285.467 57.3936 286.006 57.2617 286.598 57.2617C288.104 57.2617 289.07 57.8271 289.498 58.958H289.533C289.844 58.4131 290.26 57.9941 290.781 57.7012C291.309 57.4082 291.906 57.2617 292.574 57.2617ZM302.655 67.1758C301.272 67.1758 300.188 66.748 299.403 65.8926C298.63 65.0371 298.243 63.8447 298.243 62.3154C298.243 60.7861 298.615 59.5615 299.359 58.6416C300.109 57.7217 301.123 57.2617 302.4 57.2617C303.525 57.2617 304.413 57.6572 305.063 58.4482C305.714 59.2334 306.039 60.2969 306.039 61.6387V62.3418H299.157C299.169 63.6543 299.474 64.6562 300.071 65.3477C300.675 66.0391 301.536 66.3848 302.655 66.3848C303.212 66.3848 303.701 66.3438 304.123 66.2617C304.545 66.1797 305.058 66.0186 305.661 65.7783V66.5693C305.128 66.8037 304.63 66.9619 304.167 67.0439C303.71 67.1318 303.206 67.1758 302.655 67.1758ZM305.116 61.5684C305.116 60.4609 304.873 59.5967 304.387 58.9756C303.9 58.3486 303.215 58.0352 302.33 58.0352C301.451 58.0352 300.733 58.3398 300.177 58.9492C299.626 59.5586 299.304 60.4316 299.21 61.5684H305.116ZM312.947 57.2617C315.115 57.2617 316.199 58.4248 316.199 60.751V67H315.338V60.8037C315.338 59.8486 315.136 59.1514 314.731 58.7119C314.333 58.2725 313.706 58.0527 312.851 58.0527C311.72 58.0527 310.885 58.3398 310.346 58.9141C309.812 59.4883 309.546 60.4258 309.546 61.7266V67H308.676V57.4463H309.414L309.581 58.7559H309.634C310.261 57.7598 311.365 57.2617 312.947 57.2617ZM320.216 57.4463H323.02V58.2021H320.216V64.249C320.216 64.9814 320.345 65.5234 320.603 65.875C320.86 66.2266 321.268 66.4023 321.824 66.4023C322.381 66.4023 322.858 66.3555 323.257 66.2617V66.9648C322.835 67.1055 322.349 67.1758 321.798 67.1758C320.954 67.1758 320.33 66.9502 319.926 66.499C319.527 66.0479 319.328 65.3389 319.328 64.3721V58.2021H317.913V57.6924L319.328 57.2969L319.768 55.1348H320.216V57.4463Z" fill="white"/>
<path d="M207.699 33.1641C207.699 34.0195 207.523 34.8223 207.172 35.5723C206.832 36.3223 206.369 36.9785 205.783 37.541C205.209 38.1035 204.535 38.5488 203.762 38.877C203 39.1934 202.191 39.3516 201.336 39.3516H199.525C198.67 39.3516 197.855 39.1934 197.082 38.877C196.32 38.5488 195.646 38.1035 195.061 37.541C194.486 36.9785 194.023 36.3223 193.672 35.5723C193.332 34.8223 193.162 34.0195 193.162 33.1641V32.1621L195.43 31.793V33.1641C195.43 33.7266 195.541 34.2539 195.764 34.7461C195.998 35.2266 196.309 35.6543 196.695 36.0293C197.082 36.3926 197.527 36.6797 198.031 36.8906C198.547 37.1016 199.086 37.207 199.648 37.207H201.23C201.793 37.207 202.326 37.1016 202.83 36.8906C203.334 36.6797 203.779 36.3926 204.166 36.0293C204.553 35.6543 204.857 35.2266 205.08 34.7461C205.314 34.2539 205.432 33.7266 205.432 33.1641V32.4082C205.432 31.541 205.262 30.8203 204.922 30.2461C204.582 29.6719 204.131 29.1855 203.568 28.7871C203.006 28.377 202.367 28.0312 201.652 27.75C200.949 27.4688 200.223 27.1875 199.473 26.9062C198.723 26.625 197.99 26.3145 197.275 25.9746C196.572 25.6348 195.939 25.2129 195.377 24.709C194.814 24.1934 194.363 23.5664 194.023 22.8281C193.684 22.0898 193.514 21.1816 193.514 20.1035V19.6289C193.514 18.7734 193.672 17.9707 193.988 17.2207C194.316 16.4707 194.762 15.8145 195.324 15.252C195.887 14.6895 196.543 14.25 197.293 13.9336C198.055 13.6055 198.863 13.4414 199.719 13.4414H201.336C202.191 13.4414 202.994 13.6055 203.744 13.9336C204.494 14.25 205.15 14.6895 205.713 15.252C206.275 15.8145 206.715 16.4707 207.031 17.2207C207.359 17.9707 207.523 18.7734 207.523 19.6289V20.2793L205.256 20.6484V19.6289C205.256 19.0664 205.15 18.5449 204.939 18.0645C204.729 17.5723 204.441 17.1445 204.078 16.7812C203.715 16.418 203.287 16.1309 202.795 15.9199C202.314 15.709 201.793 15.6035 201.23 15.6035H199.824C199.262 15.6035 198.734 15.709 198.242 15.9199C197.762 16.1309 197.334 16.418 196.959 16.7812C196.596 17.1445 196.309 17.5723 196.098 18.0645C195.887 18.5449 195.781 19.0664 195.781 19.6289V20.1035C195.781 20.9121 195.951 21.5918 196.291 22.1426C196.631 22.6934 197.082 23.168 197.645 23.5664C198.207 23.9531 198.84 24.293 199.543 24.5859C200.258 24.8672 200.99 25.1602 201.74 25.4648C202.49 25.7578 203.217 26.0859 203.92 26.4492C204.635 26.8008 205.273 27.2402 205.836 27.7676C206.398 28.2832 206.85 28.916 207.189 29.666C207.529 30.416 207.699 31.3301 207.699 32.4082V33.1641ZM218.782 39C218.126 39 217.505 38.877 216.919 38.6309C216.344 38.3848 215.84 38.0449 215.407 37.6113C214.985 37.1777 214.645 36.6738 214.387 36.0996C214.141 35.5254 214.018 34.9102 214.018 34.2539V23.0566H210.784V21H214.018V16.6758L216.18 16.3242V21H220.751V23.0566H216.18V34.3594C216.18 34.7227 216.245 35.0625 216.374 35.3789C216.514 35.6836 216.702 35.9531 216.936 36.1875C217.171 36.4219 217.446 36.6094 217.762 36.75C218.079 36.8789 218.419 36.9434 218.782 36.9434H220.751V39H218.782ZM236.404 39L235.208 37.1719C234.716 37.8398 234.101 38.373 233.363 38.7715C232.624 39.1582 231.816 39.3516 230.937 39.3516H230.392C229.665 39.3516 228.98 39.2168 228.335 38.9473C227.691 38.666 227.128 38.2852 226.648 37.8047C226.167 37.3242 225.786 36.7617 225.505 36.1172C225.236 35.4727 225.101 34.7871 225.101 34.0605V21H227.263V34.1836C227.263 34.6172 227.345 35.0273 227.509 35.4141C227.673 35.7891 227.896 36.1172 228.177 36.3984C228.458 36.6797 228.786 36.9023 229.161 37.0664C229.548 37.2305 229.958 37.3125 230.392 37.3125H231.833C232.267 37.3125 232.671 37.2305 233.046 37.0664C233.433 36.9023 233.767 36.6797 234.048 36.3984C234.329 36.1172 234.552 35.7891 234.716 35.4141C234.88 35.0273 234.962 34.6172 234.962 34.1836V21H237.124V39H236.404ZM253.111 39L251.916 37.1719C251.424 37.8398 250.809 38.373 250.07 38.7715C249.332 39.1582 248.523 39.3516 247.644 39.3516H247.1C246.373 39.3516 245.687 39.2168 245.043 38.9473C244.398 38.666 243.836 38.2852 243.355 37.8047C242.875 37.3242 242.494 36.7617 242.213 36.1172C241.943 35.4727 241.809 34.7871 241.809 34.0605V25.9395C241.809 25.2129 241.943 24.5273 242.213 23.8828C242.494 23.2383 242.875 22.6758 243.355 22.1953C243.836 21.7148 244.398 21.3398 245.043 21.0703C245.687 20.7891 246.373 20.6484 247.1 20.6484H247.644C248.453 20.6484 249.203 20.8125 249.894 21.1406C250.586 21.4688 251.178 21.9258 251.67 22.5117V13.793H253.832V39H253.111ZM251.67 25.8164C251.67 25.3828 251.588 24.9785 251.424 24.6035C251.26 24.2168 251.037 23.8828 250.756 23.6016C250.475 23.3203 250.141 23.0977 249.754 22.9336C249.379 22.7695 248.975 22.6875 248.541 22.6875H247.1C246.666 22.6875 246.256 22.7695 245.869 22.9336C245.494 23.0977 245.166 23.3203 244.885 23.6016C244.603 23.8828 244.381 24.2168 244.217 24.6035C244.053 24.9785 243.971 25.3828 243.971 25.8164V34.1836C243.971 34.6172 244.053 35.0273 244.217 35.4141C244.381 35.7891 244.603 36.1172 244.885 36.3984C245.166 36.6797 245.494 36.9023 245.869 37.0664C246.256 37.2305 246.666 37.3125 247.1 37.3125H248.541C248.975 37.3125 249.379 37.2305 249.754 37.0664C250.141 36.9023 250.475 36.6797 250.756 36.3984C251.037 36.1172 251.26 35.7891 251.424 35.4141C251.588 35.0273 251.67 34.6172 251.67 34.1836V25.8164ZM259.061 16.6758V13.793H261.575V16.6758H259.061ZM259.237 39V21H261.399V39H259.237ZM278.845 34.0605C278.845 34.7871 278.704 35.4727 278.423 36.1172C278.154 36.7617 277.779 37.3242 277.298 37.8047C276.818 38.2852 276.255 38.666 275.611 38.9473C274.966 39.2168 274.28 39.3516 273.554 39.3516H272.113C271.386 39.3516 270.7 39.2168 270.056 38.9473C269.411 38.666 268.849 38.2852 268.368 37.8047C267.888 37.3242 267.507 36.7617 267.226 36.1172C266.956 35.4727 266.821 34.7871 266.821 34.0605V25.9395C266.821 25.2129 266.956 24.5273 267.226 23.8828C267.507 23.2383 267.888 22.6758 268.368 22.1953C268.849 21.7148 269.411 21.3398 270.056 21.0703C270.7 20.7891 271.386 20.6484 272.113 20.6484H273.554C274.28 20.6484 274.966 20.7891 275.611 21.0703C276.255 21.3398 276.818 21.7148 277.298 22.1953C277.779 22.6758 278.154 23.2383 278.423 23.8828C278.704 24.5273 278.845 25.2129 278.845 25.9395V34.0605ZM276.683 25.8164C276.683 25.3828 276.601 24.9785 276.437 24.6035C276.273 24.2168 276.05 23.8828 275.769 23.6016C275.488 23.3203 275.154 23.0977 274.767 22.9336C274.392 22.7695 273.988 22.6875 273.554 22.6875H272.113C271.679 22.6875 271.269 22.7695 270.882 22.9336C270.507 23.0977 270.179 23.3203 269.898 23.6016C269.616 23.8828 269.394 24.2168 269.23 24.6035C269.066 24.9785 268.984 25.3828 268.984 25.8164V34.1836C268.984 34.6172 269.066 35.0273 269.23 35.4141C269.394 35.7891 269.616 36.1172 269.898 36.3984C270.179 36.6797 270.507 36.9023 270.882 37.0664C271.269 37.2305 271.679 37.3125 272.113 37.3125H273.554C273.988 37.3125 274.392 37.2305 274.767 37.0664C275.154 36.9023 275.488 36.6797 275.769 36.3984C276.05 36.1172 276.273 35.7891 276.437 35.4141C276.601 35.0273 276.683 34.6172 276.683 34.1836V25.8164ZM295.904 34.4297C295.904 35.1562 295.758 35.8242 295.465 36.4336C295.172 37.0312 294.773 37.5469 294.269 37.9805C293.765 38.4141 293.18 38.7539 292.512 39C291.855 39.2344 291.164 39.3516 290.437 39.3516H288.996C288.269 39.3516 287.572 39.2168 286.904 38.9473C286.248 38.666 285.668 38.2852 285.164 37.8047C284.672 37.3242 284.273 36.7617 283.969 36.1172C283.676 35.4727 283.529 34.7871 283.529 34.0605V33.3398L285.691 32.9883V34.1836C285.691 34.6172 285.779 35.0273 285.955 35.4141C286.142 35.7891 286.389 36.1172 286.693 36.3984C286.998 36.6797 287.349 36.9023 287.748 37.0664C288.146 37.2305 288.562 37.3125 288.996 37.3125H290.437C290.871 37.3125 291.287 37.248 291.685 37.1191C292.084 36.9902 292.435 36.8086 292.74 36.5742C293.056 36.3281 293.303 36.0352 293.478 35.6953C293.666 35.3555 293.76 34.9688 293.76 34.5352C293.76 33.8906 293.619 33.3633 293.338 32.9531C293.056 32.543 292.681 32.2031 292.213 31.9336C291.756 31.6523 291.228 31.4238 290.631 31.248C290.045 31.0605 289.441 30.8789 288.82 30.7031C288.199 30.5156 287.59 30.3047 286.992 30.0703C286.406 29.8359 285.879 29.5312 285.41 29.1562C284.953 28.7695 284.584 28.2891 284.303 27.7148C284.021 27.1406 283.881 26.4258 283.881 25.5703C283.881 24.8438 284.021 24.1816 284.303 23.584C284.584 22.9746 284.965 22.4531 285.445 22.0195C285.926 21.5859 286.482 21.252 287.115 21.0176C287.76 20.7715 288.445 20.6484 289.172 20.6484H290.437C291.164 20.6484 291.849 20.7891 292.494 21.0703C293.139 21.3398 293.701 21.7148 294.181 22.1953C294.662 22.6758 295.037 23.2383 295.306 23.8828C295.588 24.5273 295.728 25.2129 295.728 25.9395V26.0098L293.566 26.3613V25.8164C293.566 25.3828 293.484 24.9785 293.32 24.6035C293.156 24.2168 292.933 23.8828 292.652 23.6016C292.371 23.3203 292.037 23.0977 291.65 22.9336C291.275 22.7695 290.871 22.6875 290.437 22.6875H289.172C288.738 22.6875 288.328 22.752 287.941 22.8809C287.566 23.0098 287.238 23.1973 286.957 23.4434C286.676 23.6777 286.453 23.9648 286.289 24.3047C286.125 24.6445 286.043 25.0312 286.043 25.4648C286.043 26.0859 286.183 26.5957 286.465 26.9941C286.746 27.3809 287.115 27.709 287.572 27.9785C288.041 28.248 288.568 28.4766 289.154 28.6641C289.752 28.8398 290.355 29.0273 290.965 29.2266C291.586 29.4141 292.189 29.6309 292.775 29.877C293.373 30.123 293.9 30.4395 294.357 30.8262C294.826 31.2129 295.201 31.6992 295.482 32.2852C295.764 32.8594 295.904 33.5742 295.904 34.4297Z" fill="white"/>
<path d="M19.446 40H2.73V17.614C2.73 15.542 3.388 13.876 4.704 12.616C5.6 11.776 6.608 11.23 7.728 10.978C8.848 10.726 10.22 10.6 11.844 10.6H19.446V14.296H11.298C8.218 14.296 6.678 15.584 6.678 18.16V22.948H16.38V26.644H6.678V36.304H19.446V40ZM24.0581 19.84H31.3241C34.4321 19.84 36.6581 20.302 38.0021 21.226C39.2061 22.038 39.9621 23.018 40.2701 24.166C40.6061 25.286 40.7741 26.77 40.7741 28.618V40H37.0781V28.66C37.0781 28.156 37.0641 27.736 37.0361 27.4C37.0081 27.036 36.9101 26.588 36.7421 26.056C36.5741 25.496 36.3361 25.048 36.0281 24.712C35.7201 24.348 35.2721 24.04 34.6841 23.788C34.0961 23.508 33.3821 23.368 32.5421 23.368H27.7541V40H24.0581V19.84ZM46.0425 19.84H53.3085C56.4165 19.84 58.6425 20.302 59.9865 21.226C61.1905 22.038 61.9465 23.018 62.2545 24.166C62.5905 25.286 62.7585 26.77 62.7585 28.618V40H59.0625V28.66C59.0625 28.156 59.0485 27.736 59.0205 27.4C58.9925 27.036 58.8945 26.588 58.7265 26.056C58.5585 25.496 58.3205 25.048 58.0125 24.712C57.7045 24.348 57.2565 24.04 56.6685 23.788C56.0805 23.508 55.3665 23.368 54.5265 23.368H49.7385V40H46.0425V19.84ZM77.6869 19.42C82.4469 19.616 84.8269 21.59 84.8269 25.342C84.8269 30.018 81.7609 32.356 75.6289 32.356H73.9069V29.122H75.9229C77.7989 29.122 79.1009 28.842 79.8289 28.282C80.5569 27.694 80.9209 26.728 80.9209 25.384C80.9209 24.516 80.5989 23.872 79.9549 23.452C79.3109 23.004 78.4849 22.78 77.4769 22.78C75.4889 22.78 73.9209 23.48 72.7729 24.88C71.6529 26.28 71.0929 27.96 71.0929 29.92C71.0929 31.992 71.6949 33.672 72.8989 34.96C74.1309 36.248 75.7269 36.892 77.6869 36.892C79.4509 36.892 80.8929 36.458 82.0129 35.59L84.5329 38.068C82.6009 39.636 80.3189 40.42 77.6869 40.42C74.4949 40.42 71.9469 39.482 70.0429 37.606C68.1389 35.73 67.1869 33.308 67.1869 30.34C67.1869 27.036 68.1249 24.362 70.0009 22.318C71.8769 20.274 74.4389 19.308 77.6869 19.42ZM100.236 28.156V31.936C99.172 31.124 97.87 30.718 96.33 30.718C95.014 30.718 93.992 30.984 93.264 31.516C92.536 32.02 92.172 32.748 92.172 33.7C92.172 35.548 93.544 36.472 96.288 36.472H101.832V28.45C101.832 25.062 100.18 23.368 96.876 23.368H90.156V19.84H97.086C99.802 19.84 101.888 20.512 103.344 21.856C104.8 23.2 105.528 25.132 105.528 27.652V40H96.162C93.782 40 91.892 39.468 90.492 38.404C89.092 37.34 88.392 35.786 88.392 33.742C88.392 31.698 89.134 30.144 90.618 29.08C92.102 28.016 93.964 27.484 96.204 27.484C97.464 27.484 98.808 27.708 100.236 28.156ZM119.511 40C116.767 40 114.415 39.076 112.455 37.228C110.495 35.38 109.515 33.014 109.515 30.13C109.515 27.218 110.495 24.782 112.455 22.822C114.443 20.834 116.893 19.84 119.805 19.84H129.675V39.412C129.675 40.672 129.507 41.806 129.171 42.814C128.863 43.822 128.415 44.676 127.827 45.376C127.239 46.076 126.707 46.622 126.231 47.014C125.755 47.406 125.181 47.812 124.509 48.232C122.773 49.128 120.659 49.576 118.167 49.576H113.463V46.048H117.789C120.253 46.048 122.003 45.74 123.039 45.124C124.943 44.06 125.895 42.296 125.895 39.832V23.368H119.805C117.817 23.368 116.235 23.984 115.059 25.216C113.883 26.448 113.295 28.086 113.295 30.13C113.295 32.09 113.897 33.644 115.101 34.792C116.333 35.912 117.803 36.472 119.511 36.472C121.359 36.472 122.983 35.968 124.383 34.96V38.74C122.871 39.58 121.247 40 119.511 40ZM137.228 22.486C139.188 20.442 141.638 19.42 144.578 19.42C146.006 19.42 147.336 19.7 148.568 20.26C149.828 20.792 150.92 21.534 151.844 22.486C152.796 23.438 153.538 24.558 154.07 25.846C154.602 27.106 154.868 28.464 154.868 29.92C154.868 31.376 154.602 32.748 154.07 34.036C153.566 35.296 152.852 36.402 151.928 37.354C151.004 38.306 149.912 39.062 148.652 39.622C147.392 40.154 146.034 40.42 144.578 40.42C143.094 40.42 141.722 40.154 140.462 39.622C139.23 39.062 138.152 38.306 137.228 37.354C136.304 36.402 135.576 35.296 135.044 34.036C134.54 32.748 134.288 31.376 134.288 29.92C134.288 26.952 135.268 24.474 137.228 22.486ZM144.578 22.948C142.618 22.948 141.036 23.592 139.832 24.88C138.656 26.168 138.068 27.848 138.068 29.92C138.068 31.992 138.656 33.672 139.832 34.96C141.036 36.248 142.618 36.892 144.578 36.892C146.566 36.892 148.148 36.248 149.324 34.96C150.5 33.644 151.088 31.964 151.088 29.92C151.088 27.876 150.5 26.21 149.324 24.922C148.148 23.606 146.566 22.948 144.578 22.948ZM159.492 19.84H166.758C169.866 19.84 172.092 20.302 173.436 21.226C174.64 22.038 175.396 23.018 175.704 24.166C176.04 25.286 176.208 26.77 176.208 28.618V40H172.512V28.66C172.512 28.156 172.498 27.736 172.47 27.4C172.442 27.036 172.344 26.588 172.176 26.056C172.008 25.496 171.77 25.048 171.462 24.712C171.154 24.348 170.706 24.04 170.118 23.788C169.53 23.508 168.816 23.368 167.976 23.368H163.188V40H159.492V19.84Z" fill="white"/>
</svg>
