<svg width="433" height="90" viewBox="0 0 433 90" fill="none" xmlns="http://www.w3.org/2000/svg">
<path d="M17.1006 11.7508L45 1.59627L72.8994 11.7508L87.7443 37.463L82.5887 66.7019L59.845 85.7862H30.155L7.41127 66.7019L2.25567 37.463L17.1006 11.7508Z" fill="#6979A7" stroke="#334455" stroke-width="3"/>
<path d="M84 67.5L45 45V0L84 67.5Z" fill="#DDFED5"/>
<path d="M45 0V45L6 67.5L45 0Z" fill="#A3E1C2"/>
<path d="M6.00002 67.5L45 45L84 67.5H6.00002Z" fill="#79C39E"/>
<path d="M122.559 76H121.82L118.999 66.0859C118.759 65.2656 118.583 64.5977 118.472 64.082C118.366 64.6387 118.24 65.1982 118.094 65.7607C117.947 66.3174 116.995 69.7305 115.237 76H114.481L110.948 63.1504H111.889L114.139 71.4297C114.549 72.9941 114.801 74.043 114.895 74.5762C115.035 73.791 115.334 72.5811 115.791 70.9463L117.988 63.1504H118.981L121.557 72.0977C121.844 73.082 122.058 73.9141 122.198 74.5938C122.274 74.1719 122.371 73.7236 122.488 73.249C122.611 72.7744 123.517 69.4082 125.204 63.1504H126.109L122.559 76ZM132.024 76.1758C130.642 76.1758 129.558 75.748 128.772 74.8926C127.999 74.0371 127.612 72.8447 127.612 71.3154C127.612 69.7861 127.984 68.5615 128.729 67.6416C129.479 66.7217 130.492 66.2617 131.77 66.2617C132.895 66.2617 133.782 66.6572 134.433 67.4482C135.083 68.2334 135.408 69.2969 135.408 70.6387V71.3418H128.526C128.538 72.6543 128.843 73.6562 129.44 74.3477C130.044 75.0391 130.905 75.3848 132.024 75.3848C132.581 75.3848 133.07 75.3438 133.492 75.2617C133.914 75.1797 134.427 75.0186 135.03 74.7783V75.5693C134.497 75.8037 133.999 75.9619 133.536 76.0439C133.079 76.1318 132.575 76.1758 132.024 76.1758ZM134.485 70.5684C134.485 69.4609 134.242 68.5967 133.756 67.9756C133.27 67.3486 132.584 67.0352 131.699 67.0352C130.82 67.0352 130.103 67.3398 129.546 67.9492C128.995 68.5586 128.673 69.4316 128.579 70.5684H134.485ZM138.915 62.3242V65.7607C138.915 66.3291 138.903 66.8037 138.88 67.1846L138.854 67.9316H138.915C139.278 67.3574 139.715 66.9355 140.225 66.666C140.74 66.3965 141.358 66.2617 142.079 66.2617C143.409 66.2617 144.414 66.6807 145.094 67.5186C145.773 68.3564 146.113 69.5781 146.113 71.1836C146.113 72.7891 145.753 74.0225 145.032 74.8838C144.329 75.7451 143.333 76.1758 142.044 76.1758C141.364 76.1758 140.752 76.0352 140.207 75.7539C139.662 75.4727 139.231 75.0742 138.915 74.5586H138.836L138.59 76H138.045V62.3242H138.915ZM138.915 71.21V71.3594C138.915 72.8008 139.167 73.835 139.671 74.4619C140.181 75.0889 140.96 75.4023 142.009 75.4023C143.063 75.4023 143.854 75.042 144.382 74.3213C144.915 73.5947 145.182 72.5518 145.182 71.1924C145.182 68.4326 144.142 67.0527 142.062 67.0527C140.942 67.0527 140.137 67.375 139.645 68.0195C139.158 68.6641 138.915 69.7275 138.915 71.21ZM158.787 76.1758C156.982 76.1758 155.562 75.5928 154.524 74.4268C153.487 73.2549 152.969 71.626 152.969 69.54C152.969 69.499 152.969 69.4551 152.969 69.4082C152.969 68.1719 153.215 67.0615 153.707 66.0771C154.205 65.0869 154.914 64.3223 155.834 63.7832C156.76 63.2383 157.806 62.9658 158.972 62.9658C159.013 62.9658 159.051 62.9658 159.086 62.9658C160.328 62.9658 161.45 63.2002 162.452 63.6689L162.092 64.4775C161.143 64.0088 160.158 63.7744 159.139 63.7744C157.527 63.7744 156.259 64.29 155.333 65.3213C154.407 66.3525 153.944 67.7764 153.944 69.5928C153.944 71.4033 154.381 72.8154 155.254 73.8291C156.127 74.8428 157.375 75.3496 158.998 75.3496C160.064 75.3496 161.055 75.2119 161.969 74.9365V75.7275C161.119 76.0264 160.059 76.1758 158.787 76.1758ZM164.061 71.21C164.061 69.6572 164.438 68.4443 165.194 67.5713C165.95 66.6982 166.984 66.2617 168.297 66.2617C169.615 66.2617 170.646 66.7041 171.391 67.5889C172.141 68.4736 172.516 69.6895 172.516 71.2363C172.516 72.7773 172.138 73.9873 171.382 74.8662C170.626 75.7393 169.583 76.1758 168.253 76.1758C168.224 76.1758 168.191 76.1758 168.156 76.1758C166.943 76.1758 165.956 75.7275 165.194 74.8311C164.438 73.9346 164.061 72.7715 164.061 71.3418C164.061 71.2949 164.061 71.251 164.061 71.21ZM168.288 75.3848C169.343 75.3848 170.157 75.0186 170.731 74.2861C171.306 73.5537 171.593 72.5283 171.593 71.21C171.593 69.8857 171.3 68.8633 170.714 68.1426C170.134 67.416 169.316 67.0527 168.262 67.0527C167.213 67.0527 166.401 67.416 165.827 68.1426C165.259 68.8633 164.975 69.8828 164.975 71.2012C164.975 72.5137 165.262 73.542 165.836 74.2861C166.416 75.0186 167.233 75.3848 168.288 75.3848ZM179.441 66.2617C181.609 66.2617 182.693 67.4248 182.693 69.751V76H181.832V69.8037C181.832 68.8486 181.63 68.1514 181.226 67.7119C180.827 67.2725 180.2 67.0527 179.345 67.0527C178.214 67.0527 177.379 67.3398 176.84 67.9141C176.307 68.4883 176.04 69.4258 176.04 70.7266V76H175.17V66.4463H175.908L176.075 67.7559H176.128C176.755 66.7598 177.859 66.2617 179.441 66.2617ZM184.926 74.6465C185.863 75.127 186.836 75.3672 187.844 75.3672C188.852 75.3672 189.604 75.2148 190.103 74.9102C190.601 74.5996 190.85 74.1895 190.85 73.6797C190.85 73.1699 190.653 72.7539 190.261 72.4316C189.868 72.1035 189.215 71.7783 188.301 71.4561C187.387 71.1279 186.73 70.835 186.332 70.5771C185.934 70.3193 185.638 70.0322 185.444 69.7158C185.257 69.3994 185.163 69.0215 185.163 68.582C185.163 67.873 185.462 67.3076 186.06 66.8857C186.669 66.4697 187.498 66.2617 188.547 66.2617C189.602 66.2617 190.592 66.4551 191.518 66.8418L191.192 67.6328C190.231 67.2461 189.361 67.0527 188.582 67.0527C187.803 67.0527 187.185 67.1816 186.728 67.4395C186.271 67.6973 186.042 68.0664 186.042 68.5469C186.042 69.0215 186.218 69.4082 186.569 69.707C186.927 70.0059 187.577 70.3252 188.521 70.665C189.464 70.999 190.135 71.2949 190.533 71.5527C191.318 72.0449 191.711 72.71 191.711 73.5479C191.711 74.3799 191.386 75.0273 190.735 75.4902C190.085 75.9473 189.139 76.1758 187.896 76.1758C186.66 76.1758 185.67 75.9795 184.926 75.5869V74.6465ZM201.59 76H200.852L200.693 74.6816H200.641C200.014 75.6777 198.909 76.1758 197.327 76.1758C195.153 76.1758 194.066 75.0127 194.066 72.6865V66.4463H194.928V72.6338C194.928 73.5889 195.127 74.2861 195.525 74.7256C195.93 75.165 196.56 75.3848 197.415 75.3848C198.546 75.3848 199.381 75.0977 199.92 74.5234C200.459 73.9492 200.729 73.0146 200.729 71.7197V66.4463H201.59V76ZM205.659 76H204.789V62.3242H205.659V76ZM209.79 66.4463H212.594V67.2021H209.79V73.249C209.79 73.9814 209.919 74.5234 210.177 74.875C210.435 75.2266 210.842 75.4023 211.398 75.4023C211.955 75.4023 212.433 75.3555 212.831 75.2617V75.9648C212.409 76.1055 211.923 76.1758 211.372 76.1758C210.528 76.1758 209.904 75.9502 209.5 75.499C209.102 75.0479 208.902 74.3389 208.902 73.3721V67.2021H207.487V66.6924L208.902 66.2969L209.342 64.1348H209.79V66.4463ZM215.327 62.9482C215.509 62.9482 215.649 63.0215 215.749 63.168C215.854 63.3145 215.907 63.5225 215.907 63.792C215.907 64.0557 215.854 64.2637 215.749 64.416C215.649 64.5684 215.509 64.6445 215.327 64.6445C214.958 64.6445 214.773 64.3633 214.773 63.8008C214.773 63.2324 214.958 62.9482 215.327 62.9482ZM215.767 76H214.896V66.4463H215.767V76ZM223.246 66.2617C225.414 66.2617 226.498 67.4248 226.498 69.751V76H225.637V69.8037C225.637 68.8486 225.435 68.1514 225.03 67.7119C224.632 67.2725 224.005 67.0527 223.149 67.0527C222.019 67.0527 221.184 67.3398 220.645 67.9141C220.111 68.4883 219.845 69.4258 219.845 70.7266V76H218.975V66.4463H219.713L219.88 67.7559H219.933C220.56 66.7598 221.664 66.2617 223.246 66.2617ZM232.009 74.6816H233.679C234.722 74.6816 235.516 74.8926 236.061 75.3145C236.611 75.7305 236.887 76.3486 236.887 77.1689C236.887 78.1768 236.477 78.9531 235.656 79.498C234.842 80.0488 233.679 80.3242 232.167 80.3242C230.972 80.3242 230.043 80.0928 229.381 79.6299C228.719 79.167 228.388 78.5225 228.388 77.6963C228.388 77.0518 228.587 76.5098 228.985 76.0703C229.39 75.6367 229.946 75.3408 230.655 75.1826C230.362 75.0537 230.131 74.875 229.961 74.6465C229.791 74.418 229.706 74.1602 229.706 73.873C229.706 73.2285 230.113 72.666 230.928 72.1855C230.371 71.957 229.938 71.5996 229.627 71.1133C229.316 70.6211 229.161 70.0586 229.161 69.4258C229.161 68.4648 229.463 67.6973 230.066 67.123C230.676 66.5488 231.496 66.2617 232.527 66.2617C233.16 66.2617 233.646 66.3232 233.986 66.4463H237.045V67.0527L235.067 67.1758C235.595 67.832 235.858 68.5527 235.858 69.3379C235.858 70.2637 235.554 71.0107 234.944 71.5791C234.335 72.1475 233.512 72.4316 232.475 72.4316C232.041 72.4316 231.736 72.4141 231.561 72.3789C230.852 72.748 230.497 73.2227 230.497 73.8027C230.497 74.1074 230.614 74.3301 230.849 74.4707C231.083 74.6113 231.47 74.6816 232.009 74.6816ZM234.979 69.3643C234.979 68.5791 234.763 67.9814 234.329 67.5713C233.901 67.1553 233.298 66.9473 232.519 66.9473C231.739 66.9473 231.13 67.167 230.69 67.6064C230.257 68.0459 230.04 68.6436 230.04 69.3994C230.04 70.1553 230.263 70.7383 230.708 71.1484C231.159 71.5527 231.771 71.7549 232.545 71.7549C233.318 71.7549 233.916 71.5527 234.338 71.1484C234.766 70.7441 234.979 70.1494 234.979 69.3643ZM233.503 75.5518H231.938C230.187 75.5518 229.311 76.2402 229.311 77.6172C229.311 78.9297 230.286 79.5859 232.237 79.5859C234.745 79.5859 235.999 78.7861 235.999 77.1865C235.999 76.6123 235.803 76.1963 235.41 75.9385C235.018 75.6807 234.382 75.5518 233.503 75.5518ZM240.007 73.9082L240.112 74.0928C239.673 75.6396 239.163 77.0488 238.583 78.3203H238.012C238.463 76.6973 238.785 75.2266 238.979 73.9082H240.007ZM247.776 63.1504H251.248C253.299 63.1504 254.857 63.6865 255.924 64.7588C256.996 65.8311 257.532 67.4219 257.532 69.5312C257.532 71.6348 256.967 73.2402 255.836 74.3477C254.711 75.4492 253.05 76 250.853 76H247.776V63.1504ZM248.673 63.9414V75.209H250.8C254.638 75.209 256.557 73.3018 256.557 69.4873C256.557 67.6533 256.088 66.2705 255.15 65.3389C254.219 64.4072 252.848 63.9414 251.037 63.9414H248.673ZM264.124 76.1758C262.741 76.1758 261.657 75.748 260.872 74.8926C260.099 74.0371 259.712 72.8447 259.712 71.3154C259.712 69.7861 260.084 68.5615 260.828 67.6416C261.578 66.7217 262.592 66.2617 263.869 66.2617C264.994 66.2617 265.882 66.6572 266.532 67.4482C267.183 68.2334 267.508 69.2969 267.508 70.6387V71.3418H260.626C260.638 72.6543 260.942 73.6562 261.54 74.3477C262.144 75.0391 263.005 75.3848 264.124 75.3848C264.681 75.3848 265.17 75.3438 265.592 75.2617C266.014 75.1797 266.526 75.0186 267.13 74.7783V75.5693C266.597 75.8037 266.099 75.9619 265.636 76.0439C265.179 76.1318 264.675 76.1758 264.124 76.1758ZM266.585 70.5684C266.585 69.4609 266.342 68.5967 265.855 67.9756C265.369 67.3486 264.684 67.0352 263.799 67.0352C262.92 67.0352 262.202 67.3398 261.646 67.9492C261.095 68.5586 260.772 69.4316 260.679 70.5684H266.585ZM269.283 74.6465C270.221 75.127 271.193 75.3672 272.201 75.3672C273.209 75.3672 273.962 75.2148 274.46 74.9102C274.958 74.5996 275.207 74.1895 275.207 73.6797C275.207 73.1699 275.011 72.7539 274.618 72.4316C274.226 72.1035 273.572 71.7783 272.658 71.4561C271.744 71.1279 271.088 70.835 270.689 70.5771C270.291 70.3193 269.995 70.0322 269.802 69.7158C269.614 69.3994 269.521 69.0215 269.521 68.582C269.521 67.873 269.819 67.3076 270.417 66.8857C271.026 66.4697 271.855 66.2617 272.904 66.2617C273.959 66.2617 274.949 66.4551 275.875 66.8418L275.55 67.6328C274.589 67.2461 273.719 67.0527 272.939 67.0527C272.16 67.0527 271.542 67.1816 271.085 67.4395C270.628 67.6973 270.399 68.0664 270.399 68.5469C270.399 69.0215 270.575 69.4082 270.927 69.707C271.284 70.0059 271.935 70.3252 272.878 70.665C273.821 70.999 274.492 71.2949 274.891 71.5527C275.676 72.0449 276.068 72.71 276.068 73.5479C276.068 74.3799 275.743 75.0273 275.093 75.4902C274.442 75.9473 273.496 76.1758 272.254 76.1758C271.018 76.1758 270.027 75.9795 269.283 75.5869V74.6465ZM278.96 62.9482C279.142 62.9482 279.282 63.0215 279.382 63.168C279.487 63.3145 279.54 63.5225 279.54 63.792C279.54 64.0557 279.487 64.2637 279.382 64.416C279.282 64.5684 279.142 64.6445 278.96 64.6445C278.591 64.6445 278.406 64.3633 278.406 63.8008C278.406 63.2324 278.591 62.9482 278.96 62.9482ZM279.399 76H278.529V66.4463H279.399V76ZM285.024 74.6816H286.694C287.737 74.6816 288.531 74.8926 289.076 75.3145C289.627 75.7305 289.902 76.3486 289.902 77.1689C289.902 78.1768 289.492 78.9531 288.672 79.498C287.857 80.0488 286.694 80.3242 285.183 80.3242C283.987 80.3242 283.059 80.0928 282.396 79.6299C281.734 79.167 281.403 78.5225 281.403 77.6963C281.403 77.0518 281.603 76.5098 282.001 76.0703C282.405 75.6367 282.962 75.3408 283.671 75.1826C283.378 75.0537 283.146 74.875 282.977 74.6465C282.807 74.418 282.722 74.1602 282.722 73.873C282.722 73.2285 283.129 72.666 283.943 72.1855C283.387 71.957 282.953 71.5996 282.643 71.1133C282.332 70.6211 282.177 70.0586 282.177 69.4258C282.177 68.4648 282.479 67.6973 283.082 67.123C283.691 66.5488 284.512 66.2617 285.543 66.2617C286.176 66.2617 286.662 66.3232 287.002 66.4463H290.061V67.0527L288.083 67.1758C288.61 67.832 288.874 68.5527 288.874 69.3379C288.874 70.2637 288.569 71.0107 287.96 71.5791C287.351 72.1475 286.527 72.4316 285.49 72.4316C285.057 72.4316 284.752 72.4141 284.576 72.3789C283.867 72.748 283.513 73.2227 283.513 73.8027C283.513 74.1074 283.63 74.3301 283.864 74.4707C284.099 74.6113 284.485 74.6816 285.024 74.6816ZM287.995 69.3643C287.995 68.5791 287.778 67.9814 287.345 67.5713C286.917 67.1553 286.313 66.9473 285.534 66.9473C284.755 66.9473 284.146 67.167 283.706 67.6064C283.272 68.0459 283.056 68.6436 283.056 69.3994C283.056 70.1553 283.278 70.7383 283.724 71.1484C284.175 71.5527 284.787 71.7549 285.561 71.7549C286.334 71.7549 286.932 71.5527 287.354 71.1484C287.781 70.7441 287.995 70.1494 287.995 69.3643ZM286.519 75.5518H284.954C283.202 75.5518 282.326 76.2402 282.326 77.6172C282.326 78.9297 283.302 79.5859 285.253 79.5859C287.761 79.5859 289.015 78.7861 289.015 77.1865C289.015 76.6123 288.818 76.1963 288.426 75.9385C288.033 75.6807 287.397 75.5518 286.519 75.5518ZM296.301 66.2617C298.469 66.2617 299.553 67.4248 299.553 69.751V76H298.691V69.8037C298.691 68.8486 298.489 68.1514 298.085 67.7119C297.687 67.2725 297.06 67.0527 296.204 67.0527C295.073 67.0527 294.238 67.3398 293.699 67.9141C293.166 68.4883 292.899 69.4258 292.899 70.7266V76H292.029V66.4463H292.768L292.935 67.7559H292.987C293.614 66.7598 294.719 66.2617 296.301 66.2617ZM309.203 68.1514C308.441 67.3369 308.061 66.5137 308.061 65.6816C308.061 64.8438 308.339 64.1787 308.896 63.6865C309.458 63.1943 310.202 62.9482 311.128 62.9482C312.054 62.9482 312.78 63.1855 313.308 63.6602C313.841 64.1348 314.107 64.791 314.107 65.6289C314.107 66.2441 313.902 66.8125 313.492 67.334C313.064 67.8496 312.323 68.415 311.269 69.0303L315.241 73.0469C315.938 72.2207 316.463 71.1719 316.814 69.9004H317.658C317.289 71.3359 316.677 72.584 315.821 73.6445L318.159 76H316.973L315.276 74.2686C314.737 74.8018 314.257 75.1885 313.835 75.4287C312.979 75.9268 311.942 76.1758 310.724 76.1758C309.505 76.1758 308.547 75.874 307.85 75.2705C307.152 74.6611 306.804 73.8174 306.804 72.7393C306.804 71.9307 307.018 71.2451 307.445 70.6826C307.873 70.1143 308.679 69.5107 309.862 68.8721L309.203 68.1514ZM313.176 65.6025C313.176 65.0518 312.994 64.6035 312.631 64.2578C312.268 63.9121 311.764 63.7393 311.119 63.7393C310.475 63.7393 309.959 63.9092 309.572 64.249C309.191 64.5889 309.001 65.0605 309.001 65.6641C309.001 66.127 309.118 66.5576 309.353 66.9561C309.587 67.3486 310.032 67.8555 310.688 68.4766C311.626 67.9727 312.273 67.5068 312.631 67.0791C312.994 66.6455 313.176 66.1533 313.176 65.6025ZM308.729 70.5332C308.055 71.0957 307.718 71.8076 307.718 72.6689C307.718 73.5303 307.987 74.1982 308.526 74.6729C309.065 75.1475 309.824 75.3848 310.803 75.3848C311.559 75.3848 312.244 75.2588 312.859 75.0068C313.48 74.7549 314.096 74.3242 314.705 73.7148L310.46 69.4521C309.675 69.8682 309.098 70.2285 308.729 70.5332ZM325.05 63.1504H328.521C330.572 63.1504 332.131 63.6865 333.197 64.7588C334.27 65.8311 334.806 67.4219 334.806 69.5312C334.806 71.6348 334.24 73.2402 333.109 74.3477C331.984 75.4492 330.323 76 328.126 76H325.05V63.1504ZM325.946 63.9414V75.209H328.073C331.911 75.209 333.83 73.3018 333.83 69.4873C333.83 67.6533 333.361 66.2705 332.424 65.3389C331.492 64.4072 330.121 63.9414 328.311 63.9414H325.946ZM341.397 76.1758C340.015 76.1758 338.931 75.748 338.146 74.8926C337.372 74.0371 336.985 72.8447 336.985 71.3154C336.985 69.7861 337.357 68.5615 338.102 67.6416C338.852 66.7217 339.865 66.2617 341.143 66.2617C342.268 66.2617 343.155 66.6572 343.806 67.4482C344.456 68.2334 344.781 69.2969 344.781 70.6387V71.3418H337.899C337.911 72.6543 338.216 73.6562 338.813 74.3477C339.417 75.0391 340.278 75.3848 341.397 75.3848C341.954 75.3848 342.443 75.3438 342.865 75.2617C343.287 75.1797 343.8 75.0186 344.403 74.7783V75.5693C343.87 75.8037 343.372 75.9619 342.909 76.0439C342.452 76.1318 341.948 76.1758 341.397 76.1758ZM343.858 70.5684C343.858 69.4609 343.615 68.5967 343.129 67.9756C342.643 67.3486 341.957 67.0352 341.072 67.0352C340.193 67.0352 339.476 67.3398 338.919 67.9492C338.368 68.5586 338.046 69.4316 337.952 70.5684H343.858ZM350.389 76H349.51L345.818 66.4463H346.715L349.185 72.9414C349.519 73.7969 349.765 74.5264 349.923 75.1299H349.976C350.204 74.3447 350.45 73.6094 350.714 72.9238L353.184 66.4463H354.08L350.389 76ZM359.538 76.1758C358.155 76.1758 357.071 75.748 356.286 74.8926C355.513 74.0371 355.126 72.8447 355.126 71.3154C355.126 69.7861 355.498 68.5615 356.242 67.6416C356.992 66.7217 358.006 66.2617 359.283 66.2617C360.408 66.2617 361.296 66.6572 361.946 67.4482C362.597 68.2334 362.922 69.2969 362.922 70.6387V71.3418H356.04C356.052 72.6543 356.356 73.6562 356.954 74.3477C357.558 75.0391 358.419 75.3848 359.538 75.3848C360.095 75.3848 360.584 75.3438 361.006 75.2617C361.428 75.1797 361.94 75.0186 362.544 74.7783V75.5693C362.011 75.8037 361.513 75.9619 361.05 76.0439C360.593 76.1318 360.089 76.1758 359.538 76.1758ZM361.999 70.5684C361.999 69.4609 361.756 68.5967 361.27 67.9756C360.783 67.3486 360.098 67.0352 359.213 67.0352C358.334 67.0352 357.616 67.3398 357.06 67.9492C356.509 68.5586 356.187 69.4316 356.093 70.5684H361.999ZM366.429 76H365.559V62.3242H366.429V76ZM369.074 71.21C369.074 69.6572 369.452 68.4443 370.208 67.5713C370.964 66.6982 371.998 66.2617 373.311 66.2617C374.629 66.2617 375.66 66.7041 376.404 67.5889C377.154 68.4736 377.529 69.6895 377.529 71.2363C377.529 72.7773 377.151 73.9873 376.396 74.8662C375.64 75.7393 374.597 76.1758 373.267 76.1758C373.237 76.1758 373.205 76.1758 373.17 76.1758C371.957 76.1758 370.97 75.7275 370.208 74.8311C369.452 73.9346 369.074 72.7715 369.074 71.3418C369.074 71.2949 369.074 71.251 369.074 71.21ZM373.302 75.3848C374.356 75.3848 375.171 75.0186 375.745 74.2861C376.319 73.5537 376.606 72.5283 376.606 71.21C376.606 69.8857 376.313 68.8633 375.728 68.1426C375.147 67.416 374.33 67.0527 373.275 67.0527C372.227 67.0527 371.415 67.416 370.841 68.1426C370.272 68.8633 369.988 69.8828 369.988 71.2012C369.988 72.5137 370.275 73.542 370.85 74.2861C371.43 75.0186 372.247 75.3848 373.302 75.3848ZM384.288 66.2617C385.577 66.2617 386.559 66.6865 387.232 67.5361C387.912 68.3799 388.252 69.5986 388.252 71.1924C388.252 72.7803 387.895 74.0078 387.18 74.875C386.471 75.7422 385.501 76.1758 384.271 76.1758C382.806 76.1758 381.733 75.625 381.054 74.5234H380.992L381.019 75.2617C381.042 75.6426 381.054 76.1172 381.054 76.6855V80.3242H380.184V66.4463H380.922L381.089 67.8086H381.142C381.804 66.7773 382.853 66.2617 384.288 66.2617ZM381.054 70.9639V71.2451C381.054 72.7393 381.303 73.8057 381.801 74.4443C382.299 75.083 383.116 75.4023 384.253 75.4023C385.231 75.4023 385.987 75.0391 386.521 74.3125C387.054 73.5859 387.32 72.5693 387.32 71.2627C387.32 68.4561 386.31 67.0527 384.288 67.0527C383.181 67.0527 382.363 67.3604 381.836 67.9756C381.314 68.585 381.054 69.5811 381.054 70.9639ZM400.574 66.2617C401.629 66.2617 402.414 66.5459 402.93 67.1143C403.445 67.6768 403.703 68.5557 403.703 69.751V76H402.842V69.7334C402.842 68.8076 402.66 68.1309 402.297 67.7031C401.939 67.2695 401.383 67.0527 400.627 67.0527C399.643 67.0527 398.916 67.3223 398.447 67.8613C397.984 68.4004 397.753 69.2471 397.753 70.4014V76H396.865V69.4697C396.865 67.8584 396.127 67.0527 394.65 67.0527C393.648 67.0527 392.919 67.3457 392.462 67.9316C392.005 68.5117 391.776 69.4434 391.776 70.7266V76H390.906V66.4463H391.627L391.812 67.7559H391.864C392.128 67.2871 392.5 66.9209 392.98 66.6572C393.467 66.3936 394.006 66.2617 394.598 66.2617C396.104 66.2617 397.07 66.8271 397.498 67.958H397.533C397.844 67.4131 398.26 66.9941 398.781 66.7012C399.309 66.4082 399.906 66.2617 400.574 66.2617ZM410.655 76.1758C409.272 76.1758 408.188 75.748 407.403 74.8926C406.63 74.0371 406.243 72.8447 406.243 71.3154C406.243 69.7861 406.615 68.5615 407.359 67.6416C408.109 66.7217 409.123 66.2617 410.4 66.2617C411.525 66.2617 412.413 66.6572 413.063 67.4482C413.714 68.2334 414.039 69.2969 414.039 70.6387V71.3418H407.157C407.169 72.6543 407.474 73.6562 408.071 74.3477C408.675 75.0391 409.536 75.3848 410.655 75.3848C411.212 75.3848 411.701 75.3438 412.123 75.2617C412.545 75.1797 413.058 75.0186 413.661 74.7783V75.5693C413.128 75.8037 412.63 75.9619 412.167 76.0439C411.71 76.1318 411.206 76.1758 410.655 76.1758ZM413.116 70.5684C413.116 69.4609 412.873 68.5967 412.387 67.9756C411.9 67.3486 411.215 67.0352 410.33 67.0352C409.451 67.0352 408.733 67.3398 408.177 67.9492C407.626 68.5586 407.304 69.4316 407.21 70.5684H413.116ZM420.947 66.2617C423.115 66.2617 424.199 67.4248 424.199 69.751V76H423.338V69.8037C423.338 68.8486 423.136 68.1514 422.731 67.7119C422.333 67.2725 421.706 67.0527 420.851 67.0527C419.72 67.0527 418.885 67.3398 418.346 67.9141C417.812 68.4883 417.546 69.4258 417.546 70.7266V76H416.676V66.4463H417.414L417.581 67.7559H417.634C418.261 66.7598 419.365 66.2617 420.947 66.2617ZM428.216 66.4463H431.02V67.2021H428.216V73.249C428.216 73.9814 428.345 74.5234 428.603 74.875C428.86 75.2266 429.268 75.4023 429.824 75.4023C430.381 75.4023 430.858 75.3555 431.257 75.2617V75.9648C430.835 76.1055 430.349 76.1758 429.798 76.1758C428.954 76.1758 428.33 75.9502 427.926 75.499C427.527 75.0479 427.328 74.3389 427.328 73.3721V67.2021H425.913V66.6924L427.328 66.2969L427.768 64.1348H428.216V66.4463Z" fill="white"/>
<path d="M315.699 42.1641C315.699 43.0195 315.523 43.8223 315.172 44.5723C314.832 45.3223 314.369 45.9785 313.783 46.541C313.209 47.1035 312.535 47.5488 311.762 47.877C311 48.1934 310.191 48.3516 309.336 48.3516H307.525C306.67 48.3516 305.855 48.1934 305.082 47.877C304.32 47.5488 303.646 47.1035 303.061 46.541C302.486 45.9785 302.023 45.3223 301.672 44.5723C301.332 43.8223 301.162 43.0195 301.162 42.1641V41.1621L303.43 40.793V42.1641C303.43 42.7266 303.541 43.2539 303.764 43.7461C303.998 44.2266 304.309 44.6543 304.695 45.0293C305.082 45.3926 305.527 45.6797 306.031 45.8906C306.547 46.1016 307.086 46.207 307.648 46.207H309.23C309.793 46.207 310.326 46.1016 310.83 45.8906C311.334 45.6797 311.779 45.3926 312.166 45.0293C312.553 44.6543 312.857 44.2266 313.08 43.7461C313.314 43.2539 313.432 42.7266 313.432 42.1641V41.4082C313.432 40.541 313.262 39.8203 312.922 39.2461C312.582 38.6719 312.131 38.1855 311.568 37.7871C311.006 37.377 310.367 37.0312 309.652 36.75C308.949 36.4688 308.223 36.1875 307.473 35.9062C306.723 35.625 305.99 35.3145 305.275 34.9746C304.572 34.6348 303.939 34.2129 303.377 33.709C302.814 33.1934 302.363 32.5664 302.023 31.8281C301.684 31.0898 301.514 30.1816 301.514 29.1035V28.6289C301.514 27.7734 301.672 26.9707 301.988 26.2207C302.316 25.4707 302.762 24.8145 303.324 24.252C303.887 23.6895 304.543 23.25 305.293 22.9336C306.055 22.6055 306.863 22.4414 307.719 22.4414H309.336C310.191 22.4414 310.994 22.6055 311.744 22.9336C312.494 23.25 313.15 23.6895 313.713 24.252C314.275 24.8145 314.715 25.4707 315.031 26.2207C315.359 26.9707 315.523 27.7734 315.523 28.6289V29.2793L313.256 29.6484V28.6289C313.256 28.0664 313.15 27.5449 312.939 27.0645C312.729 26.5723 312.441 26.1445 312.078 25.7812C311.715 25.418 311.287 25.1309 310.795 24.9199C310.314 24.709 309.793 24.6035 309.23 24.6035H307.824C307.262 24.6035 306.734 24.709 306.242 24.9199C305.762 25.1309 305.334 25.418 304.959 25.7812C304.596 26.1445 304.309 26.5723 304.098 27.0645C303.887 27.5449 303.781 28.0664 303.781 28.6289V29.1035C303.781 29.9121 303.951 30.5918 304.291 31.1426C304.631 31.6934 305.082 32.168 305.645 32.5664C306.207 32.9531 306.84 33.293 307.543 33.5859C308.258 33.8672 308.99 34.1602 309.74 34.4648C310.49 34.7578 311.217 35.0859 311.92 35.4492C312.635 35.8008 313.273 36.2402 313.836 36.7676C314.398 37.2832 314.85 37.916 315.189 38.666C315.529 39.416 315.699 40.3301 315.699 41.4082V42.1641ZM326.782 48C326.126 48 325.505 47.877 324.919 47.6309C324.344 47.3848 323.84 47.0449 323.407 46.6113C322.985 46.1777 322.645 45.6738 322.387 45.0996C322.141 44.5254 322.018 43.9102 322.018 43.2539V32.0566H318.784V30H322.018V25.6758L324.18 25.3242V30H328.751V32.0566H324.18V43.3594C324.18 43.7227 324.245 44.0625 324.374 44.3789C324.514 44.6836 324.702 44.9531 324.936 45.1875C325.171 45.4219 325.446 45.6094 325.762 45.75C326.079 45.8789 326.419 45.9434 326.782 45.9434H328.751V48H326.782ZM344.404 48L343.208 46.1719C342.716 46.8398 342.101 47.373 341.363 47.7715C340.624 48.1582 339.816 48.3516 338.937 48.3516H338.392C337.665 48.3516 336.98 48.2168 336.335 47.9473C335.691 47.666 335.128 47.2852 334.648 46.8047C334.167 46.3242 333.786 45.7617 333.505 45.1172C333.236 44.4727 333.101 43.7871 333.101 43.0605V30H335.263V43.1836C335.263 43.6172 335.345 44.0273 335.509 44.4141C335.673 44.7891 335.896 45.1172 336.177 45.3984C336.458 45.6797 336.786 45.9023 337.161 46.0664C337.548 46.2305 337.958 46.3125 338.392 46.3125H339.833C340.267 46.3125 340.671 46.2305 341.046 46.0664C341.433 45.9023 341.767 45.6797 342.048 45.3984C342.329 45.1172 342.552 44.7891 342.716 44.4141C342.88 44.0273 342.962 43.6172 342.962 43.1836V30H345.124V48H344.404ZM361.111 48L359.916 46.1719C359.424 46.8398 358.809 47.373 358.07 47.7715C357.332 48.1582 356.523 48.3516 355.644 48.3516H355.1C354.373 48.3516 353.687 48.2168 353.043 47.9473C352.398 47.666 351.836 47.2852 351.355 46.8047C350.875 46.3242 350.494 45.7617 350.213 45.1172C349.943 44.4727 349.809 43.7871 349.809 43.0605V34.9395C349.809 34.2129 349.943 33.5273 350.213 32.8828C350.494 32.2383 350.875 31.6758 351.355 31.1953C351.836 30.7148 352.398 30.3398 353.043 30.0703C353.687 29.7891 354.373 29.6484 355.1 29.6484H355.644C356.453 29.6484 357.203 29.8125 357.894 30.1406C358.586 30.4688 359.178 30.9258 359.67 31.5117V22.793H361.832V48H361.111ZM359.67 34.8164C359.67 34.3828 359.588 33.9785 359.424 33.6035C359.26 33.2168 359.037 32.8828 358.756 32.6016C358.475 32.3203 358.141 32.0977 357.754 31.9336C357.379 31.7695 356.975 31.6875 356.541 31.6875H355.1C354.666 31.6875 354.256 31.7695 353.869 31.9336C353.494 32.0977 353.166 32.3203 352.885 32.6016C352.603 32.8828 352.381 33.2168 352.217 33.6035C352.053 33.9785 351.971 34.3828 351.971 34.8164V43.1836C351.971 43.6172 352.053 44.0273 352.217 44.4141C352.381 44.7891 352.603 45.1172 352.885 45.3984C353.166 45.6797 353.494 45.9023 353.869 46.0664C354.256 46.2305 354.666 46.3125 355.1 46.3125H356.541C356.975 46.3125 357.379 46.2305 357.754 46.0664C358.141 45.9023 358.475 45.6797 358.756 45.3984C359.037 45.1172 359.26 44.7891 359.424 44.4141C359.588 44.0273 359.67 43.6172 359.67 43.1836V34.8164ZM367.061 25.6758V22.793H369.575V25.6758H367.061ZM367.237 48V30H369.399V48H367.237ZM386.845 43.0605C386.845 43.7871 386.704 44.4727 386.423 45.1172C386.154 45.7617 385.779 46.3242 385.298 46.8047C384.818 47.2852 384.255 47.666 383.611 47.9473C382.966 48.2168 382.28 48.3516 381.554 48.3516H380.113C379.386 48.3516 378.7 48.2168 378.056 47.9473C377.411 47.666 376.849 47.2852 376.368 46.8047C375.888 46.3242 375.507 45.7617 375.226 45.1172C374.956 44.4727 374.821 43.7871 374.821 43.0605V34.9395C374.821 34.2129 374.956 33.5273 375.226 32.8828C375.507 32.2383 375.888 31.6758 376.368 31.1953C376.849 30.7148 377.411 30.3398 378.056 30.0703C378.7 29.7891 379.386 29.6484 380.113 29.6484H381.554C382.28 29.6484 382.966 29.7891 383.611 30.0703C384.255 30.3398 384.818 30.7148 385.298 31.1953C385.779 31.6758 386.154 32.2383 386.423 32.8828C386.704 33.5273 386.845 34.2129 386.845 34.9395V43.0605ZM384.683 34.8164C384.683 34.3828 384.601 33.9785 384.437 33.6035C384.273 33.2168 384.05 32.8828 383.769 32.6016C383.488 32.3203 383.154 32.0977 382.767 31.9336C382.392 31.7695 381.988 31.6875 381.554 31.6875H380.113C379.679 31.6875 379.269 31.7695 378.882 31.9336C378.507 32.0977 378.179 32.3203 377.898 32.6016C377.616 32.8828 377.394 33.2168 377.23 33.6035C377.066 33.9785 376.984 34.3828 376.984 34.8164V43.1836C376.984 43.6172 377.066 44.0273 377.23 44.4141C377.394 44.7891 377.616 45.1172 377.898 45.3984C378.179 45.6797 378.507 45.9023 378.882 46.0664C379.269 46.2305 379.679 46.3125 380.113 46.3125H381.554C381.988 46.3125 382.392 46.2305 382.767 46.0664C383.154 45.9023 383.488 45.6797 383.769 45.3984C384.05 45.1172 384.273 44.7891 384.437 44.4141C384.601 44.0273 384.683 43.6172 384.683 43.1836V34.8164ZM403.904 43.4297C403.904 44.1562 403.758 44.8242 403.465 45.4336C403.172 46.0312 402.773 46.5469 402.269 46.9805C401.765 47.4141 401.18 47.7539 400.512 48C399.855 48.2344 399.164 48.3516 398.437 48.3516H396.996C396.269 48.3516 395.572 48.2168 394.904 47.9473C394.248 47.666 393.668 47.2852 393.164 46.8047C392.672 46.3242 392.273 45.7617 391.969 45.1172C391.676 44.4727 391.529 43.7871 391.529 43.0605V42.3398L393.691 41.9883V43.1836C393.691 43.6172 393.779 44.0273 393.955 44.4141C394.142 44.7891 394.389 45.1172 394.693 45.3984C394.998 45.6797 395.349 45.9023 395.748 46.0664C396.146 46.2305 396.562 46.3125 396.996 46.3125H398.437C398.871 46.3125 399.287 46.248 399.685 46.1191C400.084 45.9902 400.435 45.8086 400.74 45.5742C401.056 45.3281 401.303 45.0352 401.478 44.6953C401.666 44.3555 401.76 43.9688 401.76 43.5352C401.76 42.8906 401.619 42.3633 401.338 41.9531C401.056 41.543 400.681 41.2031 400.213 40.9336C399.756 40.6523 399.228 40.4238 398.631 40.248C398.045 40.0605 397.441 39.8789 396.82 39.7031C396.199 39.5156 395.59 39.3047 394.992 39.0703C394.406 38.8359 393.879 38.5312 393.41 38.1562C392.953 37.7695 392.584 37.2891 392.303 36.7148C392.021 36.1406 391.881 35.4258 391.881 34.5703C391.881 33.8438 392.021 33.1816 392.303 32.584C392.584 31.9746 392.965 31.4531 393.445 31.0195C393.926 30.5859 394.482 30.252 395.115 30.0176C395.76 29.7715 396.445 29.6484 397.172 29.6484H398.437C399.164 29.6484 399.849 29.7891 400.494 30.0703C401.139 30.3398 401.701 30.7148 402.181 31.1953C402.662 31.6758 403.037 32.2383 403.306 32.8828C403.588 33.5273 403.728 34.2129 403.728 34.9395V35.0098L401.566 35.3613V34.8164C401.566 34.3828 401.484 33.9785 401.32 33.6035C401.156 33.2168 400.933 32.8828 400.652 32.6016C400.371 32.3203 400.037 32.0977 399.65 31.9336C399.275 31.7695 398.871 31.6875 398.437 31.6875H397.172C396.738 31.6875 396.328 31.752 395.941 31.8809C395.566 32.0098 395.238 32.1973 394.957 32.4434C394.676 32.6777 394.453 32.9648 394.289 33.3047C394.125 33.6445 394.043 34.0312 394.043 34.4648C394.043 35.0859 394.183 35.5957 394.465 35.9941C394.746 36.3809 395.115 36.709 395.572 36.9785C396.041 37.248 396.568 37.4766 397.154 37.6641C397.752 37.8398 398.355 38.0273 398.965 38.2266C399.586 38.4141 400.189 38.6309 400.775 38.877C401.373 39.123 401.9 39.4395 402.357 39.8262C402.826 40.2129 403.201 40.6992 403.482 41.2852C403.764 41.8594 403.904 42.5742 403.904 43.4297Z" fill="white"/>
<path d="M127.446 49H110.73V26.614C110.73 24.542 111.388 22.876 112.704 21.616C113.6 20.776 114.608 20.23 115.728 19.978C116.848 19.726 118.22 19.6 119.844 19.6H127.446V23.296H119.298C116.218 23.296 114.678 24.584 114.678 27.16V31.948H124.38V35.644H114.678V45.304H127.446V49ZM132.058 28.84H139.324C142.432 28.84 144.658 29.302 146.002 30.226C147.206 31.038 147.962 32.018 148.27 33.166C148.606 34.286 148.774 35.77 148.774 37.618V49H145.078V37.66C145.078 37.156 145.064 36.736 145.036 36.4C145.008 36.036 144.91 35.588 144.742 35.056C144.574 34.496 144.336 34.048 144.028 33.712C143.72 33.348 143.272 33.04 142.684 32.788C142.096 32.508 141.382 32.368 140.542 32.368H135.754V49H132.058V28.84ZM154.043 28.84H161.309C164.417 28.84 166.643 29.302 167.987 30.226C169.191 31.038 169.947 32.018 170.255 33.166C170.591 34.286 170.759 35.77 170.759 37.618V49H167.063V37.66C167.063 37.156 167.049 36.736 167.021 36.4C166.993 36.036 166.895 35.588 166.727 35.056C166.559 34.496 166.321 34.048 166.013 33.712C165.705 33.348 165.257 33.04 164.669 32.788C164.081 32.508 163.367 32.368 162.527 32.368H157.739V49H154.043V28.84ZM185.687 28.42C190.447 28.616 192.827 30.59 192.827 34.342C192.827 39.018 189.761 41.356 183.629 41.356H181.907V38.122H183.923C185.799 38.122 187.101 37.842 187.829 37.282C188.557 36.694 188.921 35.728 188.921 34.384C188.921 33.516 188.599 32.872 187.955 32.452C187.311 32.004 186.485 31.78 185.477 31.78C183.489 31.78 181.921 32.48 180.773 33.88C179.653 35.28 179.093 36.96 179.093 38.92C179.093 40.992 179.695 42.672 180.899 43.96C182.131 45.248 183.727 45.892 185.687 45.892C187.451 45.892 188.893 45.458 190.013 44.59L192.533 47.068C190.601 48.636 188.319 49.42 185.687 49.42C182.495 49.42 179.947 48.482 178.043 46.606C176.139 44.73 175.187 42.308 175.187 39.34C175.187 36.036 176.125 33.362 178.001 31.318C179.877 29.274 182.439 28.308 185.687 28.42ZM208.236 37.156V40.936C207.172 40.124 205.87 39.718 204.33 39.718C203.014 39.718 201.992 39.984 201.264 40.516C200.536 41.02 200.172 41.748 200.172 42.7C200.172 44.548 201.544 45.472 204.288 45.472H209.832V37.45C209.832 34.062 208.18 32.368 204.876 32.368H198.156V28.84H205.086C207.802 28.84 209.888 29.512 211.344 30.856C212.8 32.2 213.528 34.132 213.528 36.652V49H204.162C201.782 49 199.892 48.468 198.492 47.404C197.092 46.34 196.392 44.786 196.392 42.742C196.392 40.698 197.134 39.144 198.618 38.08C200.102 37.016 201.964 36.484 204.204 36.484C205.464 36.484 206.808 36.708 208.236 37.156ZM227.511 49C224.767 49 222.415 48.076 220.455 46.228C218.495 44.38 217.515 42.014 217.515 39.13C217.515 36.218 218.495 33.782 220.455 31.822C222.443 29.834 224.893 28.84 227.805 28.84H237.675V48.412C237.675 49.672 237.507 50.806 237.171 51.814C236.863 52.822 236.415 53.676 235.827 54.376C235.239 55.076 234.707 55.622 234.231 56.014C233.755 56.406 233.181 56.812 232.509 57.232C230.773 58.128 228.659 58.576 226.167 58.576H221.463V55.048H225.789C228.253 55.048 230.003 54.74 231.039 54.124C232.943 53.06 233.895 51.296 233.895 48.832V32.368H227.805C225.817 32.368 224.235 32.984 223.059 34.216C221.883 35.448 221.295 37.086 221.295 39.13C221.295 41.09 221.897 42.644 223.101 43.792C224.333 44.912 225.803 45.472 227.511 45.472C229.359 45.472 230.983 44.968 232.383 43.96V47.74C230.871 48.58 229.247 49 227.511 49ZM245.228 31.486C247.188 29.442 249.638 28.42 252.578 28.42C254.006 28.42 255.336 28.7 256.568 29.26C257.828 29.792 258.92 30.534 259.844 31.486C260.796 32.438 261.538 33.558 262.07 34.846C262.602 36.106 262.868 37.464 262.868 38.92C262.868 40.376 262.602 41.748 262.07 43.036C261.566 44.296 260.852 45.402 259.928 46.354C259.004 47.306 257.912 48.062 256.652 48.622C255.392 49.154 254.034 49.42 252.578 49.42C251.094 49.42 249.722 49.154 248.462 48.622C247.23 48.062 246.152 47.306 245.228 46.354C244.304 45.402 243.576 44.296 243.044 43.036C242.54 41.748 242.288 40.376 242.288 38.92C242.288 35.952 243.268 33.474 245.228 31.486ZM252.578 31.948C250.618 31.948 249.036 32.592 247.832 33.88C246.656 35.168 246.068 36.848 246.068 38.92C246.068 40.992 246.656 42.672 247.832 43.96C249.036 45.248 250.618 45.892 252.578 45.892C254.566 45.892 256.148 45.248 257.324 43.96C258.5 42.644 259.088 40.964 259.088 38.92C259.088 36.876 258.5 35.21 257.324 33.922C256.148 32.606 254.566 31.948 252.578 31.948ZM267.492 28.84H274.758C277.866 28.84 280.092 29.302 281.436 30.226C282.64 31.038 283.396 32.018 283.704 33.166C284.04 34.286 284.208 35.77 284.208 37.618V49H280.512V37.66C280.512 37.156 280.498 36.736 280.47 36.4C280.442 36.036 280.344 35.588 280.176 35.056C280.008 34.496 279.77 34.048 279.462 33.712C279.154 33.348 278.706 33.04 278.118 32.788C277.53 32.508 276.816 32.368 275.976 32.368H271.188V49H267.492V28.84Z" fill="white"/>
</svg>
