<svg width="45" height="31" viewBox="0 0 45 31" fill="none" xmlns="http://www.w3.org/2000/svg">
<path d="M7.4707 4.25V22.9707H37.5293V4.25H7.4707ZM37.5293 26.75H45V30.5293H0V26.75H7.4707C6.47461 26.75 5.5957 26.3691 4.83398 25.6074C4.13086 24.8457 3.7793 23.9668 3.7793 22.9707V4.25C3.7793 3.25391 4.13086 2.375 4.83398 1.61328C5.5957 0.851562 6.47461 0.470703 7.4707 0.470703H37.5293C38.5254 0.470703 39.375 0.851562 40.0781 1.61328C40.8398 2.375 41.2207 3.25391 41.2207 4.25V22.9707C41.2207 23.9668 40.8398 24.8457 40.0781 25.6074C39.375 26.3691 38.5254 26.75 37.5293 26.75Z" fill="white"/>
</svg>
