<svg width="322" height="19" viewBox="0 0 322 19" fill="none" xmlns="http://www.w3.org/2000/svg">
<path d="M12.5586 14H11.8203L8.99902 4.08594C8.75879 3.26562 8.58301 2.59766 8.47168 2.08203C8.36621 2.63867 8.24023 3.19824 8.09375 3.76074C7.94727 4.31738 6.99512 7.73047 5.2373 14H4.48145L0.948242 1.15039H1.88867L4.13867 9.42969C4.54883 10.9941 4.80078 12.043 4.89453 12.5762C5.03516 11.791 5.33398 10.5811 5.79102 8.94629L7.98828 1.15039H8.98145L11.5566 10.0977C11.8438 11.082 12.0576 11.9141 12.1982 12.5938C12.2744 12.1719 12.3711 11.7236 12.4883 11.249C12.6113 10.7744 13.5166 7.4082 15.2041 1.15039H16.1094L12.5586 14ZM22.0244 14.1758C20.6416 14.1758 19.5576 13.748 18.7725 12.8926C17.999 12.0371 17.6123 10.8447 17.6123 9.31543C17.6123 7.78613 17.9844 6.56152 18.7285 5.6416C19.4785 4.72168 20.4922 4.26172 21.7695 4.26172C22.8945 4.26172 23.7822 4.65723 24.4326 5.44824C25.083 6.2334 25.4082 7.29688 25.4082 8.63867V9.3418H18.5264C18.5381 10.6543 18.8428 11.6562 19.4404 12.3477C20.0439 13.0391 20.9053 13.3848 22.0244 13.3848C22.5811 13.3848 23.0703 13.3438 23.4922 13.2617C23.9141 13.1797 24.4268 13.0186 25.0303 12.7783V13.5693C24.4971 13.8037 23.999 13.9619 23.5361 14.0439C23.0791 14.1318 22.5752 14.1758 22.0244 14.1758ZM24.4854 8.56836C24.4854 7.46094 24.2422 6.59668 23.7559 5.97559C23.2695 5.34863 22.584 5.03516 21.6992 5.03516C20.8203 5.03516 20.1025 5.33984 19.5459 5.94922C18.9951 6.55859 18.6729 7.43164 18.5791 8.56836H24.4854ZM28.915 0.324219V3.76074C28.915 4.3291 28.9033 4.80371 28.8799 5.18457L28.8535 5.93164H28.915C29.2783 5.35742 29.7148 4.93555 30.2246 4.66602C30.7402 4.39648 31.3584 4.26172 32.0791 4.26172C33.4092 4.26172 34.4141 4.68066 35.0938 5.51855C35.7734 6.35645 36.1133 7.57812 36.1133 9.18359C36.1133 10.7891 35.7529 12.0225 35.0322 12.8838C34.3291 13.7451 33.333 14.1758 32.0439 14.1758C31.3643 14.1758 30.752 14.0352 30.207 13.7539C29.6621 13.4727 29.2314 13.0742 28.915 12.5586H28.8359L28.5898 14H28.0449V0.324219H28.915ZM28.915 9.20996V9.35938C28.915 10.8008 29.167 11.835 29.6709 12.4619C30.1807 13.0889 30.96 13.4023 32.0088 13.4023C33.0635 13.4023 33.8545 13.042 34.3818 12.3213C34.915 11.5947 35.1816 10.5518 35.1816 9.19238C35.1816 6.43262 34.1416 5.05273 32.0615 5.05273C30.9424 5.05273 30.1367 5.375 29.6445 6.01953C29.1582 6.66406 28.915 7.72754 28.915 9.20996ZM48.7871 14.1758C46.9824 14.1758 45.5615 13.5928 44.5244 12.4268C43.4873 11.2549 42.9688 9.62598 42.9688 7.54004C42.9688 7.49902 42.9688 7.45508 42.9688 7.4082C42.9688 6.17188 43.2148 5.06152 43.707 4.07715C44.2051 3.08691 44.9141 2.32227 45.834 1.7832C46.7598 1.23828 47.8057 0.96582 48.9717 0.96582C49.0127 0.96582 49.0508 0.96582 49.0859 0.96582C50.3281 0.96582 51.4502 1.2002 52.4521 1.66895L52.0918 2.47754C51.1426 2.00879 50.1582 1.77441 49.1387 1.77441C47.5273 1.77441 46.2588 2.29004 45.333 3.32129C44.4072 4.35254 43.9443 5.77637 43.9443 7.59277C43.9443 9.40332 44.3809 10.8154 45.2539 11.8291C46.127 12.8428 47.375 13.3496 48.998 13.3496C50.0645 13.3496 51.0547 13.2119 51.9688 12.9365V13.7275C51.1191 14.0264 50.0586 14.1758 48.7871 14.1758ZM54.0605 9.20996C54.0605 7.65723 54.4385 6.44434 55.1943 5.57129C55.9502 4.69824 56.9844 4.26172 58.2969 4.26172C59.6152 4.26172 60.6465 4.7041 61.3906 5.58887C62.1406 6.47363 62.5156 7.68945 62.5156 9.23633C62.5156 10.7773 62.1377 11.9873 61.3818 12.8662C60.626 13.7393 59.583 14.1758 58.2529 14.1758C58.2236 14.1758 58.1914 14.1758 58.1562 14.1758C56.9434 14.1758 55.9561 13.7275 55.1943 12.8311C54.4385 11.9346 54.0605 10.7715 54.0605 9.3418C54.0605 9.29492 54.0605 9.25098 54.0605 9.20996ZM58.2881 13.3848C59.3428 13.3848 60.1572 13.0186 60.7314 12.2861C61.3057 11.5537 61.5928 10.5283 61.5928 9.20996C61.5928 7.88574 61.2998 6.86328 60.7139 6.14258C60.1338 5.41602 59.3164 5.05273 58.2617 5.05273C57.2129 5.05273 56.4014 5.41602 55.8271 6.14258C55.2588 6.86328 54.9746 7.88281 54.9746 9.20117C54.9746 10.5137 55.2617 11.542 55.8359 12.2861C56.416 13.0186 57.2334 13.3848 58.2881 13.3848ZM69.4414 4.26172C71.6094 4.26172 72.6934 5.4248 72.6934 7.75098V14H71.832V7.80371C71.832 6.84863 71.6299 6.15137 71.2256 5.71191C70.8271 5.27246 70.2002 5.05273 69.3447 5.05273C68.2139 5.05273 67.3789 5.33984 66.8398 5.91406C66.3066 6.48828 66.04 7.42578 66.04 8.72656V14H65.1699V4.44629H65.9082L66.0752 5.75586H66.1279C66.7549 4.75977 67.8594 4.26172 69.4414 4.26172ZM74.9258 12.6465C75.8633 13.127 76.8359 13.3672 77.8438 13.3672C78.8516 13.3672 79.6045 13.2148 80.1025 12.9102C80.6006 12.5996 80.8496 12.1895 80.8496 11.6797C80.8496 11.1699 80.6533 10.7539 80.2607 10.4316C79.8682 10.1035 79.2148 9.77832 78.3008 9.45605C77.3867 9.12793 76.7305 8.83496 76.332 8.57715C75.9336 8.31934 75.6377 8.03223 75.4443 7.71582C75.2568 7.39941 75.1631 7.02148 75.1631 6.58203C75.1631 5.87305 75.4619 5.30762 76.0596 4.88574C76.6689 4.46973 77.498 4.26172 78.5469 4.26172C79.6016 4.26172 80.5918 4.45508 81.5176 4.8418L81.1924 5.63281C80.2314 5.24609 79.3613 5.05273 78.582 5.05273C77.8027 5.05273 77.1846 5.18164 76.7275 5.43945C76.2705 5.69727 76.042 6.06641 76.042 6.54688C76.042 7.02148 76.2178 7.4082 76.5693 7.70703C76.9268 8.00586 77.5771 8.3252 78.5205 8.66504C79.4639 8.99902 80.1348 9.29492 80.5332 9.55273C81.3184 10.0449 81.7109 10.71 81.7109 11.5479C81.7109 12.3799 81.3857 13.0273 80.7354 13.4902C80.085 13.9473 79.1387 14.1758 77.8965 14.1758C76.6602 14.1758 75.6699 13.9795 74.9258 13.5869V12.6465ZM91.5898 14H90.8516L90.6934 12.6816H90.6406C90.0137 13.6777 88.9092 14.1758 87.3271 14.1758C85.1533 14.1758 84.0664 13.0127 84.0664 10.6865V4.44629H84.9277V10.6338C84.9277 11.5889 85.127 12.2861 85.5254 12.7256C85.9297 13.165 86.5596 13.3848 87.415 13.3848C88.5459 13.3848 89.3809 13.0977 89.9199 12.5234C90.459 11.9492 90.7285 11.0146 90.7285 9.71973V4.44629H91.5898V14ZM95.6592 14H94.7891V0.324219H95.6592V14ZM99.79 4.44629H102.594V5.20215H99.79V11.249C99.79 11.9814 99.9189 12.5234 100.177 12.875C100.435 13.2266 100.842 13.4023 101.398 13.4023C101.955 13.4023 102.433 13.3555 102.831 13.2617V13.9648C102.409 14.1055 101.923 14.1758 101.372 14.1758C100.528 14.1758 99.9043 13.9502 99.5 13.499C99.1016 13.0479 98.9023 12.3389 98.9023 11.3721V5.20215H97.4873V4.69238L98.9023 4.29688L99.3418 2.13477H99.79V4.44629ZM105.327 0.948242C105.509 0.948242 105.649 1.02148 105.749 1.16797C105.854 1.31445 105.907 1.52246 105.907 1.79199C105.907 2.05566 105.854 2.26367 105.749 2.41602C105.649 2.56836 105.509 2.64453 105.327 2.64453C104.958 2.64453 104.773 2.36328 104.773 1.80078C104.773 1.23242 104.958 0.948242 105.327 0.948242ZM105.767 14H104.896V4.44629H105.767V14ZM113.246 4.26172C115.414 4.26172 116.498 5.4248 116.498 7.75098V14H115.637V7.80371C115.637 6.84863 115.435 6.15137 115.03 5.71191C114.632 5.27246 114.005 5.05273 113.149 5.05273C112.019 5.05273 111.184 5.33984 110.645 5.91406C110.111 6.48828 109.845 7.42578 109.845 8.72656V14H108.975V4.44629H109.713L109.88 5.75586H109.933C110.56 4.75977 111.664 4.26172 113.246 4.26172ZM122.009 12.6816H123.679C124.722 12.6816 125.516 12.8926 126.061 13.3145C126.611 13.7305 126.887 14.3486 126.887 15.1689C126.887 16.1768 126.477 16.9531 125.656 17.498C124.842 18.0488 123.679 18.3242 122.167 18.3242C120.972 18.3242 120.043 18.0928 119.381 17.6299C118.719 17.167 118.388 16.5225 118.388 15.6963C118.388 15.0518 118.587 14.5098 118.985 14.0703C119.39 13.6367 119.946 13.3408 120.655 13.1826C120.362 13.0537 120.131 12.875 119.961 12.6465C119.791 12.418 119.706 12.1602 119.706 11.873C119.706 11.2285 120.113 10.666 120.928 10.1855C120.371 9.95703 119.938 9.59961 119.627 9.11328C119.316 8.62109 119.161 8.05859 119.161 7.42578C119.161 6.46484 119.463 5.69727 120.066 5.12305C120.676 4.54883 121.496 4.26172 122.527 4.26172C123.16 4.26172 123.646 4.32324 123.986 4.44629H127.045V5.05273L125.067 5.17578C125.595 5.83203 125.858 6.55273 125.858 7.33789C125.858 8.26367 125.554 9.01074 124.944 9.5791C124.335 10.1475 123.512 10.4316 122.475 10.4316C122.041 10.4316 121.736 10.4141 121.561 10.3789C120.852 10.748 120.497 11.2227 120.497 11.8027C120.497 12.1074 120.614 12.3301 120.849 12.4707C121.083 12.6113 121.47 12.6816 122.009 12.6816ZM124.979 7.36426C124.979 6.5791 124.763 5.98145 124.329 5.57129C123.901 5.15527 123.298 4.94727 122.519 4.94727C121.739 4.94727 121.13 5.16699 120.69 5.60645C120.257 6.0459 120.04 6.64355 120.04 7.39941C120.04 8.15527 120.263 8.73828 120.708 9.14844C121.159 9.55273 121.771 9.75488 122.545 9.75488C123.318 9.75488 123.916 9.55273 124.338 9.14844C124.766 8.74414 124.979 8.14941 124.979 7.36426ZM123.503 13.5518H121.938C120.187 13.5518 119.311 14.2402 119.311 15.6172C119.311 16.9297 120.286 17.5859 122.237 17.5859C124.745 17.5859 125.999 16.7861 125.999 15.1865C125.999 14.6123 125.803 14.1963 125.41 13.9385C125.018 13.6807 124.382 13.5518 123.503 13.5518ZM130.007 11.9082L130.112 12.0928C129.673 13.6396 129.163 15.0488 128.583 16.3203H128.012C128.463 14.6973 128.785 13.2266 128.979 11.9082H130.007ZM137.776 1.15039H141.248C143.299 1.15039 144.857 1.68652 145.924 2.75879C146.996 3.83105 147.532 5.42188 147.532 7.53125C147.532 9.63477 146.967 11.2402 145.836 12.3477C144.711 13.4492 143.05 14 140.853 14H137.776V1.15039ZM138.673 1.94141V13.209H140.8C144.638 13.209 146.557 11.3018 146.557 7.4873C146.557 5.65332 146.088 4.27051 145.15 3.33887C144.219 2.40723 142.848 1.94141 141.037 1.94141H138.673ZM154.124 14.1758C152.741 14.1758 151.657 13.748 150.872 12.8926C150.099 12.0371 149.712 10.8447 149.712 9.31543C149.712 7.78613 150.084 6.56152 150.828 5.6416C151.578 4.72168 152.592 4.26172 153.869 4.26172C154.994 4.26172 155.882 4.65723 156.532 5.44824C157.183 6.2334 157.508 7.29688 157.508 8.63867V9.3418H150.626C150.638 10.6543 150.942 11.6562 151.54 12.3477C152.144 13.0391 153.005 13.3848 154.124 13.3848C154.681 13.3848 155.17 13.3438 155.592 13.2617C156.014 13.1797 156.526 13.0186 157.13 12.7783V13.5693C156.597 13.8037 156.099 13.9619 155.636 14.0439C155.179 14.1318 154.675 14.1758 154.124 14.1758ZM156.585 8.56836C156.585 7.46094 156.342 6.59668 155.855 5.97559C155.369 5.34863 154.684 5.03516 153.799 5.03516C152.92 5.03516 152.202 5.33984 151.646 5.94922C151.095 6.55859 150.772 7.43164 150.679 8.56836H156.585ZM159.283 12.6465C160.221 13.127 161.193 13.3672 162.201 13.3672C163.209 13.3672 163.962 13.2148 164.46 12.9102C164.958 12.5996 165.207 12.1895 165.207 11.6797C165.207 11.1699 165.011 10.7539 164.618 10.4316C164.226 10.1035 163.572 9.77832 162.658 9.45605C161.744 9.12793 161.088 8.83496 160.689 8.57715C160.291 8.31934 159.995 8.03223 159.802 7.71582C159.614 7.39941 159.521 7.02148 159.521 6.58203C159.521 5.87305 159.819 5.30762 160.417 4.88574C161.026 4.46973 161.855 4.26172 162.904 4.26172C163.959 4.26172 164.949 4.45508 165.875 4.8418L165.55 5.63281C164.589 5.24609 163.719 5.05273 162.939 5.05273C162.16 5.05273 161.542 5.18164 161.085 5.43945C160.628 5.69727 160.399 6.06641 160.399 6.54688C160.399 7.02148 160.575 7.4082 160.927 7.70703C161.284 8.00586 161.935 8.3252 162.878 8.66504C163.821 8.99902 164.492 9.29492 164.891 9.55273C165.676 10.0449 166.068 10.71 166.068 11.5479C166.068 12.3799 165.743 13.0273 165.093 13.4902C164.442 13.9473 163.496 14.1758 162.254 14.1758C161.018 14.1758 160.027 13.9795 159.283 13.5869V12.6465ZM168.96 0.948242C169.142 0.948242 169.282 1.02148 169.382 1.16797C169.487 1.31445 169.54 1.52246 169.54 1.79199C169.54 2.05566 169.487 2.26367 169.382 2.41602C169.282 2.56836 169.142 2.64453 168.96 2.64453C168.591 2.64453 168.406 2.36328 168.406 1.80078C168.406 1.23242 168.591 0.948242 168.96 0.948242ZM169.399 14H168.529V4.44629H169.399V14ZM175.024 12.6816H176.694C177.737 12.6816 178.531 12.8926 179.076 13.3145C179.627 13.7305 179.902 14.3486 179.902 15.1689C179.902 16.1768 179.492 16.9531 178.672 17.498C177.857 18.0488 176.694 18.3242 175.183 18.3242C173.987 18.3242 173.059 18.0928 172.396 17.6299C171.734 17.167 171.403 16.5225 171.403 15.6963C171.403 15.0518 171.603 14.5098 172.001 14.0703C172.405 13.6367 172.962 13.3408 173.671 13.1826C173.378 13.0537 173.146 12.875 172.977 12.6465C172.807 12.418 172.722 12.1602 172.722 11.873C172.722 11.2285 173.129 10.666 173.943 10.1855C173.387 9.95703 172.953 9.59961 172.643 9.11328C172.332 8.62109 172.177 8.05859 172.177 7.42578C172.177 6.46484 172.479 5.69727 173.082 5.12305C173.691 4.54883 174.512 4.26172 175.543 4.26172C176.176 4.26172 176.662 4.32324 177.002 4.44629H180.061V5.05273L178.083 5.17578C178.61 5.83203 178.874 6.55273 178.874 7.33789C178.874 8.26367 178.569 9.01074 177.96 9.5791C177.351 10.1475 176.527 10.4316 175.49 10.4316C175.057 10.4316 174.752 10.4141 174.576 10.3789C173.867 10.748 173.513 11.2227 173.513 11.8027C173.513 12.1074 173.63 12.3301 173.864 12.4707C174.099 12.6113 174.485 12.6816 175.024 12.6816ZM177.995 7.36426C177.995 6.5791 177.778 5.98145 177.345 5.57129C176.917 5.15527 176.313 4.94727 175.534 4.94727C174.755 4.94727 174.146 5.16699 173.706 5.60645C173.272 6.0459 173.056 6.64355 173.056 7.39941C173.056 8.15527 173.278 8.73828 173.724 9.14844C174.175 9.55273 174.787 9.75488 175.561 9.75488C176.334 9.75488 176.932 9.55273 177.354 9.14844C177.781 8.74414 177.995 8.14941 177.995 7.36426ZM176.519 13.5518H174.954C173.202 13.5518 172.326 14.2402 172.326 15.6172C172.326 16.9297 173.302 17.5859 175.253 17.5859C177.761 17.5859 179.015 16.7861 179.015 15.1865C179.015 14.6123 178.818 14.1963 178.426 13.9385C178.033 13.6807 177.397 13.5518 176.519 13.5518ZM186.301 4.26172C188.469 4.26172 189.553 5.4248 189.553 7.75098V14H188.691V7.80371C188.691 6.84863 188.489 6.15137 188.085 5.71191C187.687 5.27246 187.06 5.05273 186.204 5.05273C185.073 5.05273 184.238 5.33984 183.699 5.91406C183.166 6.48828 182.899 7.42578 182.899 8.72656V14H182.029V4.44629H182.768L182.935 5.75586H182.987C183.614 4.75977 184.719 4.26172 186.301 4.26172ZM199.203 6.15137C198.441 5.33691 198.061 4.51367 198.061 3.68164C198.061 2.84375 198.339 2.17871 198.896 1.68652C199.458 1.19434 200.202 0.948242 201.128 0.948242C202.054 0.948242 202.78 1.18555 203.308 1.66016C203.841 2.13477 204.107 2.79102 204.107 3.62891C204.107 4.24414 203.902 4.8125 203.492 5.33398C203.064 5.84961 202.323 6.41504 201.269 7.03027L205.241 11.0469C205.938 10.2207 206.463 9.17188 206.814 7.90039H207.658C207.289 9.33594 206.677 10.584 205.821 11.6445L208.159 14H206.973L205.276 12.2686C204.737 12.8018 204.257 13.1885 203.835 13.4287C202.979 13.9268 201.942 14.1758 200.724 14.1758C199.505 14.1758 198.547 13.874 197.85 13.2705C197.152 12.6611 196.804 11.8174 196.804 10.7393C196.804 9.93066 197.018 9.24512 197.445 8.68262C197.873 8.11426 198.679 7.51074 199.862 6.87207L199.203 6.15137ZM203.176 3.60254C203.176 3.05176 202.994 2.60352 202.631 2.25781C202.268 1.91211 201.764 1.73926 201.119 1.73926C200.475 1.73926 199.959 1.90918 199.572 2.24902C199.191 2.58887 199.001 3.06055 199.001 3.66406C199.001 4.12695 199.118 4.55762 199.353 4.95605C199.587 5.34863 200.032 5.85547 200.688 6.47656C201.626 5.97266 202.273 5.50684 202.631 5.0791C202.994 4.64551 203.176 4.15332 203.176 3.60254ZM198.729 8.5332C198.055 9.0957 197.718 9.80762 197.718 10.6689C197.718 11.5303 197.987 12.1982 198.526 12.6729C199.065 13.1475 199.824 13.3848 200.803 13.3848C201.559 13.3848 202.244 13.2588 202.859 13.0068C203.48 12.7549 204.096 12.3242 204.705 11.7148L200.46 7.45215C199.675 7.86816 199.098 8.22852 198.729 8.5332ZM215.05 1.15039H218.521C220.572 1.15039 222.131 1.68652 223.197 2.75879C224.27 3.83105 224.806 5.42188 224.806 7.53125C224.806 9.63477 224.24 11.2402 223.109 12.3477C221.984 13.4492 220.323 14 218.126 14H215.05V1.15039ZM215.946 1.94141V13.209H218.073C221.911 13.209 223.83 11.3018 223.83 7.4873C223.83 5.65332 223.361 4.27051 222.424 3.33887C221.492 2.40723 220.121 1.94141 218.311 1.94141H215.946ZM231.397 14.1758C230.015 14.1758 228.931 13.748 228.146 12.8926C227.372 12.0371 226.985 10.8447 226.985 9.31543C226.985 7.78613 227.357 6.56152 228.102 5.6416C228.852 4.72168 229.865 4.26172 231.143 4.26172C232.268 4.26172 233.155 4.65723 233.806 5.44824C234.456 6.2334 234.781 7.29688 234.781 8.63867V9.3418H227.899C227.911 10.6543 228.216 11.6562 228.813 12.3477C229.417 13.0391 230.278 13.3848 231.397 13.3848C231.954 13.3848 232.443 13.3438 232.865 13.2617C233.287 13.1797 233.8 13.0186 234.403 12.7783V13.5693C233.87 13.8037 233.372 13.9619 232.909 14.0439C232.452 14.1318 231.948 14.1758 231.397 14.1758ZM233.858 8.56836C233.858 7.46094 233.615 6.59668 233.129 5.97559C232.643 5.34863 231.957 5.03516 231.072 5.03516C230.193 5.03516 229.476 5.33984 228.919 5.94922C228.368 6.55859 228.046 7.43164 227.952 8.56836H233.858ZM240.389 14H239.51L235.818 4.44629H236.715L239.185 10.9414C239.519 11.7969 239.765 12.5264 239.923 13.1299H239.976C240.204 12.3447 240.45 11.6094 240.714 10.9238L243.184 4.44629H244.08L240.389 14ZM249.538 14.1758C248.155 14.1758 247.071 13.748 246.286 12.8926C245.513 12.0371 245.126 10.8447 245.126 9.31543C245.126 7.78613 245.498 6.56152 246.242 5.6416C246.992 4.72168 248.006 4.26172 249.283 4.26172C250.408 4.26172 251.296 4.65723 251.946 5.44824C252.597 6.2334 252.922 7.29688 252.922 8.63867V9.3418H246.04C246.052 10.6543 246.356 11.6562 246.954 12.3477C247.558 13.0391 248.419 13.3848 249.538 13.3848C250.095 13.3848 250.584 13.3438 251.006 13.2617C251.428 13.1797 251.94 13.0186 252.544 12.7783V13.5693C252.011 13.8037 251.513 13.9619 251.05 14.0439C250.593 14.1318 250.089 14.1758 249.538 14.1758ZM251.999 8.56836C251.999 7.46094 251.756 6.59668 251.27 5.97559C250.783 5.34863 250.098 5.03516 249.213 5.03516C248.334 5.03516 247.616 5.33984 247.06 5.94922C246.509 6.55859 246.187 7.43164 246.093 8.56836H251.999ZM256.429 14H255.559V0.324219H256.429V14ZM259.074 9.20996C259.074 7.65723 259.452 6.44434 260.208 5.57129C260.964 4.69824 261.998 4.26172 263.311 4.26172C264.629 4.26172 265.66 4.7041 266.404 5.58887C267.154 6.47363 267.529 7.68945 267.529 9.23633C267.529 10.7773 267.151 11.9873 266.396 12.8662C265.64 13.7393 264.597 14.1758 263.267 14.1758C263.237 14.1758 263.205 14.1758 263.17 14.1758C261.957 14.1758 260.97 13.7275 260.208 12.8311C259.452 11.9346 259.074 10.7715 259.074 9.3418C259.074 9.29492 259.074 9.25098 259.074 9.20996ZM263.302 13.3848C264.356 13.3848 265.171 13.0186 265.745 12.2861C266.319 11.5537 266.606 10.5283 266.606 9.20996C266.606 7.88574 266.313 6.86328 265.728 6.14258C265.147 5.41602 264.33 5.05273 263.275 5.05273C262.227 5.05273 261.415 5.41602 260.841 6.14258C260.272 6.86328 259.988 7.88281 259.988 9.20117C259.988 10.5137 260.275 11.542 260.85 12.2861C261.43 13.0186 262.247 13.3848 263.302 13.3848ZM274.288 4.26172C275.577 4.26172 276.559 4.68652 277.232 5.53613C277.912 6.37988 278.252 7.59863 278.252 9.19238C278.252 10.7803 277.895 12.0078 277.18 12.875C276.471 13.7422 275.501 14.1758 274.271 14.1758C272.806 14.1758 271.733 13.625 271.054 12.5234H270.992L271.019 13.2617C271.042 13.6426 271.054 14.1172 271.054 14.6855V18.3242H270.184V4.44629H270.922L271.089 5.80859H271.142C271.804 4.77734 272.853 4.26172 274.288 4.26172ZM271.054 8.96387V9.24512C271.054 10.7393 271.303 11.8057 271.801 12.4443C272.299 13.083 273.116 13.4023 274.253 13.4023C275.231 13.4023 275.987 13.0391 276.521 12.3125C277.054 11.5859 277.32 10.5693 277.32 9.2627C277.32 6.45605 276.31 5.05273 274.288 5.05273C273.181 5.05273 272.363 5.36035 271.836 5.97559C271.314 6.58496 271.054 7.58105 271.054 8.96387ZM290.574 4.26172C291.629 4.26172 292.414 4.5459 292.93 5.11426C293.445 5.67676 293.703 6.55566 293.703 7.75098V14H292.842V7.7334C292.842 6.80762 292.66 6.13086 292.297 5.70312C291.939 5.26953 291.383 5.05273 290.627 5.05273C289.643 5.05273 288.916 5.32227 288.447 5.86133C287.984 6.40039 287.753 7.24707 287.753 8.40137V14H286.865V7.46973C286.865 5.8584 286.127 5.05273 284.65 5.05273C283.648 5.05273 282.919 5.3457 282.462 5.93164C282.005 6.51172 281.776 7.44336 281.776 8.72656V14H280.906V4.44629H281.627L281.812 5.75586H281.864C282.128 5.28711 282.5 4.9209 282.98 4.65723C283.467 4.39355 284.006 4.26172 284.598 4.26172C286.104 4.26172 287.07 4.82715 287.498 5.95801H287.533C287.844 5.41309 288.26 4.99414 288.781 4.70117C289.309 4.4082 289.906 4.26172 290.574 4.26172ZM300.655 14.1758C299.272 14.1758 298.188 13.748 297.403 12.8926C296.63 12.0371 296.243 10.8447 296.243 9.31543C296.243 7.78613 296.615 6.56152 297.359 5.6416C298.109 4.72168 299.123 4.26172 300.4 4.26172C301.525 4.26172 302.413 4.65723 303.063 5.44824C303.714 6.2334 304.039 7.29688 304.039 8.63867V9.3418H297.157C297.169 10.6543 297.474 11.6562 298.071 12.3477C298.675 13.0391 299.536 13.3848 300.655 13.3848C301.212 13.3848 301.701 13.3438 302.123 13.2617C302.545 13.1797 303.058 13.0186 303.661 12.7783V13.5693C303.128 13.8037 302.63 13.9619 302.167 14.0439C301.71 14.1318 301.206 14.1758 300.655 14.1758ZM303.116 8.56836C303.116 7.46094 302.873 6.59668 302.387 5.97559C301.9 5.34863 301.215 5.03516 300.33 5.03516C299.451 5.03516 298.733 5.33984 298.177 5.94922C297.626 6.55859 297.304 7.43164 297.21 8.56836H303.116ZM310.947 4.26172C313.115 4.26172 314.199 5.4248 314.199 7.75098V14H313.338V7.80371C313.338 6.84863 313.136 6.15137 312.731 5.71191C312.333 5.27246 311.706 5.05273 310.851 5.05273C309.72 5.05273 308.885 5.33984 308.346 5.91406C307.812 6.48828 307.546 7.42578 307.546 8.72656V14H306.676V4.44629H307.414L307.581 5.75586H307.634C308.261 4.75977 309.365 4.26172 310.947 4.26172ZM318.216 4.44629H321.02V5.20215H318.216V11.249C318.216 11.9814 318.345 12.5234 318.603 12.875C318.86 13.2266 319.268 13.4023 319.824 13.4023C320.381 13.4023 320.858 13.3555 321.257 13.2617V13.9648C320.835 14.1055 320.349 14.1758 319.798 14.1758C318.954 14.1758 318.33 13.9502 317.926 13.499C317.527 13.0479 317.328 12.3389 317.328 11.3721V5.20215H315.913V4.69238L317.328 4.29688L317.768 2.13477H318.216V4.44629Z" fill="white"/>
</svg>
