<svg width="17" height="25" viewBox="0 0 17 25" fill="none" xmlns="http://www.w3.org/2000/svg">
<path d="M14.1426 20.3574V4.64258H2.85742V20.3574H14.1426ZM14.1426 0.160156C14.7402 0.160156 15.25 0.388672 15.6719 0.845703C16.1289 1.26758 16.3574 1.77734 16.3574 2.375V22.625C16.3574 23.2227 16.1289 23.75 15.6719 24.207C15.25 24.6641 14.7402 24.8926 14.1426 24.8926H2.85742C2.25977 24.8926 1.73242 24.6641 1.27539 24.207C0.853516 23.75 0.642578 23.2227 0.642578 22.625V2.375C0.642578 1.77734 0.853516 1.25 1.27539 0.792969C1.73242 0.335937 2.25977 0.107422 2.85742 0.107422L14.1426 0.160156Z" fill="white"/>
</svg>
