<svg width="34" height="26" viewBox="0 0 34 26" fill="none" xmlns="http://www.w3.org/2000/svg">
<path d="M27.4766 22V4H6.52344V22H27.4766ZM30.5 0.976562C31.2969 0.976562 32 1.28125 32.6094 1.89062C33.2188 2.5 33.5234 3.20313 33.5234 4L33.4531 22C33.4531 22.7969 33.1484 23.5 32.5391 24.1094C31.9766 24.7188 31.2969 25.0234 30.5 25.0234H3.5C2.70312 25.0234 2 24.7188 1.39062 24.1094C0.78125 23.5 0.476562 22.7969 0.476562 22V4C0.476562 3.20313 0.78125 2.5 1.39062 1.89062C2 1.28125 2.70312 0.976562 3.5 0.976562H30.5Z" fill="white"/>
</svg>
