<svg width="21" height="17" viewBox="0 0 21 17" fill="none" xmlns="http://www.w3.org/2000/svg">
<path d="M8.73633 8.5H7.01367L10.5 5.01367L13.9863 8.5H12.2637V11.9863H8.73633V8.5ZM18.375 14.6523V2.34766H2.625V14.6523H18.375ZM18.375 0.625C18.8672 0.625 19.2773 0.802734 19.6055 1.1582C19.9609 1.48633 20.1387 1.89648 20.1387 2.38867V14.6113C20.1387 15.1035 19.9609 15.5273 19.6055 15.8828C19.2773 16.2109 18.8672 16.375 18.375 16.375H2.625C2.13281 16.375 1.70898 16.2109 1.35352 15.8828C1.02539 15.5273 0.861328 15.1035 0.861328 14.6113V2.38867C0.861328 1.89648 1.02539 1.48633 1.35352 1.1582C1.70898 0.802734 2.13281 0.625 2.625 0.625H18.375Z" fill="white"/>
</svg>
