<svg width="293" height="75" viewBox="0 0 293 75" fill="none" xmlns="http://www.w3.org/2000/svg">
<path d="M35.0586 69H34.3203L31.499 59.0859C31.2588 58.2656 31.083 57.5977 30.9717 57.082C30.8662 57.6387 30.7402 58.1982 30.5938 58.7607C30.4473 59.3174 29.4951 62.7305 27.7373 69H26.9814L23.4482 56.1504H24.3887L26.6387 64.4297C27.0488 65.9941 27.3008 67.043 27.3945 67.5762C27.5352 66.791 27.834 65.5811 28.291 63.9463L30.4883 56.1504H31.4814L34.0566 65.0977C34.3438 66.082 34.5576 66.9141 34.6982 67.5938C34.7744 67.1719 34.8711 66.7236 34.9883 66.249C35.1113 65.7744 36.0166 62.4082 37.7041 56.1504H38.6094L35.0586 69ZM44.5244 69.1758C43.1416 69.1758 42.0576 68.748 41.2725 67.8926C40.499 67.0371 40.1123 65.8447 40.1123 64.3154C40.1123 62.7861 40.4844 61.5615 41.2285 60.6416C41.9785 59.7217 42.9922 59.2617 44.2695 59.2617C45.3945 59.2617 46.2822 59.6572 46.9326 60.4482C47.583 61.2334 47.9082 62.2969 47.9082 63.6387V64.3418H41.0264C41.0381 65.6543 41.3428 66.6562 41.9404 67.3477C42.5439 68.0391 43.4053 68.3848 44.5244 68.3848C45.0811 68.3848 45.5703 68.3438 45.9922 68.2617C46.4141 68.1797 46.9268 68.0186 47.5303 67.7783V68.5693C46.9971 68.8037 46.499 68.9619 46.0361 69.0439C45.5791 69.1318 45.0752 69.1758 44.5244 69.1758ZM46.9854 63.5684C46.9854 62.4609 46.7422 61.5967 46.2559 60.9756C45.7695 60.3486 45.084 60.0352 44.1992 60.0352C43.3203 60.0352 42.6025 60.3398 42.0459 60.9492C41.4951 61.5586 41.1729 62.4316 41.0791 63.5684H46.9854ZM51.415 55.3242V58.7607C51.415 59.3291 51.4033 59.8037 51.3799 60.1846L51.3535 60.9316H51.415C51.7783 60.3574 52.2148 59.9355 52.7246 59.666C53.2402 59.3965 53.8584 59.2617 54.5791 59.2617C55.9092 59.2617 56.9141 59.6807 57.5938 60.5186C58.2734 61.3564 58.6133 62.5781 58.6133 64.1836C58.6133 65.7891 58.2529 67.0225 57.5322 67.8838C56.8291 68.7451 55.833 69.1758 54.5439 69.1758C53.8643 69.1758 53.252 69.0352 52.707 68.7539C52.1621 68.4727 51.7314 68.0742 51.415 67.5586H51.3359L51.0898 69H50.5449V55.3242H51.415ZM51.415 64.21V64.3594C51.415 65.8008 51.667 66.835 52.1709 67.4619C52.6807 68.0889 53.46 68.4023 54.5088 68.4023C55.5635 68.4023 56.3545 68.042 56.8818 67.3213C57.415 66.5947 57.6816 65.5518 57.6816 64.1924C57.6816 61.4326 56.6416 60.0527 54.5615 60.0527C53.4424 60.0527 52.6367 60.375 52.1445 61.0195C51.6582 61.6641 51.415 62.7275 51.415 64.21ZM73.1855 56.9766H67.0596V61.8369H72.8428V62.6631H67.0596V68.1826H73.1855V69H66.1631V56.1504H73.1855V56.9766ZM80.1465 59.2617C82.3145 59.2617 83.3984 60.4248 83.3984 62.751V69H82.5371V62.8037C82.5371 61.8486 82.335 61.1514 81.9307 60.7119C81.5322 60.2725 80.9053 60.0527 80.0498 60.0527C78.9189 60.0527 78.084 60.3398 77.5449 60.9141C77.0117 61.4883 76.7451 62.4258 76.7451 63.7266V69H75.875V59.4463H76.6133L76.7803 60.7559H76.833C77.46 59.7598 78.5645 59.2617 80.1465 59.2617ZM88.9092 67.6816H90.5791C91.6221 67.6816 92.416 67.8926 92.9609 68.3145C93.5117 68.7305 93.7871 69.3486 93.7871 70.1689C93.7871 71.1768 93.377 71.9531 92.5566 72.498C91.7422 73.0488 90.5791 73.3242 89.0674 73.3242C87.8721 73.3242 86.9434 73.0928 86.2812 72.6299C85.6191 72.167 85.2881 71.5225 85.2881 70.6963C85.2881 70.0518 85.4873 69.5098 85.8857 69.0703C86.29 68.6367 86.8467 68.3408 87.5557 68.1826C87.2627 68.0537 87.0312 67.875 86.8613 67.6465C86.6914 67.418 86.6064 67.1602 86.6064 66.873C86.6064 66.2285 87.0137 65.666 87.8281 65.1855C87.2715 64.957 86.8379 64.5996 86.5273 64.1133C86.2168 63.6211 86.0615 63.0586 86.0615 62.4258C86.0615 61.4648 86.3633 60.6973 86.9668 60.123C87.5762 59.5488 88.3965 59.2617 89.4277 59.2617C90.0605 59.2617 90.5469 59.3232 90.8867 59.4463H93.9453V60.0527L91.9678 60.1758C92.4951 60.832 92.7588 61.5527 92.7588 62.3379C92.7588 63.2637 92.4541 64.0107 91.8447 64.5791C91.2354 65.1475 90.4121 65.4316 89.375 65.4316C88.9414 65.4316 88.6367 65.4141 88.4609 65.3789C87.752 65.748 87.3975 66.2227 87.3975 66.8027C87.3975 67.1074 87.5146 67.3301 87.749 67.4707C87.9834 67.6113 88.3701 67.6816 88.9092 67.6816ZM91.8799 62.3643C91.8799 61.5791 91.6631 60.9814 91.2295 60.5713C90.8018 60.1553 90.1982 59.9473 89.4189 59.9473C88.6396 59.9473 88.0303 60.167 87.5908 60.6064C87.1572 61.0459 86.9404 61.6436 86.9404 62.3994C86.9404 63.1553 87.1631 63.7383 87.6084 64.1484C88.0596 64.5527 88.6719 64.7549 89.4453 64.7549C90.2188 64.7549 90.8164 64.5527 91.2383 64.1484C91.666 63.7441 91.8799 63.1494 91.8799 62.3643ZM90.4033 68.5518H88.8389C87.0869 68.5518 86.2109 69.2402 86.2109 70.6172C86.2109 71.9297 87.1865 72.5859 89.1377 72.5859C91.6455 72.5859 92.8994 71.7861 92.8994 70.1865C92.8994 69.6123 92.7031 69.1963 92.3105 68.9385C91.918 68.6807 91.2822 68.5518 90.4033 68.5518ZM96.3447 55.9482C96.5264 55.9482 96.667 56.0215 96.7666 56.168C96.8721 56.3145 96.9248 56.5225 96.9248 56.792C96.9248 57.0557 96.8721 57.2637 96.7666 57.416C96.667 57.5684 96.5264 57.6445 96.3447 57.6445C95.9756 57.6445 95.791 57.3633 95.791 56.8008C95.791 56.2324 95.9756 55.9482 96.3447 55.9482ZM96.7842 69H95.9141V59.4463H96.7842V69ZM104.264 59.2617C106.432 59.2617 107.516 60.4248 107.516 62.751V69H106.654V62.8037C106.654 61.8486 106.452 61.1514 106.048 60.7119C105.649 60.2725 105.022 60.0527 104.167 60.0527C103.036 60.0527 102.201 60.3398 101.662 60.9141C101.129 61.4883 100.862 62.4258 100.862 63.7266V69H99.9922V59.4463H100.73L100.897 60.7559H100.95C101.577 59.7598 102.682 59.2617 104.264 59.2617ZM114.468 69.1758C113.085 69.1758 112.001 68.748 111.216 67.8926C110.442 67.0371 110.056 65.8447 110.056 64.3154C110.056 62.7861 110.428 61.5615 111.172 60.6416C111.922 59.7217 112.936 59.2617 114.213 59.2617C115.338 59.2617 116.226 59.6572 116.876 60.4482C117.526 61.2334 117.852 62.2969 117.852 63.6387V64.3418H110.97C110.981 65.6543 111.286 66.6562 111.884 67.3477C112.487 68.0391 113.349 68.3848 114.468 68.3848C115.024 68.3848 115.514 68.3438 115.936 68.2617C116.357 68.1797 116.87 68.0186 117.474 67.7783V68.5693C116.94 68.8037 116.442 68.9619 115.979 69.0439C115.522 69.1318 115.019 69.1758 114.468 69.1758ZM116.929 63.5684C116.929 62.4609 116.686 61.5967 116.199 60.9756C115.713 60.3486 115.027 60.0352 114.143 60.0352C113.264 60.0352 112.546 60.3398 111.989 60.9492C111.438 61.5586 111.116 62.4316 111.022 63.5684H116.929ZM124.347 69.1758C122.964 69.1758 121.88 68.748 121.095 67.8926C120.321 67.0371 119.935 65.8447 119.935 64.3154C119.935 62.7861 120.307 61.5615 121.051 60.6416C121.801 59.7217 122.814 59.2617 124.092 59.2617C125.217 59.2617 126.104 59.6572 126.755 60.4482C127.405 61.2334 127.73 62.2969 127.73 63.6387V64.3418H120.849C120.86 65.6543 121.165 66.6562 121.763 67.3477C122.366 68.0391 123.228 68.3848 124.347 68.3848C124.903 68.3848 125.393 68.3438 125.814 68.2617C126.236 68.1797 126.749 68.0186 127.353 67.7783V68.5693C126.819 68.8037 126.321 68.9619 125.858 69.0439C125.401 69.1318 124.897 69.1758 124.347 69.1758ZM126.808 63.5684C126.808 62.4609 126.564 61.5967 126.078 60.9756C125.592 60.3486 124.906 60.0352 124.021 60.0352C123.143 60.0352 122.425 60.3398 121.868 60.9492C121.317 61.5586 120.995 62.4316 120.901 63.5684H126.808ZM134.129 59.2617C134.516 59.2617 134.949 59.3027 135.43 59.3848L135.263 60.2285C134.87 60.123 134.457 60.0703 134.023 60.0703C133.209 60.0703 132.541 60.4189 132.02 61.1162C131.498 61.8076 131.237 62.6777 131.237 63.7266V69H130.367V59.4463H131.105L131.193 61.1689H131.255C131.659 60.4541 132.078 59.9619 132.512 59.6924C132.957 59.4053 133.496 59.2617 134.129 59.2617ZM137.812 55.9482C137.993 55.9482 138.134 56.0215 138.233 56.168C138.339 56.3145 138.392 56.5225 138.392 56.792C138.392 57.0557 138.339 57.2637 138.233 57.416C138.134 57.5684 137.993 57.6445 137.812 57.6445C137.442 57.6445 137.258 57.3633 137.258 56.8008C137.258 56.2324 137.442 55.9482 137.812 55.9482ZM138.251 69H137.381V59.4463H138.251V69ZM145.73 59.2617C147.898 59.2617 148.982 60.4248 148.982 62.751V69H148.121V62.8037C148.121 61.8486 147.919 61.1514 147.515 60.7119C147.116 60.2725 146.489 60.0527 145.634 60.0527C144.503 60.0527 143.668 60.3398 143.129 60.9141C142.596 61.4883 142.329 62.4258 142.329 63.7266V69H141.459V59.4463H142.197L142.364 60.7559H142.417C143.044 59.7598 144.148 59.2617 145.73 59.2617ZM154.493 67.6816H156.163C157.206 67.6816 158 67.8926 158.545 68.3145C159.096 68.7305 159.371 69.3486 159.371 70.1689C159.371 71.1768 158.961 71.9531 158.141 72.498C157.326 73.0488 156.163 73.3242 154.651 73.3242C153.456 73.3242 152.527 73.0928 151.865 72.6299C151.203 72.167 150.872 71.5225 150.872 70.6963C150.872 70.0518 151.071 69.5098 151.47 69.0703C151.874 68.6367 152.431 68.3408 153.14 68.1826C152.847 68.0537 152.615 67.875 152.445 67.6465C152.275 67.418 152.19 67.1602 152.19 66.873C152.19 66.2285 152.598 65.666 153.412 65.1855C152.855 64.957 152.422 64.5996 152.111 64.1133C151.801 63.6211 151.646 63.0586 151.646 62.4258C151.646 61.4648 151.947 60.6973 152.551 60.123C153.16 59.5488 153.98 59.2617 155.012 59.2617C155.645 59.2617 156.131 59.3232 156.471 59.4463H159.529V60.0527L157.552 60.1758C158.079 60.832 158.343 61.5527 158.343 62.3379C158.343 63.2637 158.038 64.0107 157.429 64.5791C156.819 65.1475 155.996 65.4316 154.959 65.4316C154.525 65.4316 154.221 65.4141 154.045 65.3789C153.336 65.748 152.981 66.2227 152.981 66.8027C152.981 67.1074 153.099 67.3301 153.333 67.4707C153.567 67.6113 153.954 67.6816 154.493 67.6816ZM157.464 62.3643C157.464 61.5791 157.247 60.9814 156.813 60.5713C156.386 60.1553 155.782 59.9473 155.003 59.9473C154.224 59.9473 153.614 60.167 153.175 60.6064C152.741 61.0459 152.524 61.6436 152.524 62.3994C152.524 63.1553 152.747 63.7383 153.192 64.1484C153.644 64.5527 154.256 64.7549 155.029 64.7549C155.803 64.7549 156.4 64.5527 156.822 64.1484C157.25 63.7441 157.464 63.1494 157.464 62.3643ZM155.987 68.5518H154.423C152.671 68.5518 151.795 69.2402 151.795 70.6172C151.795 71.9297 152.771 72.5859 154.722 72.5859C157.229 72.5859 158.483 71.7861 158.483 70.1865C158.483 69.6123 158.287 69.1963 157.895 68.9385C157.502 68.6807 156.866 68.5518 155.987 68.5518ZM168.055 61.1514C167.293 60.3369 166.912 59.5137 166.912 58.6816C166.912 57.8438 167.19 57.1787 167.747 56.6865C168.31 56.1943 169.054 55.9482 169.979 55.9482C170.905 55.9482 171.632 56.1855 172.159 56.6602C172.692 57.1348 172.959 57.791 172.959 58.6289C172.959 59.2441 172.754 59.8125 172.344 60.334C171.916 60.8496 171.175 61.415 170.12 62.0303L174.093 66.0469C174.79 65.2207 175.314 64.1719 175.666 62.9004H176.51C176.141 64.3359 175.528 65.584 174.673 66.6445L177.011 69H175.824L174.128 67.2686C173.589 67.8018 173.108 68.1885 172.687 68.4287C171.831 68.9268 170.794 69.1758 169.575 69.1758C168.356 69.1758 167.398 68.874 166.701 68.2705C166.004 67.6611 165.655 66.8174 165.655 65.7393C165.655 64.9307 165.869 64.2451 166.297 63.6826C166.725 63.1143 167.53 62.5107 168.714 61.8721L168.055 61.1514ZM172.027 58.6025C172.027 58.0518 171.846 57.6035 171.482 57.2578C171.119 56.9121 170.615 56.7393 169.971 56.7393C169.326 56.7393 168.811 56.9092 168.424 57.249C168.043 57.5889 167.853 58.0605 167.853 58.6641C167.853 59.127 167.97 59.5576 168.204 59.9561C168.438 60.3486 168.884 60.8555 169.54 61.4766C170.478 60.9727 171.125 60.5068 171.482 60.0791C171.846 59.6455 172.027 59.1533 172.027 58.6025ZM167.58 63.5332C166.906 64.0957 166.569 64.8076 166.569 65.6689C166.569 66.5303 166.839 67.1982 167.378 67.6729C167.917 68.1475 168.676 68.3848 169.654 68.3848C170.41 68.3848 171.096 68.2588 171.711 68.0068C172.332 67.7549 172.947 67.3242 173.557 66.7148L169.312 62.4521C168.526 62.8682 167.949 63.2285 167.58 63.5332ZM183.901 56.1504H187.373C189.424 56.1504 190.982 56.6865 192.049 57.7588C193.121 58.8311 193.657 60.4219 193.657 62.5312C193.657 64.6348 193.092 66.2402 191.961 67.3477C190.836 68.4492 189.175 69 186.978 69H183.901V56.1504ZM184.798 56.9414V68.209H186.925C190.763 68.209 192.682 66.3018 192.682 62.4873C192.682 60.6533 192.213 59.2705 191.275 58.3389C190.344 57.4072 188.973 56.9414 187.162 56.9414H184.798ZM200.249 69.1758C198.866 69.1758 197.782 68.748 196.997 67.8926C196.224 67.0371 195.837 65.8447 195.837 64.3154C195.837 62.7861 196.209 61.5615 196.953 60.6416C197.703 59.7217 198.717 59.2617 199.994 59.2617C201.119 59.2617 202.007 59.6572 202.657 60.4482C203.308 61.2334 203.633 62.2969 203.633 63.6387V64.3418H196.751C196.763 65.6543 197.067 66.6562 197.665 67.3477C198.269 68.0391 199.13 68.3848 200.249 68.3848C200.806 68.3848 201.295 68.3438 201.717 68.2617C202.139 68.1797 202.651 68.0186 203.255 67.7783V68.5693C202.722 68.8037 202.224 68.9619 201.761 69.0439C201.304 69.1318 200.8 69.1758 200.249 69.1758ZM202.71 63.5684C202.71 62.4609 202.467 61.5967 201.98 60.9756C201.494 60.3486 200.809 60.0352 199.924 60.0352C199.045 60.0352 198.327 60.3398 197.771 60.9492C197.22 61.5586 196.897 62.4316 196.804 63.5684H202.71ZM209.24 69H208.361L204.67 59.4463H205.566L208.036 65.9414C208.37 66.7969 208.616 67.5264 208.774 68.1299H208.827C209.056 67.3447 209.302 66.6094 209.565 65.9238L212.035 59.4463H212.932L209.24 69ZM218.39 69.1758C217.007 69.1758 215.923 68.748 215.138 67.8926C214.364 67.0371 213.978 65.8447 213.978 64.3154C213.978 62.7861 214.35 61.5615 215.094 60.6416C215.844 59.7217 216.857 59.2617 218.135 59.2617C219.26 59.2617 220.147 59.6572 220.798 60.4482C221.448 61.2334 221.773 62.2969 221.773 63.6387V64.3418H214.892C214.903 65.6543 215.208 66.6562 215.806 67.3477C216.409 68.0391 217.271 68.3848 218.39 68.3848C218.946 68.3848 219.436 68.3438 219.857 68.2617C220.279 68.1797 220.792 68.0186 221.396 67.7783V68.5693C220.862 68.8037 220.364 68.9619 219.901 69.0439C219.444 69.1318 218.94 69.1758 218.39 69.1758ZM220.851 63.5684C220.851 62.4609 220.607 61.5967 220.121 60.9756C219.635 60.3486 218.949 60.0352 218.064 60.0352C217.186 60.0352 216.468 60.3398 215.911 60.9492C215.36 61.5586 215.038 62.4316 214.944 63.5684H220.851ZM225.28 69H224.41V55.3242H225.28V69ZM227.926 64.21C227.926 62.6572 228.304 61.4443 229.06 60.5713C229.815 59.6982 230.85 59.2617 232.162 59.2617C233.48 59.2617 234.512 59.7041 235.256 60.5889C236.006 61.4736 236.381 62.6895 236.381 64.2363C236.381 65.7773 236.003 66.9873 235.247 67.8662C234.491 68.7393 233.448 69.1758 232.118 69.1758C232.089 69.1758 232.057 69.1758 232.021 69.1758C230.809 69.1758 229.821 68.7275 229.06 67.8311C228.304 66.9346 227.926 65.7715 227.926 64.3418C227.926 64.2949 227.926 64.251 227.926 64.21ZM232.153 68.3848C233.208 68.3848 234.022 68.0186 234.597 67.2861C235.171 66.5537 235.458 65.5283 235.458 64.21C235.458 62.8857 235.165 61.8633 234.579 61.1426C233.999 60.416 233.182 60.0527 232.127 60.0527C231.078 60.0527 230.267 60.416 229.692 61.1426C229.124 61.8633 228.84 62.8828 228.84 64.2012C228.84 65.5137 229.127 66.542 229.701 67.2861C230.281 68.0186 231.099 68.3848 232.153 68.3848ZM243.14 59.2617C244.429 59.2617 245.41 59.6865 246.084 60.5361C246.764 61.3799 247.104 62.5986 247.104 64.1924C247.104 65.7803 246.746 67.0078 246.031 67.875C245.322 68.7422 244.353 69.1758 243.122 69.1758C241.657 69.1758 240.585 68.625 239.905 67.5234H239.844L239.87 68.2617C239.894 68.6426 239.905 69.1172 239.905 69.6855V73.3242H239.035V59.4463H239.773L239.94 60.8086H239.993C240.655 59.7773 241.704 59.2617 243.14 59.2617ZM239.905 63.9639V64.2451C239.905 65.7393 240.154 66.8057 240.652 67.4443C241.15 68.083 241.968 68.4023 243.104 68.4023C244.083 68.4023 244.839 68.0391 245.372 67.3125C245.905 66.5859 246.172 65.5693 246.172 64.2627C246.172 61.4561 245.161 60.0527 243.14 60.0527C242.032 60.0527 241.215 60.3604 240.688 60.9756C240.166 61.585 239.905 62.5811 239.905 63.9639ZM259.426 59.2617C260.48 59.2617 261.266 59.5459 261.781 60.1143C262.297 60.6768 262.555 61.5557 262.555 62.751V69H261.693V62.7334C261.693 61.8076 261.512 61.1309 261.148 60.7031C260.791 60.2695 260.234 60.0527 259.479 60.0527C258.494 60.0527 257.768 60.3223 257.299 60.8613C256.836 61.4004 256.604 62.2471 256.604 63.4014V69H255.717V62.4697C255.717 60.8584 254.979 60.0527 253.502 60.0527C252.5 60.0527 251.771 60.3457 251.313 60.9316C250.856 61.5117 250.628 62.4434 250.628 63.7266V69H249.758V59.4463H250.479L250.663 60.7559H250.716C250.979 60.2871 251.352 59.9209 251.832 59.6572C252.318 59.3936 252.857 59.2617 253.449 59.2617C254.955 59.2617 255.922 59.8271 256.35 60.958H256.385C256.695 60.4131 257.111 59.9941 257.633 59.7012C258.16 59.4082 258.758 59.2617 259.426 59.2617ZM269.507 69.1758C268.124 69.1758 267.04 68.748 266.255 67.8926C265.481 67.0371 265.095 65.8447 265.095 64.3154C265.095 62.7861 265.467 61.5615 266.211 60.6416C266.961 59.7217 267.975 59.2617 269.252 59.2617C270.377 59.2617 271.265 59.6572 271.915 60.4482C272.565 61.2334 272.891 62.2969 272.891 63.6387V64.3418H266.009C266.021 65.6543 266.325 66.6562 266.923 67.3477C267.526 68.0391 268.388 68.3848 269.507 68.3848C270.063 68.3848 270.553 68.3438 270.975 68.2617C271.396 68.1797 271.909 68.0186 272.513 67.7783V68.5693C271.979 68.8037 271.481 68.9619 271.019 69.0439C270.562 69.1318 270.058 69.1758 269.507 69.1758ZM271.968 63.5684C271.968 62.4609 271.725 61.5967 271.238 60.9756C270.752 60.3486 270.066 60.0352 269.182 60.0352C268.303 60.0352 267.585 60.3398 267.028 60.9492C266.478 61.5586 266.155 62.4316 266.062 63.5684H271.968ZM279.799 59.2617C281.967 59.2617 283.051 60.4248 283.051 62.751V69H282.189V62.8037C282.189 61.8486 281.987 61.1514 281.583 60.7119C281.185 60.2725 280.558 60.0527 279.702 60.0527C278.571 60.0527 277.736 60.3398 277.197 60.9141C276.664 61.4883 276.397 62.4258 276.397 63.7266V69H275.527V59.4463H276.266L276.433 60.7559H276.485C277.112 59.7598 278.217 59.2617 279.799 59.2617ZM287.067 59.4463H289.871V60.2021H287.067V66.249C287.067 66.9814 287.196 67.5234 287.454 67.875C287.712 68.2266 288.119 68.4023 288.676 68.4023C289.232 68.4023 289.71 68.3555 290.108 68.2617V68.9648C289.687 69.1055 289.2 69.1758 288.649 69.1758C287.806 69.1758 287.182 68.9502 286.777 68.499C286.379 68.0479 286.18 67.3389 286.18 66.3721V60.2021H284.765V59.6924L286.18 59.2969L286.619 57.1348H287.067V59.4463Z" fill="white"/>
<path d="M204.699 33.1641C204.699 34.0195 204.523 34.8223 204.172 35.5723C203.832 36.3223 203.369 36.9785 202.783 37.541C202.209 38.1035 201.535 38.5488 200.762 38.877C200 39.1934 199.191 39.3516 198.336 39.3516H196.525C195.67 39.3516 194.855 39.1934 194.082 38.877C193.32 38.5488 192.646 38.1035 192.061 37.541C191.486 36.9785 191.023 36.3223 190.672 35.5723C190.332 34.8223 190.162 34.0195 190.162 33.1641V32.1621L192.43 31.793V33.1641C192.43 33.7266 192.541 34.2539 192.764 34.7461C192.998 35.2266 193.309 35.6543 193.695 36.0293C194.082 36.3926 194.527 36.6797 195.031 36.8906C195.547 37.1016 196.086 37.207 196.648 37.207H198.23C198.793 37.207 199.326 37.1016 199.83 36.8906C200.334 36.6797 200.779 36.3926 201.166 36.0293C201.553 35.6543 201.857 35.2266 202.08 34.7461C202.314 34.2539 202.432 33.7266 202.432 33.1641V32.4082C202.432 31.541 202.262 30.8203 201.922 30.2461C201.582 29.6719 201.131 29.1855 200.568 28.7871C200.006 28.377 199.367 28.0312 198.652 27.75C197.949 27.4688 197.223 27.1875 196.473 26.9062C195.723 26.625 194.99 26.3145 194.275 25.9746C193.572 25.6348 192.939 25.2129 192.377 24.709C191.814 24.1934 191.363 23.5664 191.023 22.8281C190.684 22.0898 190.514 21.1816 190.514 20.1035V19.6289C190.514 18.7734 190.672 17.9707 190.988 17.2207C191.316 16.4707 191.762 15.8145 192.324 15.252C192.887 14.6895 193.543 14.25 194.293 13.9336C195.055 13.6055 195.863 13.4414 196.719 13.4414H198.336C199.191 13.4414 199.994 13.6055 200.744 13.9336C201.494 14.25 202.15 14.6895 202.713 15.252C203.275 15.8145 203.715 16.4707 204.031 17.2207C204.359 17.9707 204.523 18.7734 204.523 19.6289V20.2793L202.256 20.6484V19.6289C202.256 19.0664 202.15 18.5449 201.939 18.0645C201.729 17.5723 201.441 17.1445 201.078 16.7812C200.715 16.418 200.287 16.1309 199.795 15.9199C199.314 15.709 198.793 15.6035 198.23 15.6035H196.824C196.262 15.6035 195.734 15.709 195.242 15.9199C194.762 16.1309 194.334 16.418 193.959 16.7812C193.596 17.1445 193.309 17.5723 193.098 18.0645C192.887 18.5449 192.781 19.0664 192.781 19.6289V20.1035C192.781 20.9121 192.951 21.5918 193.291 22.1426C193.631 22.6934 194.082 23.168 194.645 23.5664C195.207 23.9531 195.84 24.293 196.543 24.5859C197.258 24.8672 197.99 25.1602 198.74 25.4648C199.49 25.7578 200.217 26.0859 200.92 26.4492C201.635 26.8008 202.273 27.2402 202.836 27.7676C203.398 28.2832 203.85 28.916 204.189 29.666C204.529 30.416 204.699 31.3301 204.699 32.4082V33.1641ZM215.422 39C214.766 39 214.145 38.877 213.559 38.6309C212.984 38.3848 212.48 38.0449 212.047 37.6113C211.625 37.1777 211.285 36.6738 211.027 36.0996C210.781 35.5254 210.658 34.9102 210.658 34.2539V23.0566H207.424V21H210.658V16.6758L212.82 16.3242V21H217.391V23.0566H212.82V34.3594C212.82 34.7227 212.885 35.0625 213.014 35.3789C213.154 35.6836 213.342 35.9531 213.576 36.1875C213.811 36.4219 214.086 36.6094 214.402 36.75C214.719 36.8789 215.059 36.9434 215.422 36.9434H217.391V39H215.422ZM232.684 39L231.488 37.1719C230.996 37.8398 230.381 38.373 229.643 38.7715C228.904 39.1582 228.096 39.3516 227.217 39.3516H226.672C225.945 39.3516 225.26 39.2168 224.615 38.9473C223.971 38.666 223.408 38.2852 222.928 37.8047C222.447 37.3242 222.066 36.7617 221.785 36.1172C221.516 35.4727 221.381 34.7871 221.381 34.0605V21H223.543V34.1836C223.543 34.6172 223.625 35.0273 223.789 35.4141C223.953 35.7891 224.176 36.1172 224.457 36.3984C224.738 36.6797 225.066 36.9023 225.441 37.0664C225.828 37.2305 226.238 37.3125 226.672 37.3125H228.113C228.547 37.3125 228.951 37.2305 229.326 37.0664C229.713 36.9023 230.047 36.6797 230.328 36.3984C230.609 36.1172 230.832 35.7891 230.996 35.4141C231.16 35.0273 231.242 34.6172 231.242 34.1836V21H233.404V39H232.684ZM249.031 39L247.836 37.1719C247.344 37.8398 246.729 38.373 245.99 38.7715C245.252 39.1582 244.443 39.3516 243.564 39.3516H243.02C242.293 39.3516 241.607 39.2168 240.963 38.9473C240.318 38.666 239.756 38.2852 239.275 37.8047C238.795 37.3242 238.414 36.7617 238.133 36.1172C237.863 35.4727 237.729 34.7871 237.729 34.0605V25.9395C237.729 25.2129 237.863 24.5273 238.133 23.8828C238.414 23.2383 238.795 22.6758 239.275 22.1953C239.756 21.7148 240.318 21.3398 240.963 21.0703C241.607 20.7891 242.293 20.6484 243.02 20.6484H243.564C244.373 20.6484 245.123 20.8125 245.814 21.1406C246.506 21.4688 247.098 21.9258 247.59 22.5117V13.793H249.752V39H249.031ZM247.59 25.8164C247.59 25.3828 247.508 24.9785 247.344 24.6035C247.18 24.2168 246.957 23.8828 246.676 23.6016C246.395 23.3203 246.061 23.0977 245.674 22.9336C245.299 22.7695 244.895 22.6875 244.461 22.6875H243.02C242.586 22.6875 242.176 22.7695 241.789 22.9336C241.414 23.0977 241.086 23.3203 240.805 23.6016C240.523 23.8828 240.301 24.2168 240.137 24.6035C239.973 24.9785 239.891 25.3828 239.891 25.8164V34.1836C239.891 34.6172 239.973 35.0273 240.137 35.4141C240.301 35.7891 240.523 36.1172 240.805 36.3984C241.086 36.6797 241.414 36.9023 241.789 37.0664C242.176 37.2305 242.586 37.3125 243.02 37.3125H244.461C244.895 37.3125 245.299 37.2305 245.674 37.0664C246.061 36.9023 246.395 36.6797 246.676 36.3984C246.957 36.1172 247.18 35.7891 247.344 35.4141C247.508 35.0273 247.59 34.6172 247.59 34.1836V25.8164ZM254.621 16.6758V13.793H257.135V16.6758H254.621ZM254.797 39V21H256.959V39H254.797ZM274.045 34.0605C274.045 34.7871 273.904 35.4727 273.623 36.1172C273.354 36.7617 272.979 37.3242 272.498 37.8047C272.018 38.2852 271.455 38.666 270.811 38.9473C270.166 39.2168 269.48 39.3516 268.754 39.3516H267.312C266.586 39.3516 265.9 39.2168 265.256 38.9473C264.611 38.666 264.049 38.2852 263.568 37.8047C263.088 37.3242 262.707 36.7617 262.426 36.1172C262.156 35.4727 262.021 34.7871 262.021 34.0605V25.9395C262.021 25.2129 262.156 24.5273 262.426 23.8828C262.707 23.2383 263.088 22.6758 263.568 22.1953C264.049 21.7148 264.611 21.3398 265.256 21.0703C265.9 20.7891 266.586 20.6484 267.312 20.6484H268.754C269.48 20.6484 270.166 20.7891 270.811 21.0703C271.455 21.3398 272.018 21.7148 272.498 22.1953C272.979 22.6758 273.354 23.2383 273.623 23.8828C273.904 24.5273 274.045 25.2129 274.045 25.9395V34.0605ZM271.883 25.8164C271.883 25.3828 271.801 24.9785 271.637 24.6035C271.473 24.2168 271.25 23.8828 270.969 23.6016C270.688 23.3203 270.354 23.0977 269.967 22.9336C269.592 22.7695 269.188 22.6875 268.754 22.6875H267.312C266.879 22.6875 266.469 22.7695 266.082 22.9336C265.707 23.0977 265.379 23.3203 265.098 23.6016C264.816 23.8828 264.594 24.2168 264.43 24.6035C264.266 24.9785 264.184 25.3828 264.184 25.8164V34.1836C264.184 34.6172 264.266 35.0273 264.43 35.4141C264.594 35.7891 264.816 36.1172 265.098 36.3984C265.379 36.6797 265.707 36.9023 266.082 37.0664C266.469 37.2305 266.879 37.3125 267.312 37.3125H268.754C269.188 37.3125 269.592 37.2305 269.967 37.0664C270.354 36.9023 270.688 36.6797 270.969 36.3984C271.25 36.1172 271.473 35.7891 271.637 35.4141C271.801 35.0273 271.883 34.6172 271.883 34.1836V25.8164ZM290.744 34.4297C290.744 35.1562 290.598 35.8242 290.305 36.4336C290.012 37.0312 289.613 37.5469 289.109 37.9805C288.605 38.4141 288.02 38.7539 287.352 39C286.695 39.2344 286.004 39.3516 285.277 39.3516H283.836C283.109 39.3516 282.412 39.2168 281.744 38.9473C281.088 38.666 280.508 38.2852 280.004 37.8047C279.512 37.3242 279.113 36.7617 278.809 36.1172C278.516 35.4727 278.369 34.7871 278.369 34.0605V33.3398L280.531 32.9883V34.1836C280.531 34.6172 280.619 35.0273 280.795 35.4141C280.982 35.7891 281.229 36.1172 281.533 36.3984C281.838 36.6797 282.189 36.9023 282.588 37.0664C282.986 37.2305 283.402 37.3125 283.836 37.3125H285.277C285.711 37.3125 286.127 37.248 286.525 37.1191C286.924 36.9902 287.275 36.8086 287.58 36.5742C287.896 36.3281 288.143 36.0352 288.318 35.6953C288.506 35.3555 288.6 34.9688 288.6 34.5352C288.6 33.8906 288.459 33.3633 288.178 32.9531C287.896 32.543 287.521 32.2031 287.053 31.9336C286.596 31.6523 286.068 31.4238 285.471 31.248C284.885 31.0605 284.281 30.8789 283.66 30.7031C283.039 30.5156 282.43 30.3047 281.832 30.0703C281.246 29.8359 280.719 29.5312 280.25 29.1562C279.793 28.7695 279.424 28.2891 279.143 27.7148C278.861 27.1406 278.721 26.4258 278.721 25.5703C278.721 24.8438 278.861 24.1816 279.143 23.584C279.424 22.9746 279.805 22.4531 280.285 22.0195C280.766 21.5859 281.322 21.252 281.955 21.0176C282.6 20.7715 283.285 20.6484 284.012 20.6484H285.277C286.004 20.6484 286.689 20.7891 287.334 21.0703C287.979 21.3398 288.541 21.7148 289.021 22.1953C289.502 22.6758 289.877 23.2383 290.146 23.8828C290.428 24.5273 290.568 25.2129 290.568 25.9395V26.0098L288.406 26.3613V25.8164C288.406 25.3828 288.324 24.9785 288.16 24.6035C287.996 24.2168 287.773 23.8828 287.492 23.6016C287.211 23.3203 286.877 23.0977 286.49 22.9336C286.115 22.7695 285.711 22.6875 285.277 22.6875H284.012C283.578 22.6875 283.168 22.752 282.781 22.8809C282.406 23.0098 282.078 23.1973 281.797 23.4434C281.516 23.6777 281.293 23.9648 281.129 24.3047C280.965 24.6445 280.883 25.0312 280.883 25.4648C280.883 26.0859 281.023 26.5957 281.305 26.9941C281.586 27.3809 281.955 27.709 282.412 27.9785C282.881 28.248 283.408 28.4766 283.994 28.6641C284.592 28.8398 285.195 29.0273 285.805 29.2266C286.426 29.4141 287.029 29.6309 287.615 29.877C288.213 30.123 288.74 30.4395 289.197 30.8262C289.666 31.2129 290.041 31.6992 290.322 32.2852C290.604 32.8594 290.744 33.5742 290.744 34.4297Z" fill="white"/>
<path d="M19.446 40H2.73V17.614C2.73 15.542 3.388 13.876 4.704 12.616C5.6 11.776 6.608 11.23 7.728 10.978C8.848 10.726 10.22 10.6 11.844 10.6H19.446V14.296H11.298C8.218 14.296 6.678 15.584 6.678 18.16V22.948H16.38V26.644H6.678V36.304H19.446V40ZM24.0581 19.84H31.3241C34.4321 19.84 36.6581 20.302 38.0021 21.226C39.2061 22.038 39.9621 23.018 40.2701 24.166C40.6061 25.286 40.7741 26.77 40.7741 28.618V40H37.0781V28.66C37.0781 28.156 37.0641 27.736 37.0361 27.4C37.0081 27.036 36.9101 26.588 36.7421 26.056C36.5741 25.496 36.3361 25.048 36.0281 24.712C35.7201 24.348 35.2721 24.04 34.6841 23.788C34.0961 23.508 33.3821 23.368 32.5421 23.368H27.7541V40H24.0581V19.84ZM46.0425 19.84H53.3085C56.4165 19.84 58.6425 20.302 59.9865 21.226C61.1905 22.038 61.9465 23.018 62.2545 24.166C62.5905 25.286 62.7585 26.77 62.7585 28.618V40H59.0625V28.66C59.0625 28.156 59.0485 27.736 59.0205 27.4C58.9925 27.036 58.8945 26.588 58.7265 26.056C58.5585 25.496 58.3205 25.048 58.0125 24.712C57.7045 24.348 57.2565 24.04 56.6685 23.788C56.0805 23.508 55.3665 23.368 54.5265 23.368H49.7385V40H46.0425V19.84ZM77.6869 19.42C82.4469 19.616 84.8269 21.59 84.8269 25.342C84.8269 30.018 81.7609 32.356 75.6289 32.356H73.9069V29.122H75.9229C77.7989 29.122 79.1009 28.842 79.8289 28.282C80.5569 27.694 80.9209 26.728 80.9209 25.384C80.9209 24.516 80.5989 23.872 79.9549 23.452C79.3109 23.004 78.4849 22.78 77.4769 22.78C75.4889 22.78 73.9209 23.48 72.7729 24.88C71.6529 26.28 71.0929 27.96 71.0929 29.92C71.0929 31.992 71.6949 33.672 72.8989 34.96C74.1309 36.248 75.7269 36.892 77.6869 36.892C79.4509 36.892 80.8929 36.458 82.0129 35.59L84.5329 38.068C82.6009 39.636 80.3189 40.42 77.6869 40.42C74.4949 40.42 71.9469 39.482 70.0429 37.606C68.1389 35.73 67.1869 33.308 67.1869 30.34C67.1869 27.036 68.1249 24.362 70.0009 22.318C71.8769 20.274 74.4389 19.308 77.6869 19.42ZM100.236 28.156V31.936C99.172 31.124 97.87 30.718 96.33 30.718C95.014 30.718 93.992 30.984 93.264 31.516C92.536 32.02 92.172 32.748 92.172 33.7C92.172 35.548 93.544 36.472 96.288 36.472H101.832V28.45C101.832 25.062 100.18 23.368 96.876 23.368H90.156V19.84H97.086C99.802 19.84 101.888 20.512 103.344 21.856C104.8 23.2 105.528 25.132 105.528 27.652V40H96.162C93.782 40 91.892 39.468 90.492 38.404C89.092 37.34 88.392 35.786 88.392 33.742C88.392 31.698 89.134 30.144 90.618 29.08C92.102 28.016 93.964 27.484 96.204 27.484C97.464 27.484 98.808 27.708 100.236 28.156ZM119.511 40C116.767 40 114.415 39.076 112.455 37.228C110.495 35.38 109.515 33.014 109.515 30.13C109.515 27.218 110.495 24.782 112.455 22.822C114.443 20.834 116.893 19.84 119.805 19.84H129.675V39.412C129.675 40.672 129.507 41.806 129.171 42.814C128.863 43.822 128.415 44.676 127.827 45.376C127.239 46.076 126.707 46.622 126.231 47.014C125.755 47.406 125.181 47.812 124.509 48.232C122.773 49.128 120.659 49.576 118.167 49.576H113.463V46.048H117.789C120.253 46.048 122.003 45.74 123.039 45.124C124.943 44.06 125.895 42.296 125.895 39.832V23.368H119.805C117.817 23.368 116.235 23.984 115.059 25.216C113.883 26.448 113.295 28.086 113.295 30.13C113.295 32.09 113.897 33.644 115.101 34.792C116.333 35.912 117.803 36.472 119.511 36.472C121.359 36.472 122.983 35.968 124.383 34.96V38.74C122.871 39.58 121.247 40 119.511 40ZM137.228 22.486C139.188 20.442 141.638 19.42 144.578 19.42C146.006 19.42 147.336 19.7 148.568 20.26C149.828 20.792 150.92 21.534 151.844 22.486C152.796 23.438 153.538 24.558 154.07 25.846C154.602 27.106 154.868 28.464 154.868 29.92C154.868 31.376 154.602 32.748 154.07 34.036C153.566 35.296 152.852 36.402 151.928 37.354C151.004 38.306 149.912 39.062 148.652 39.622C147.392 40.154 146.034 40.42 144.578 40.42C143.094 40.42 141.722 40.154 140.462 39.622C139.23 39.062 138.152 38.306 137.228 37.354C136.304 36.402 135.576 35.296 135.044 34.036C134.54 32.748 134.288 31.376 134.288 29.92C134.288 26.952 135.268 24.474 137.228 22.486ZM144.578 22.948C142.618 22.948 141.036 23.592 139.832 24.88C138.656 26.168 138.068 27.848 138.068 29.92C138.068 31.992 138.656 33.672 139.832 34.96C141.036 36.248 142.618 36.892 144.578 36.892C146.566 36.892 148.148 36.248 149.324 34.96C150.5 33.644 151.088 31.964 151.088 29.92C151.088 27.876 150.5 26.21 149.324 24.922C148.148 23.606 146.566 22.948 144.578 22.948ZM159.492 19.84H166.758C169.866 19.84 172.092 20.302 173.436 21.226C174.64 22.038 175.396 23.018 175.704 24.166C176.04 25.286 176.208 26.77 176.208 28.618V40H172.512V28.66C172.512 28.156 172.498 27.736 172.47 27.4C172.442 27.036 172.344 26.588 172.176 26.056C172.008 25.496 171.77 25.048 171.462 24.712C171.154 24.348 170.706 24.04 170.118 23.788C169.53 23.508 168.816 23.368 167.976 23.368H163.188V40H159.492V19.84Z" fill="white"/>
</svg>
