<svg width="429" height="73" viewBox="0 0 429 73" fill="none" xmlns="http://www.w3.org/2000/svg">
<path d="M14.5586 67H13.8203L10.999 57.0859C10.7588 56.2656 10.583 55.5977 10.4717 55.082C10.3662 55.6387 10.2402 56.1982 10.0938 56.7607C9.94727 57.3174 8.99512 60.7305 7.2373 67H6.48145L2.94824 54.1504H3.88867L6.13867 62.4297C6.54883 63.9941 6.80078 65.043 6.89453 65.5762C7.03516 64.791 7.33398 63.5811 7.79102 61.9463L9.98828 54.1504H10.9814L13.5566 63.0977C13.8438 64.082 14.0576 64.9141 14.1982 65.5938C14.2744 65.1719 14.3711 64.7236 14.4883 64.249C14.6113 63.7744 15.5166 60.4082 17.2041 54.1504H18.1094L14.5586 67ZM24.0244 67.1758C22.6416 67.1758 21.5576 66.748 20.7725 65.8926C19.999 65.0371 19.6123 63.8447 19.6123 62.3154C19.6123 60.7861 19.9844 59.5615 20.7285 58.6416C21.4785 57.7217 22.4922 57.2617 23.7695 57.2617C24.8945 57.2617 25.7822 57.6572 26.4326 58.4482C27.083 59.2334 27.4082 60.2969 27.4082 61.6387V62.3418H20.5264C20.5381 63.6543 20.8428 64.6562 21.4404 65.3477C22.0439 66.0391 22.9053 66.3848 24.0244 66.3848C24.5811 66.3848 25.0703 66.3438 25.4922 66.2617C25.9141 66.1797 26.4268 66.0186 27.0303 65.7783V66.5693C26.4971 66.8037 25.999 66.9619 25.5361 67.0439C25.0791 67.1318 24.5752 67.1758 24.0244 67.1758ZM26.4854 61.5684C26.4854 60.4609 26.2422 59.5967 25.7559 58.9756C25.2695 58.3486 24.584 58.0352 23.6992 58.0352C22.8203 58.0352 22.1025 58.3398 21.5459 58.9492C20.9951 59.5586 20.6729 60.4316 20.5791 61.5684H26.4854ZM30.915 53.3242V56.7607C30.915 57.3291 30.9033 57.8037 30.8799 58.1846L30.8535 58.9316H30.915C31.2783 58.3574 31.7148 57.9355 32.2246 57.666C32.7402 57.3965 33.3584 57.2617 34.0791 57.2617C35.4092 57.2617 36.4141 57.6807 37.0938 58.5186C37.7734 59.3564 38.1133 60.5781 38.1133 62.1836C38.1133 63.7891 37.7529 65.0225 37.0322 65.8838C36.3291 66.7451 35.333 67.1758 34.0439 67.1758C33.3643 67.1758 32.752 67.0352 32.207 66.7539C31.6621 66.4727 31.2314 66.0742 30.915 65.5586H30.8359L30.5898 67H30.0449V53.3242H30.915ZM30.915 62.21V62.3594C30.915 63.8008 31.167 64.835 31.6709 65.4619C32.1807 66.0889 32.96 66.4023 34.0088 66.4023C35.0635 66.4023 35.8545 66.042 36.3818 65.3213C36.915 64.5947 37.1816 63.5518 37.1816 62.1924C37.1816 59.4326 36.1416 58.0527 34.0615 58.0527C32.9424 58.0527 32.1367 58.375 31.6445 59.0195C31.1582 59.6641 30.915 60.7275 30.915 62.21ZM52.6855 54.9766H46.5596V59.8369H52.3428V60.6631H46.5596V66.1826H52.6855V67H45.6631V54.1504H52.6855V54.9766ZM59.6465 57.2617C61.8145 57.2617 62.8984 58.4248 62.8984 60.751V67H62.0371V60.8037C62.0371 59.8486 61.835 59.1514 61.4307 58.7119C61.0322 58.2725 60.4053 58.0527 59.5498 58.0527C58.4189 58.0527 57.584 58.3398 57.0449 58.9141C56.5117 59.4883 56.2451 60.4258 56.2451 61.7266V67H55.375V57.4463H56.1133L56.2803 58.7559H56.333C56.96 57.7598 58.0645 57.2617 59.6465 57.2617ZM68.4092 65.6816H70.0791C71.1221 65.6816 71.916 65.8926 72.4609 66.3145C73.0117 66.7305 73.2871 67.3486 73.2871 68.1689C73.2871 69.1768 72.877 69.9531 72.0566 70.498C71.2422 71.0488 70.0791 71.3242 68.5674 71.3242C67.3721 71.3242 66.4434 71.0928 65.7812 70.6299C65.1191 70.167 64.7881 69.5225 64.7881 68.6963C64.7881 68.0518 64.9873 67.5098 65.3857 67.0703C65.79 66.6367 66.3467 66.3408 67.0557 66.1826C66.7627 66.0537 66.5312 65.875 66.3613 65.6465C66.1914 65.418 66.1064 65.1602 66.1064 64.873C66.1064 64.2285 66.5137 63.666 67.3281 63.1855C66.7715 62.957 66.3379 62.5996 66.0273 62.1133C65.7168 61.6211 65.5615 61.0586 65.5615 60.4258C65.5615 59.4648 65.8633 58.6973 66.4668 58.123C67.0762 57.5488 67.8965 57.2617 68.9277 57.2617C69.5605 57.2617 70.0469 57.3232 70.3867 57.4463H73.4453V58.0527L71.4678 58.1758C71.9951 58.832 72.2588 59.5527 72.2588 60.3379C72.2588 61.2637 71.9541 62.0107 71.3447 62.5791C70.7354 63.1475 69.9121 63.4316 68.875 63.4316C68.4414 63.4316 68.1367 63.4141 67.9609 63.3789C67.252 63.748 66.8975 64.2227 66.8975 64.8027C66.8975 65.1074 67.0146 65.3301 67.249 65.4707C67.4834 65.6113 67.8701 65.6816 68.4092 65.6816ZM71.3799 60.3643C71.3799 59.5791 71.1631 58.9814 70.7295 58.5713C70.3018 58.1553 69.6982 57.9473 68.9189 57.9473C68.1396 57.9473 67.5303 58.167 67.0908 58.6064C66.6572 59.0459 66.4404 59.6436 66.4404 60.3994C66.4404 61.1553 66.6631 61.7383 67.1084 62.1484C67.5596 62.5527 68.1719 62.7549 68.9453 62.7549C69.7188 62.7549 70.3164 62.5527 70.7383 62.1484C71.166 61.7441 71.3799 61.1494 71.3799 60.3643ZM69.9033 66.5518H68.3389C66.5869 66.5518 65.7109 67.2402 65.7109 68.6172C65.7109 69.9297 66.6865 70.5859 68.6377 70.5859C71.1455 70.5859 72.3994 69.7861 72.3994 68.1865C72.3994 67.6123 72.2031 67.1963 71.8105 66.9385C71.418 66.6807 70.7822 66.5518 69.9033 66.5518ZM75.8447 53.9482C76.0264 53.9482 76.167 54.0215 76.2666 54.168C76.3721 54.3145 76.4248 54.5225 76.4248 54.792C76.4248 55.0557 76.3721 55.2637 76.2666 55.416C76.167 55.5684 76.0264 55.6445 75.8447 55.6445C75.4756 55.6445 75.291 55.3633 75.291 54.8008C75.291 54.2324 75.4756 53.9482 75.8447 53.9482ZM76.2842 67H75.4141V57.4463H76.2842V67ZM83.7637 57.2617C85.9316 57.2617 87.0156 58.4248 87.0156 60.751V67H86.1543V60.8037C86.1543 59.8486 85.9521 59.1514 85.5479 58.7119C85.1494 58.2725 84.5225 58.0527 83.667 58.0527C82.5361 58.0527 81.7012 58.3398 81.1621 58.9141C80.6289 59.4883 80.3623 60.4258 80.3623 61.7266V67H79.4922V57.4463H80.2305L80.3975 58.7559H80.4502C81.0771 57.7598 82.1816 57.2617 83.7637 57.2617ZM93.9678 67.1758C92.585 67.1758 91.501 66.748 90.7158 65.8926C89.9424 65.0371 89.5557 63.8447 89.5557 62.3154C89.5557 60.7861 89.9277 59.5615 90.6719 58.6416C91.4219 57.7217 92.4355 57.2617 93.7129 57.2617C94.8379 57.2617 95.7256 57.6572 96.376 58.4482C97.0264 59.2334 97.3516 60.2969 97.3516 61.6387V62.3418H90.4697C90.4814 63.6543 90.7861 64.6562 91.3838 65.3477C91.9873 66.0391 92.8486 66.3848 93.9678 66.3848C94.5244 66.3848 95.0137 66.3438 95.4355 66.2617C95.8574 66.1797 96.3701 66.0186 96.9736 65.7783V66.5693C96.4404 66.8037 95.9424 66.9619 95.4795 67.0439C95.0225 67.1318 94.5186 67.1758 93.9678 67.1758ZM96.4287 61.5684C96.4287 60.4609 96.1855 59.5967 95.6992 58.9756C95.2129 58.3486 94.5273 58.0352 93.6426 58.0352C92.7637 58.0352 92.0459 58.3398 91.4893 58.9492C90.9385 59.5586 90.6162 60.4316 90.5225 61.5684H96.4287ZM103.847 67.1758C102.464 67.1758 101.38 66.748 100.595 65.8926C99.8213 65.0371 99.4346 63.8447 99.4346 62.3154C99.4346 60.7861 99.8066 59.5615 100.551 58.6416C101.301 57.7217 102.314 57.2617 103.592 57.2617C104.717 57.2617 105.604 57.6572 106.255 58.4482C106.905 59.2334 107.23 60.2969 107.23 61.6387V62.3418H100.349C100.36 63.6543 100.665 64.6562 101.263 65.3477C101.866 66.0391 102.728 66.3848 103.847 66.3848C104.403 66.3848 104.893 66.3438 105.314 66.2617C105.736 66.1797 106.249 66.0186 106.853 65.7783V66.5693C106.319 66.8037 105.821 66.9619 105.358 67.0439C104.901 67.1318 104.397 67.1758 103.847 67.1758ZM106.308 61.5684C106.308 60.4609 106.064 59.5967 105.578 58.9756C105.092 58.3486 104.406 58.0352 103.521 58.0352C102.643 58.0352 101.925 58.3398 101.368 58.9492C100.817 59.5586 100.495 60.4316 100.401 61.5684H106.308ZM113.629 57.2617C114.016 57.2617 114.449 57.3027 114.93 57.3848L114.763 58.2285C114.37 58.123 113.957 58.0703 113.523 58.0703C112.709 58.0703 112.041 58.4189 111.52 59.1162C110.998 59.8076 110.737 60.6777 110.737 61.7266V67H109.867V57.4463H110.605L110.693 59.1689H110.755C111.159 58.4541 111.578 57.9619 112.012 57.6924C112.457 57.4053 112.996 57.2617 113.629 57.2617ZM117.312 53.9482C117.493 53.9482 117.634 54.0215 117.733 54.168C117.839 54.3145 117.892 54.5225 117.892 54.792C117.892 55.0557 117.839 55.2637 117.733 55.416C117.634 55.5684 117.493 55.6445 117.312 55.6445C116.942 55.6445 116.758 55.3633 116.758 54.8008C116.758 54.2324 116.942 53.9482 117.312 53.9482ZM117.751 67H116.881V57.4463H117.751V67ZM125.23 57.2617C127.398 57.2617 128.482 58.4248 128.482 60.751V67H127.621V60.8037C127.621 59.8486 127.419 59.1514 127.015 58.7119C126.616 58.2725 125.989 58.0527 125.134 58.0527C124.003 58.0527 123.168 58.3398 122.629 58.9141C122.096 59.4883 121.829 60.4258 121.829 61.7266V67H120.959V57.4463H121.697L121.864 58.7559H121.917C122.544 57.7598 123.648 57.2617 125.23 57.2617ZM133.993 65.6816H135.663C136.706 65.6816 137.5 65.8926 138.045 66.3145C138.596 66.7305 138.871 67.3486 138.871 68.1689C138.871 69.1768 138.461 69.9531 137.641 70.498C136.826 71.0488 135.663 71.3242 134.151 71.3242C132.956 71.3242 132.027 71.0928 131.365 70.6299C130.703 70.167 130.372 69.5225 130.372 68.6963C130.372 68.0518 130.571 67.5098 130.97 67.0703C131.374 66.6367 131.931 66.3408 132.64 66.1826C132.347 66.0537 132.115 65.875 131.945 65.6465C131.775 65.418 131.69 65.1602 131.69 64.873C131.69 64.2285 132.098 63.666 132.912 63.1855C132.355 62.957 131.922 62.5996 131.611 62.1133C131.301 61.6211 131.146 61.0586 131.146 60.4258C131.146 59.4648 131.447 58.6973 132.051 58.123C132.66 57.5488 133.48 57.2617 134.512 57.2617C135.145 57.2617 135.631 57.3232 135.971 57.4463H139.029V58.0527L137.052 58.1758C137.579 58.832 137.843 59.5527 137.843 60.3379C137.843 61.2637 137.538 62.0107 136.929 62.5791C136.319 63.1475 135.496 63.4316 134.459 63.4316C134.025 63.4316 133.721 63.4141 133.545 63.3789C132.836 63.748 132.481 64.2227 132.481 64.8027C132.481 65.1074 132.599 65.3301 132.833 65.4707C133.067 65.6113 133.454 65.6816 133.993 65.6816ZM136.964 60.3643C136.964 59.5791 136.747 58.9814 136.313 58.5713C135.886 58.1553 135.282 57.9473 134.503 57.9473C133.724 57.9473 133.114 58.167 132.675 58.6064C132.241 59.0459 132.024 59.6436 132.024 60.3994C132.024 61.1553 132.247 61.7383 132.692 62.1484C133.144 62.5527 133.756 62.7549 134.529 62.7549C135.303 62.7549 135.9 62.5527 136.322 62.1484C136.75 61.7441 136.964 61.1494 136.964 60.3643ZM135.487 66.5518H133.923C132.171 66.5518 131.295 67.2402 131.295 68.6172C131.295 69.9297 132.271 70.5859 134.222 70.5859C136.729 70.5859 137.983 69.7861 137.983 68.1865C137.983 67.6123 137.787 67.1963 137.395 66.9385C137.002 66.6807 136.366 66.5518 135.487 66.5518ZM141.991 64.9082L142.097 65.0928C141.657 66.6396 141.147 68.0488 140.567 69.3203H139.996C140.447 67.6973 140.77 66.2266 140.963 64.9082H141.991ZM154.885 67.1758C153.08 67.1758 151.659 66.5928 150.622 65.4268C149.585 64.2549 149.066 62.626 149.066 60.54C149.066 60.499 149.066 60.4551 149.066 60.4082C149.066 59.1719 149.312 58.0615 149.805 57.0771C150.303 56.0869 151.012 55.3223 151.932 54.7832C152.857 54.2383 153.903 53.9658 155.069 53.9658C155.11 53.9658 155.148 53.9658 155.184 53.9658C156.426 53.9658 157.548 54.2002 158.55 54.6689L158.189 55.4775C157.24 55.0088 156.256 54.7744 155.236 54.7744C153.625 54.7744 152.356 55.29 151.431 56.3213C150.505 57.3525 150.042 58.7764 150.042 60.5928C150.042 62.4033 150.479 63.8154 151.352 64.8291C152.225 65.8428 153.473 66.3496 155.096 66.3496C156.162 66.3496 157.152 66.2119 158.066 65.9365V66.7275C157.217 67.0264 156.156 67.1758 154.885 67.1758ZM160.158 62.21C160.158 60.6572 160.536 59.4443 161.292 58.5713C162.048 57.6982 163.082 57.2617 164.395 57.2617C165.713 57.2617 166.744 57.7041 167.488 58.5889C168.238 59.4736 168.613 60.6895 168.613 62.2363C168.613 63.7773 168.235 64.9873 167.479 65.8662C166.724 66.7393 165.681 67.1758 164.351 67.1758C164.321 67.1758 164.289 67.1758 164.254 67.1758C163.041 67.1758 162.054 66.7275 161.292 65.8311C160.536 64.9346 160.158 63.7715 160.158 62.3418C160.158 62.2949 160.158 62.251 160.158 62.21ZM164.386 66.3848C165.44 66.3848 166.255 66.0186 166.829 65.2861C167.403 64.5537 167.69 63.5283 167.69 62.21C167.69 60.8857 167.397 59.8633 166.812 59.1426C166.231 58.416 165.414 58.0527 164.359 58.0527C163.311 58.0527 162.499 58.416 161.925 59.1426C161.356 59.8633 161.072 60.8828 161.072 62.2012C161.072 63.5137 161.359 64.542 161.934 65.2861C162.514 66.0186 163.331 66.3848 164.386 66.3848ZM175.539 57.2617C177.707 57.2617 178.791 58.4248 178.791 60.751V67H177.93V60.8037C177.93 59.8486 177.728 59.1514 177.323 58.7119C176.925 58.2725 176.298 58.0527 175.442 58.0527C174.312 58.0527 173.477 58.3398 172.938 58.9141C172.404 59.4883 172.138 60.4258 172.138 61.7266V67H171.268V57.4463H172.006L172.173 58.7559H172.226C172.853 57.7598 173.957 57.2617 175.539 57.2617ZM181.023 65.6465C181.961 66.127 182.934 66.3672 183.941 66.3672C184.949 66.3672 185.702 66.2148 186.2 65.9102C186.698 65.5996 186.947 65.1895 186.947 64.6797C186.947 64.1699 186.751 63.7539 186.358 63.4316C185.966 63.1035 185.312 62.7783 184.398 62.4561C183.484 62.1279 182.828 61.835 182.43 61.5771C182.031 61.3193 181.735 61.0322 181.542 60.7158C181.354 60.3994 181.261 60.0215 181.261 59.582C181.261 58.873 181.56 58.3076 182.157 57.8857C182.767 57.4697 183.596 57.2617 184.645 57.2617C185.699 57.2617 186.689 57.4551 187.615 57.8418L187.29 58.6328C186.329 58.2461 185.459 58.0527 184.68 58.0527C183.9 58.0527 183.282 58.1816 182.825 58.4395C182.368 58.6973 182.14 59.0664 182.14 59.5469C182.14 60.0215 182.315 60.4082 182.667 60.707C183.024 61.0059 183.675 61.3252 184.618 61.665C185.562 61.999 186.232 62.2949 186.631 62.5527C187.416 63.0449 187.809 63.71 187.809 64.5479C187.809 65.3799 187.483 66.0273 186.833 66.4902C186.183 66.9473 185.236 67.1758 183.994 67.1758C182.758 67.1758 181.768 66.9795 181.023 66.5869V65.6465ZM197.688 67H196.949L196.791 65.6816H196.738C196.111 66.6777 195.007 67.1758 193.425 67.1758C191.251 67.1758 190.164 66.0127 190.164 63.6865V57.4463H191.025V63.6338C191.025 64.5889 191.225 65.2861 191.623 65.7256C192.027 66.165 192.657 66.3848 193.513 66.3848C194.644 66.3848 195.479 66.0977 196.018 65.5234C196.557 64.9492 196.826 64.0146 196.826 62.7197V57.4463H197.688V67ZM201.757 67H200.887V53.3242H201.757V67ZM205.888 57.4463H208.691V58.2021H205.888V64.249C205.888 64.9814 206.017 65.5234 206.274 65.875C206.532 66.2266 206.939 66.4023 207.496 66.4023C208.053 66.4023 208.53 66.3555 208.929 66.2617V66.9648C208.507 67.1055 208.021 67.1758 207.47 67.1758C206.626 67.1758 206.002 66.9502 205.598 66.499C205.199 66.0479 205 65.3389 205 64.3721V58.2021H203.585V57.6924L205 57.2969L205.439 55.1348H205.888V57.4463ZM211.425 53.9482C211.606 53.9482 211.747 54.0215 211.847 54.168C211.952 54.3145 212.005 54.5225 212.005 54.792C212.005 55.0557 211.952 55.2637 211.847 55.416C211.747 55.5684 211.606 55.6445 211.425 55.6445C211.056 55.6445 210.871 55.3633 210.871 54.8008C210.871 54.2324 211.056 53.9482 211.425 53.9482ZM211.864 67H210.994V57.4463H211.864V67ZM219.344 57.2617C221.512 57.2617 222.596 58.4248 222.596 60.751V67H221.734V60.8037C221.734 59.8486 221.532 59.1514 221.128 58.7119C220.729 58.2725 220.103 58.0527 219.247 58.0527C218.116 58.0527 217.281 58.3398 216.742 58.9141C216.209 59.4883 215.942 60.4258 215.942 61.7266V67H215.072V57.4463H215.811L215.978 58.7559H216.03C216.657 57.7598 217.762 57.2617 219.344 57.2617ZM228.106 65.6816H229.776C230.819 65.6816 231.613 65.8926 232.158 66.3145C232.709 66.7305 232.984 67.3486 232.984 68.1689C232.984 69.1768 232.574 69.9531 231.754 70.498C230.939 71.0488 229.776 71.3242 228.265 71.3242C227.069 71.3242 226.141 71.0928 225.479 70.6299C224.816 70.167 224.485 69.5225 224.485 68.6963C224.485 68.0518 224.685 67.5098 225.083 67.0703C225.487 66.6367 226.044 66.3408 226.753 66.1826C226.46 66.0537 226.229 65.875 226.059 65.6465C225.889 65.418 225.804 65.1602 225.804 64.873C225.804 64.2285 226.211 63.666 227.025 63.1855C226.469 62.957 226.035 62.5996 225.725 62.1133C225.414 61.6211 225.259 61.0586 225.259 60.4258C225.259 59.4648 225.561 58.6973 226.164 58.123C226.773 57.5488 227.594 57.2617 228.625 57.2617C229.258 57.2617 229.744 57.3232 230.084 57.4463H233.143V58.0527L231.165 58.1758C231.692 58.832 231.956 59.5527 231.956 60.3379C231.956 61.2637 231.651 62.0107 231.042 62.5791C230.433 63.1475 229.609 63.4316 228.572 63.4316C228.139 63.4316 227.834 63.4141 227.658 63.3789C226.949 63.748 226.595 64.2227 226.595 64.8027C226.595 65.1074 226.712 65.3301 226.946 65.4707C227.181 65.6113 227.567 65.6816 228.106 65.6816ZM231.077 60.3643C231.077 59.5791 230.86 58.9814 230.427 58.5713C229.999 58.1553 229.396 57.9473 228.616 57.9473C227.837 57.9473 227.228 58.167 226.788 58.6064C226.354 59.0459 226.138 59.6436 226.138 60.3994C226.138 61.1553 226.36 61.7383 226.806 62.1484C227.257 62.5527 227.869 62.7549 228.643 62.7549C229.416 62.7549 230.014 62.5527 230.436 62.1484C230.863 61.7441 231.077 61.1494 231.077 60.3643ZM229.601 66.5518H228.036C226.284 66.5518 225.408 67.2402 225.408 68.6172C225.408 69.9297 226.384 70.5859 228.335 70.5859C230.843 70.5859 232.097 69.7861 232.097 68.1865C232.097 67.6123 231.9 67.1963 231.508 66.9385C231.115 66.6807 230.479 66.5518 229.601 66.5518ZM236.104 64.9082L236.21 65.0928C235.771 66.6396 235.261 68.0488 234.681 69.3203H234.109C234.561 67.6973 234.883 66.2266 235.076 64.9082H236.104ZM243.874 54.1504H247.346C249.396 54.1504 250.955 54.6865 252.021 55.7588C253.094 56.8311 253.63 58.4219 253.63 60.5312C253.63 62.6348 253.064 64.2402 251.934 65.3477C250.809 66.4492 249.147 67 246.95 67H243.874V54.1504ZM244.771 54.9414V66.209H246.897C250.735 66.209 252.654 64.3018 252.654 60.4873C252.654 58.6533 252.186 57.2705 251.248 56.3389C250.316 55.4072 248.945 54.9414 247.135 54.9414H244.771ZM260.222 67.1758C258.839 67.1758 257.755 66.748 256.97 65.8926C256.196 65.0371 255.81 63.8447 255.81 62.3154C255.81 60.7861 256.182 59.5615 256.926 58.6416C257.676 57.7217 258.689 57.2617 259.967 57.2617C261.092 57.2617 261.979 57.6572 262.63 58.4482C263.28 59.2334 263.605 60.2969 263.605 61.6387V62.3418H256.724C256.735 63.6543 257.04 64.6562 257.638 65.3477C258.241 66.0391 259.103 66.3848 260.222 66.3848C260.778 66.3848 261.268 66.3438 261.689 66.2617C262.111 66.1797 262.624 66.0186 263.228 65.7783V66.5693C262.694 66.8037 262.196 66.9619 261.733 67.0439C261.276 67.1318 260.772 67.1758 260.222 67.1758ZM262.683 61.5684C262.683 60.4609 262.439 59.5967 261.953 58.9756C261.467 58.3486 260.781 58.0352 259.896 58.0352C259.018 58.0352 258.3 58.3398 257.743 58.9492C257.192 59.5586 256.87 60.4316 256.776 61.5684H262.683ZM265.381 65.6465C266.318 66.127 267.291 66.3672 268.299 66.3672C269.307 66.3672 270.06 66.2148 270.558 65.9102C271.056 65.5996 271.305 65.1895 271.305 64.6797C271.305 64.1699 271.108 63.7539 270.716 63.4316C270.323 63.1035 269.67 62.7783 268.756 62.4561C267.842 62.1279 267.186 61.835 266.787 61.5771C266.389 61.3193 266.093 61.0322 265.899 60.7158C265.712 60.3994 265.618 60.0215 265.618 59.582C265.618 58.873 265.917 58.3076 266.515 57.8857C267.124 57.4697 267.953 57.2617 269.002 57.2617C270.057 57.2617 271.047 57.4551 271.973 57.8418L271.647 58.6328C270.687 58.2461 269.816 58.0527 269.037 58.0527C268.258 58.0527 267.64 58.1816 267.183 58.4395C266.726 58.6973 266.497 59.0664 266.497 59.5469C266.497 60.0215 266.673 60.4082 267.024 60.707C267.382 61.0059 268.032 61.3252 268.976 61.665C269.919 61.999 270.59 62.2949 270.988 62.5527C271.773 63.0449 272.166 63.71 272.166 64.5479C272.166 65.3799 271.841 66.0273 271.19 66.4902C270.54 66.9473 269.594 67.1758 268.352 67.1758C267.115 67.1758 266.125 66.9795 265.381 66.5869V65.6465ZM275.058 53.9482C275.239 53.9482 275.38 54.0215 275.479 54.168C275.585 54.3145 275.638 54.5225 275.638 54.792C275.638 55.0557 275.585 55.2637 275.479 55.416C275.38 55.5684 275.239 55.6445 275.058 55.6445C274.688 55.6445 274.504 55.3633 274.504 54.8008C274.504 54.2324 274.688 53.9482 275.058 53.9482ZM275.497 67H274.627V57.4463H275.497V67ZM281.122 65.6816H282.792C283.835 65.6816 284.629 65.8926 285.174 66.3145C285.725 66.7305 286 67.3486 286 68.1689C286 69.1768 285.59 69.9531 284.77 70.498C283.955 71.0488 282.792 71.3242 281.28 71.3242C280.085 71.3242 279.156 71.0928 278.494 70.6299C277.832 70.167 277.501 69.5225 277.501 68.6963C277.501 68.0518 277.7 67.5098 278.099 67.0703C278.503 66.6367 279.06 66.3408 279.769 66.1826C279.476 66.0537 279.244 65.875 279.074 65.6465C278.904 65.418 278.819 65.1602 278.819 64.873C278.819 64.2285 279.227 63.666 280.041 63.1855C279.484 62.957 279.051 62.5996 278.74 62.1133C278.43 61.6211 278.274 61.0586 278.274 60.4258C278.274 59.4648 278.576 58.6973 279.18 58.123C279.789 57.5488 280.609 57.2617 281.641 57.2617C282.273 57.2617 282.76 57.3232 283.1 57.4463H286.158V58.0527L284.181 58.1758C284.708 58.832 284.972 59.5527 284.972 60.3379C284.972 61.2637 284.667 62.0107 284.058 62.5791C283.448 63.1475 282.625 63.4316 281.588 63.4316C281.154 63.4316 280.85 63.4141 280.674 63.3789C279.965 63.748 279.61 64.2227 279.61 64.8027C279.61 65.1074 279.728 65.3301 279.962 65.4707C280.196 65.6113 280.583 65.6816 281.122 65.6816ZM284.093 60.3643C284.093 59.5791 283.876 58.9814 283.442 58.5713C283.015 58.1553 282.411 57.9473 281.632 57.9473C280.853 57.9473 280.243 58.167 279.804 58.6064C279.37 59.0459 279.153 59.6436 279.153 60.3994C279.153 61.1553 279.376 61.7383 279.821 62.1484C280.272 62.5527 280.885 62.7549 281.658 62.7549C282.432 62.7549 283.029 62.5527 283.451 62.1484C283.879 61.7441 284.093 61.1494 284.093 60.3643ZM282.616 66.5518H281.052C279.3 66.5518 278.424 67.2402 278.424 68.6172C278.424 69.9297 279.399 70.5859 281.351 70.5859C283.858 70.5859 285.112 69.7861 285.112 68.1865C285.112 67.6123 284.916 67.1963 284.523 66.9385C284.131 66.6807 283.495 66.5518 282.616 66.5518ZM292.398 57.2617C294.566 57.2617 295.65 58.4248 295.65 60.751V67H294.789V60.8037C294.789 59.8486 294.587 59.1514 294.183 58.7119C293.784 58.2725 293.157 58.0527 292.302 58.0527C291.171 58.0527 290.336 58.3398 289.797 58.9141C289.264 59.4883 288.997 60.4258 288.997 61.7266V67H288.127V57.4463H288.865L289.032 58.7559H289.085C289.712 57.7598 290.816 57.2617 292.398 57.2617ZM305.301 59.1514C304.539 58.3369 304.158 57.5137 304.158 56.6816C304.158 55.8438 304.437 55.1787 304.993 54.6865C305.556 54.1943 306.3 53.9482 307.226 53.9482C308.151 53.9482 308.878 54.1855 309.405 54.6602C309.938 55.1348 310.205 55.791 310.205 56.6289C310.205 57.2441 310 57.8125 309.59 58.334C309.162 58.8496 308.421 59.415 307.366 60.0303L311.339 64.0469C312.036 63.2207 312.561 62.1719 312.912 60.9004H313.756C313.387 62.3359 312.774 63.584 311.919 64.6445L314.257 67H313.07L311.374 65.2686C310.835 65.8018 310.354 66.1885 309.933 66.4287C309.077 66.9268 308.04 67.1758 306.821 67.1758C305.603 67.1758 304.645 66.874 303.947 66.2705C303.25 65.6611 302.901 64.8174 302.901 63.7393C302.901 62.9307 303.115 62.2451 303.543 61.6826C303.971 61.1143 304.776 60.5107 305.96 59.8721L305.301 59.1514ZM309.273 56.6025C309.273 56.0518 309.092 55.6035 308.729 55.2578C308.365 54.9121 307.861 54.7393 307.217 54.7393C306.572 54.7393 306.057 54.9092 305.67 55.249C305.289 55.5889 305.099 56.0605 305.099 56.6641C305.099 57.127 305.216 57.5576 305.45 57.9561C305.685 58.3486 306.13 58.8555 306.786 59.4766C307.724 58.9727 308.371 58.5068 308.729 58.0791C309.092 57.6455 309.273 57.1533 309.273 56.6025ZM304.826 61.5332C304.152 62.0957 303.815 62.8076 303.815 63.6689C303.815 64.5303 304.085 65.1982 304.624 65.6729C305.163 66.1475 305.922 66.3848 306.9 66.3848C307.656 66.3848 308.342 66.2588 308.957 66.0068C309.578 65.7549 310.193 65.3242 310.803 64.7148L306.558 60.4521C305.772 60.8682 305.195 61.2285 304.826 61.5332ZM321.147 54.1504H324.619C326.67 54.1504 328.229 54.6865 329.295 55.7588C330.367 56.8311 330.903 58.4219 330.903 60.5312C330.903 62.6348 330.338 64.2402 329.207 65.3477C328.082 66.4492 326.421 67 324.224 67H321.147V54.1504ZM322.044 54.9414V66.209H324.171C328.009 66.209 329.928 64.3018 329.928 60.4873C329.928 58.6533 329.459 57.2705 328.521 56.3389C327.59 55.4072 326.219 54.9414 324.408 54.9414H322.044ZM337.495 67.1758C336.112 67.1758 335.028 66.748 334.243 65.8926C333.47 65.0371 333.083 63.8447 333.083 62.3154C333.083 60.7861 333.455 59.5615 334.199 58.6416C334.949 57.7217 335.963 57.2617 337.24 57.2617C338.365 57.2617 339.253 57.6572 339.903 58.4482C340.554 59.2334 340.879 60.2969 340.879 61.6387V62.3418H333.997C334.009 63.6543 334.313 64.6562 334.911 65.3477C335.515 66.0391 336.376 66.3848 337.495 66.3848C338.052 66.3848 338.541 66.3438 338.963 66.2617C339.385 66.1797 339.897 66.0186 340.501 65.7783V66.5693C339.968 66.8037 339.47 66.9619 339.007 67.0439C338.55 67.1318 338.046 67.1758 337.495 67.1758ZM339.956 61.5684C339.956 60.4609 339.713 59.5967 339.227 58.9756C338.74 58.3486 338.055 58.0352 337.17 58.0352C336.291 58.0352 335.573 58.3398 335.017 58.9492C334.466 59.5586 334.144 60.4316 334.05 61.5684H339.956ZM346.486 67H345.607L341.916 57.4463H342.812L345.282 63.9414C345.616 64.7969 345.862 65.5264 346.021 66.1299H346.073C346.302 65.3447 346.548 64.6094 346.812 63.9238L349.281 57.4463H350.178L346.486 67ZM355.636 67.1758C354.253 67.1758 353.169 66.748 352.384 65.8926C351.61 65.0371 351.224 63.8447 351.224 62.3154C351.224 60.7861 351.596 59.5615 352.34 58.6416C353.09 57.7217 354.104 57.2617 355.381 57.2617C356.506 57.2617 357.394 57.6572 358.044 58.4482C358.694 59.2334 359.02 60.2969 359.02 61.6387V62.3418H352.138C352.149 63.6543 352.454 64.6562 353.052 65.3477C353.655 66.0391 354.517 66.3848 355.636 66.3848C356.192 66.3848 356.682 66.3438 357.104 66.2617C357.525 66.1797 358.038 66.0186 358.642 65.7783V66.5693C358.108 66.8037 357.61 66.9619 357.147 67.0439C356.69 67.1318 356.187 67.1758 355.636 67.1758ZM358.097 61.5684C358.097 60.4609 357.854 59.5967 357.367 58.9756C356.881 58.3486 356.195 58.0352 355.311 58.0352C354.432 58.0352 353.714 58.3398 353.157 58.9492C352.606 59.5586 352.284 60.4316 352.19 61.5684H358.097ZM362.526 67H361.656V53.3242H362.526V67ZM365.172 62.21C365.172 60.6572 365.55 59.4443 366.306 58.5713C367.062 57.6982 368.096 57.2617 369.408 57.2617C370.727 57.2617 371.758 57.7041 372.502 58.5889C373.252 59.4736 373.627 60.6895 373.627 62.2363C373.627 63.7773 373.249 64.9873 372.493 65.8662C371.737 66.7393 370.694 67.1758 369.364 67.1758C369.335 67.1758 369.303 67.1758 369.268 67.1758C368.055 67.1758 367.067 66.7275 366.306 65.8311C365.55 64.9346 365.172 63.7715 365.172 62.3418C365.172 62.2949 365.172 62.251 365.172 62.21ZM369.399 66.3848C370.454 66.3848 371.269 66.0186 371.843 65.2861C372.417 64.5537 372.704 63.5283 372.704 62.21C372.704 60.8857 372.411 59.8633 371.825 59.1426C371.245 58.416 370.428 58.0527 369.373 58.0527C368.324 58.0527 367.513 58.416 366.938 59.1426C366.37 59.8633 366.086 60.8828 366.086 62.2012C366.086 63.5137 366.373 64.542 366.947 65.2861C367.527 66.0186 368.345 66.3848 369.399 66.3848ZM380.386 57.2617C381.675 57.2617 382.656 57.6865 383.33 58.5361C384.01 59.3799 384.35 60.5986 384.35 62.1924C384.35 63.7803 383.992 65.0078 383.277 65.875C382.568 66.7422 381.599 67.1758 380.368 67.1758C378.903 67.1758 377.831 66.625 377.151 65.5234H377.09L377.116 66.2617C377.14 66.6426 377.151 67.1172 377.151 67.6855V71.3242H376.281V57.4463H377.02L377.187 58.8086H377.239C377.901 57.7773 378.95 57.2617 380.386 57.2617ZM377.151 61.9639V62.2451C377.151 63.7393 377.4 64.8057 377.898 65.4443C378.396 66.083 379.214 66.4023 380.351 66.4023C381.329 66.4023 382.085 66.0391 382.618 65.3125C383.151 64.5859 383.418 63.5693 383.418 62.2627C383.418 59.4561 382.407 58.0527 380.386 58.0527C379.278 58.0527 378.461 58.3604 377.934 58.9756C377.412 59.585 377.151 60.5811 377.151 61.9639ZM396.672 57.2617C397.727 57.2617 398.512 57.5459 399.027 58.1143C399.543 58.6768 399.801 59.5557 399.801 60.751V67H398.939V60.7334C398.939 59.8076 398.758 59.1309 398.395 58.7031C398.037 58.2695 397.48 58.0527 396.725 58.0527C395.74 58.0527 395.014 58.3223 394.545 58.8613C394.082 59.4004 393.851 60.2471 393.851 61.4014V67H392.963V60.4697C392.963 58.8584 392.225 58.0527 390.748 58.0527C389.746 58.0527 389.017 58.3457 388.56 58.9316C388.103 59.5117 387.874 60.4434 387.874 61.7266V67H387.004V57.4463H387.725L387.909 58.7559H387.962C388.226 58.2871 388.598 57.9209 389.078 57.6572C389.564 57.3936 390.104 57.2617 390.695 57.2617C392.201 57.2617 393.168 57.8271 393.596 58.958H393.631C393.941 58.4131 394.357 57.9941 394.879 57.7012C395.406 57.4082 396.004 57.2617 396.672 57.2617ZM406.753 67.1758C405.37 67.1758 404.286 66.748 403.501 65.8926C402.728 65.0371 402.341 63.8447 402.341 62.3154C402.341 60.7861 402.713 59.5615 403.457 58.6416C404.207 57.7217 405.221 57.2617 406.498 57.2617C407.623 57.2617 408.511 57.6572 409.161 58.4482C409.812 59.2334 410.137 60.2969 410.137 61.6387V62.3418H403.255C403.267 63.6543 403.571 64.6562 404.169 65.3477C404.772 66.0391 405.634 66.3848 406.753 66.3848C407.31 66.3848 407.799 66.3438 408.221 66.2617C408.643 66.1797 409.155 66.0186 409.759 65.7783V66.5693C409.226 66.8037 408.728 66.9619 408.265 67.0439C407.808 67.1318 407.304 67.1758 406.753 67.1758ZM409.214 61.5684C409.214 60.4609 408.971 59.5967 408.484 58.9756C407.998 58.3486 407.312 58.0352 406.428 58.0352C405.549 58.0352 404.831 58.3398 404.274 58.9492C403.724 59.5586 403.401 60.4316 403.308 61.5684H409.214ZM417.045 57.2617C419.213 57.2617 420.297 58.4248 420.297 60.751V67H419.436V60.8037C419.436 59.8486 419.233 59.1514 418.829 58.7119C418.431 58.2725 417.804 58.0527 416.948 58.0527C415.817 58.0527 414.982 58.3398 414.443 58.9141C413.91 59.4883 413.644 60.4258 413.644 61.7266V67H412.773V57.4463H413.512L413.679 58.7559H413.731C414.358 57.7598 415.463 57.2617 417.045 57.2617ZM424.313 57.4463H427.117V58.2021H424.313V64.249C424.313 64.9814 424.442 65.5234 424.7 65.875C424.958 66.2266 425.365 66.4023 425.922 66.4023C426.479 66.4023 426.956 66.3555 427.354 66.2617V66.9648C426.933 67.1055 426.446 67.1758 425.896 67.1758C425.052 67.1758 424.428 66.9502 424.023 66.499C423.625 66.0479 423.426 65.3389 423.426 64.3721V58.2021H422.011V57.6924L423.426 57.2969L423.865 55.1348H424.313V57.4463Z" fill="white"/>
<path d="M207.699 33.1641C207.699 34.0195 207.523 34.8223 207.172 35.5723C206.832 36.3223 206.369 36.9785 205.783 37.541C205.209 38.1035 204.535 38.5488 203.762 38.877C203 39.1934 202.191 39.3516 201.336 39.3516H199.525C198.67 39.3516 197.855 39.1934 197.082 38.877C196.32 38.5488 195.646 38.1035 195.061 37.541C194.486 36.9785 194.023 36.3223 193.672 35.5723C193.332 34.8223 193.162 34.0195 193.162 33.1641V32.1621L195.43 31.793V33.1641C195.43 33.7266 195.541 34.2539 195.764 34.7461C195.998 35.2266 196.309 35.6543 196.695 36.0293C197.082 36.3926 197.527 36.6797 198.031 36.8906C198.547 37.1016 199.086 37.207 199.648 37.207H201.23C201.793 37.207 202.326 37.1016 202.83 36.8906C203.334 36.6797 203.779 36.3926 204.166 36.0293C204.553 35.6543 204.857 35.2266 205.08 34.7461C205.314 34.2539 205.432 33.7266 205.432 33.1641V32.4082C205.432 31.541 205.262 30.8203 204.922 30.2461C204.582 29.6719 204.131 29.1855 203.568 28.7871C203.006 28.377 202.367 28.0312 201.652 27.75C200.949 27.4688 200.223 27.1875 199.473 26.9062C198.723 26.625 197.99 26.3145 197.275 25.9746C196.572 25.6348 195.939 25.2129 195.377 24.709C194.814 24.1934 194.363 23.5664 194.023 22.8281C193.684 22.0898 193.514 21.1816 193.514 20.1035V19.6289C193.514 18.7734 193.672 17.9707 193.988 17.2207C194.316 16.4707 194.762 15.8145 195.324 15.252C195.887 14.6895 196.543 14.25 197.293 13.9336C198.055 13.6055 198.863 13.4414 199.719 13.4414H201.336C202.191 13.4414 202.994 13.6055 203.744 13.9336C204.494 14.25 205.15 14.6895 205.713 15.252C206.275 15.8145 206.715 16.4707 207.031 17.2207C207.359 17.9707 207.523 18.7734 207.523 19.6289V20.2793L205.256 20.6484V19.6289C205.256 19.0664 205.15 18.5449 204.939 18.0645C204.729 17.5723 204.441 17.1445 204.078 16.7812C203.715 16.418 203.287 16.1309 202.795 15.9199C202.314 15.709 201.793 15.6035 201.23 15.6035H199.824C199.262 15.6035 198.734 15.709 198.242 15.9199C197.762 16.1309 197.334 16.418 196.959 16.7812C196.596 17.1445 196.309 17.5723 196.098 18.0645C195.887 18.5449 195.781 19.0664 195.781 19.6289V20.1035C195.781 20.9121 195.951 21.5918 196.291 22.1426C196.631 22.6934 197.082 23.168 197.645 23.5664C198.207 23.9531 198.84 24.293 199.543 24.5859C200.258 24.8672 200.99 25.1602 201.74 25.4648C202.49 25.7578 203.217 26.0859 203.92 26.4492C204.635 26.8008 205.273 27.2402 205.836 27.7676C206.398 28.2832 206.85 28.916 207.189 29.666C207.529 30.416 207.699 31.3301 207.699 32.4082V33.1641ZM218.782 39C218.126 39 217.505 38.877 216.919 38.6309C216.344 38.3848 215.84 38.0449 215.407 37.6113C214.985 37.1777 214.645 36.6738 214.387 36.0996C214.141 35.5254 214.018 34.9102 214.018 34.2539V23.0566H210.784V21H214.018V16.6758L216.18 16.3242V21H220.751V23.0566H216.18V34.3594C216.18 34.7227 216.245 35.0625 216.374 35.3789C216.514 35.6836 216.702 35.9531 216.936 36.1875C217.171 36.4219 217.446 36.6094 217.762 36.75C218.079 36.8789 218.419 36.9434 218.782 36.9434H220.751V39H218.782ZM236.404 39L235.208 37.1719C234.716 37.8398 234.101 38.373 233.363 38.7715C232.624 39.1582 231.816 39.3516 230.937 39.3516H230.392C229.665 39.3516 228.98 39.2168 228.335 38.9473C227.691 38.666 227.128 38.2852 226.648 37.8047C226.167 37.3242 225.786 36.7617 225.505 36.1172C225.236 35.4727 225.101 34.7871 225.101 34.0605V21H227.263V34.1836C227.263 34.6172 227.345 35.0273 227.509 35.4141C227.673 35.7891 227.896 36.1172 228.177 36.3984C228.458 36.6797 228.786 36.9023 229.161 37.0664C229.548 37.2305 229.958 37.3125 230.392 37.3125H231.833C232.267 37.3125 232.671 37.2305 233.046 37.0664C233.433 36.9023 233.767 36.6797 234.048 36.3984C234.329 36.1172 234.552 35.7891 234.716 35.4141C234.88 35.0273 234.962 34.6172 234.962 34.1836V21H237.124V39H236.404ZM253.111 39L251.916 37.1719C251.424 37.8398 250.809 38.373 250.07 38.7715C249.332 39.1582 248.523 39.3516 247.644 39.3516H247.1C246.373 39.3516 245.687 39.2168 245.043 38.9473C244.398 38.666 243.836 38.2852 243.355 37.8047C242.875 37.3242 242.494 36.7617 242.213 36.1172C241.943 35.4727 241.809 34.7871 241.809 34.0605V25.9395C241.809 25.2129 241.943 24.5273 242.213 23.8828C242.494 23.2383 242.875 22.6758 243.355 22.1953C243.836 21.7148 244.398 21.3398 245.043 21.0703C245.687 20.7891 246.373 20.6484 247.1 20.6484H247.644C248.453 20.6484 249.203 20.8125 249.894 21.1406C250.586 21.4688 251.178 21.9258 251.67 22.5117V13.793H253.832V39H253.111ZM251.67 25.8164C251.67 25.3828 251.588 24.9785 251.424 24.6035C251.26 24.2168 251.037 23.8828 250.756 23.6016C250.475 23.3203 250.141 23.0977 249.754 22.9336C249.379 22.7695 248.975 22.6875 248.541 22.6875H247.1C246.666 22.6875 246.256 22.7695 245.869 22.9336C245.494 23.0977 245.166 23.3203 244.885 23.6016C244.603 23.8828 244.381 24.2168 244.217 24.6035C244.053 24.9785 243.971 25.3828 243.971 25.8164V34.1836C243.971 34.6172 244.053 35.0273 244.217 35.4141C244.381 35.7891 244.603 36.1172 244.885 36.3984C245.166 36.6797 245.494 36.9023 245.869 37.0664C246.256 37.2305 246.666 37.3125 247.1 37.3125H248.541C248.975 37.3125 249.379 37.2305 249.754 37.0664C250.141 36.9023 250.475 36.6797 250.756 36.3984C251.037 36.1172 251.26 35.7891 251.424 35.4141C251.588 35.0273 251.67 34.6172 251.67 34.1836V25.8164ZM259.061 16.6758V13.793H261.575V16.6758H259.061ZM259.237 39V21H261.399V39H259.237ZM278.845 34.0605C278.845 34.7871 278.704 35.4727 278.423 36.1172C278.154 36.7617 277.779 37.3242 277.298 37.8047C276.818 38.2852 276.255 38.666 275.611 38.9473C274.966 39.2168 274.28 39.3516 273.554 39.3516H272.113C271.386 39.3516 270.7 39.2168 270.056 38.9473C269.411 38.666 268.849 38.2852 268.368 37.8047C267.888 37.3242 267.507 36.7617 267.226 36.1172C266.956 35.4727 266.821 34.7871 266.821 34.0605V25.9395C266.821 25.2129 266.956 24.5273 267.226 23.8828C267.507 23.2383 267.888 22.6758 268.368 22.1953C268.849 21.7148 269.411 21.3398 270.056 21.0703C270.7 20.7891 271.386 20.6484 272.113 20.6484H273.554C274.28 20.6484 274.966 20.7891 275.611 21.0703C276.255 21.3398 276.818 21.7148 277.298 22.1953C277.779 22.6758 278.154 23.2383 278.423 23.8828C278.704 24.5273 278.845 25.2129 278.845 25.9395V34.0605ZM276.683 25.8164C276.683 25.3828 276.601 24.9785 276.437 24.6035C276.273 24.2168 276.05 23.8828 275.769 23.6016C275.488 23.3203 275.154 23.0977 274.767 22.9336C274.392 22.7695 273.988 22.6875 273.554 22.6875H272.113C271.679 22.6875 271.269 22.7695 270.882 22.9336C270.507 23.0977 270.179 23.3203 269.898 23.6016C269.616 23.8828 269.394 24.2168 269.23 24.6035C269.066 24.9785 268.984 25.3828 268.984 25.8164V34.1836C268.984 34.6172 269.066 35.0273 269.23 35.4141C269.394 35.7891 269.616 36.1172 269.898 36.3984C270.179 36.6797 270.507 36.9023 270.882 37.0664C271.269 37.2305 271.679 37.3125 272.113 37.3125H273.554C273.988 37.3125 274.392 37.2305 274.767 37.0664C275.154 36.9023 275.488 36.6797 275.769 36.3984C276.05 36.1172 276.273 35.7891 276.437 35.4141C276.601 35.0273 276.683 34.6172 276.683 34.1836V25.8164ZM295.904 34.4297C295.904 35.1562 295.758 35.8242 295.465 36.4336C295.172 37.0312 294.773 37.5469 294.269 37.9805C293.765 38.4141 293.18 38.7539 292.512 39C291.855 39.2344 291.164 39.3516 290.437 39.3516H288.996C288.269 39.3516 287.572 39.2168 286.904 38.9473C286.248 38.666 285.668 38.2852 285.164 37.8047C284.672 37.3242 284.273 36.7617 283.969 36.1172C283.676 35.4727 283.529 34.7871 283.529 34.0605V33.3398L285.691 32.9883V34.1836C285.691 34.6172 285.779 35.0273 285.955 35.4141C286.142 35.7891 286.389 36.1172 286.693 36.3984C286.998 36.6797 287.349 36.9023 287.748 37.0664C288.146 37.2305 288.562 37.3125 288.996 37.3125H290.437C290.871 37.3125 291.287 37.248 291.685 37.1191C292.084 36.9902 292.435 36.8086 292.74 36.5742C293.056 36.3281 293.303 36.0352 293.478 35.6953C293.666 35.3555 293.76 34.9688 293.76 34.5352C293.76 33.8906 293.619 33.3633 293.338 32.9531C293.056 32.543 292.681 32.2031 292.213 31.9336C291.756 31.6523 291.228 31.4238 290.631 31.248C290.045 31.0605 289.441 30.8789 288.82 30.7031C288.199 30.5156 287.59 30.3047 286.992 30.0703C286.406 29.8359 285.879 29.5312 285.41 29.1562C284.953 28.7695 284.584 28.2891 284.303 27.7148C284.021 27.1406 283.881 26.4258 283.881 25.5703C283.881 24.8438 284.021 24.1816 284.303 23.584C284.584 22.9746 284.965 22.4531 285.445 22.0195C285.926 21.5859 286.482 21.252 287.115 21.0176C287.76 20.7715 288.445 20.6484 289.172 20.6484H290.437C291.164 20.6484 291.849 20.7891 292.494 21.0703C293.139 21.3398 293.701 21.7148 294.181 22.1953C294.662 22.6758 295.037 23.2383 295.306 23.8828C295.588 24.5273 295.728 25.2129 295.728 25.9395V26.0098L293.566 26.3613V25.8164C293.566 25.3828 293.484 24.9785 293.32 24.6035C293.156 24.2168 292.933 23.8828 292.652 23.6016C292.371 23.3203 292.037 23.0977 291.65 22.9336C291.275 22.7695 290.871 22.6875 290.437 22.6875H289.172C288.738 22.6875 288.328 22.752 287.941 22.8809C287.566 23.0098 287.238 23.1973 286.957 23.4434C286.676 23.6777 286.453 23.9648 286.289 24.3047C286.125 24.6445 286.043 25.0312 286.043 25.4648C286.043 26.0859 286.183 26.5957 286.465 26.9941C286.746 27.3809 287.115 27.709 287.572 27.9785C288.041 28.248 288.568 28.4766 289.154 28.6641C289.752 28.8398 290.355 29.0273 290.965 29.2266C291.586 29.4141 292.189 29.6309 292.775 29.877C293.373 30.123 293.9 30.4395 294.357 30.8262C294.826 31.2129 295.201 31.6992 295.482 32.2852C295.764 32.8594 295.904 33.5742 295.904 34.4297Z" fill="white"/>
<path d="M19.446 40H2.73V17.614C2.73 15.542 3.388 13.876 4.704 12.616C5.6 11.776 6.608 11.23 7.728 10.978C8.848 10.726 10.22 10.6 11.844 10.6H19.446V14.296H11.298C8.218 14.296 6.678 15.584 6.678 18.16V22.948H16.38V26.644H6.678V36.304H19.446V40ZM24.0581 19.84H31.3241C34.4321 19.84 36.6581 20.302 38.0021 21.226C39.2061 22.038 39.9621 23.018 40.2701 24.166C40.6061 25.286 40.7741 26.77 40.7741 28.618V40H37.0781V28.66C37.0781 28.156 37.0641 27.736 37.0361 27.4C37.0081 27.036 36.9101 26.588 36.7421 26.056C36.5741 25.496 36.3361 25.048 36.0281 24.712C35.7201 24.348 35.2721 24.04 34.6841 23.788C34.0961 23.508 33.3821 23.368 32.5421 23.368H27.7541V40H24.0581V19.84ZM46.0425 19.84H53.3085C56.4165 19.84 58.6425 20.302 59.9865 21.226C61.1905 22.038 61.9465 23.018 62.2545 24.166C62.5905 25.286 62.7585 26.77 62.7585 28.618V40H59.0625V28.66C59.0625 28.156 59.0485 27.736 59.0205 27.4C58.9925 27.036 58.8945 26.588 58.7265 26.056C58.5585 25.496 58.3205 25.048 58.0125 24.712C57.7045 24.348 57.2565 24.04 56.6685 23.788C56.0805 23.508 55.3665 23.368 54.5265 23.368H49.7385V40H46.0425V19.84ZM77.6869 19.42C82.4469 19.616 84.8269 21.59 84.8269 25.342C84.8269 30.018 81.7609 32.356 75.6289 32.356H73.9069V29.122H75.9229C77.7989 29.122 79.1009 28.842 79.8289 28.282C80.5569 27.694 80.9209 26.728 80.9209 25.384C80.9209 24.516 80.5989 23.872 79.9549 23.452C79.3109 23.004 78.4849 22.78 77.4769 22.78C75.4889 22.78 73.9209 23.48 72.7729 24.88C71.6529 26.28 71.0929 27.96 71.0929 29.92C71.0929 31.992 71.6949 33.672 72.8989 34.96C74.1309 36.248 75.7269 36.892 77.6869 36.892C79.4509 36.892 80.8929 36.458 82.0129 35.59L84.5329 38.068C82.6009 39.636 80.3189 40.42 77.6869 40.42C74.4949 40.42 71.9469 39.482 70.0429 37.606C68.1389 35.73 67.1869 33.308 67.1869 30.34C67.1869 27.036 68.1249 24.362 70.0009 22.318C71.8769 20.274 74.4389 19.308 77.6869 19.42ZM100.236 28.156V31.936C99.172 31.124 97.87 30.718 96.33 30.718C95.014 30.718 93.992 30.984 93.264 31.516C92.536 32.02 92.172 32.748 92.172 33.7C92.172 35.548 93.544 36.472 96.288 36.472H101.832V28.45C101.832 25.062 100.18 23.368 96.876 23.368H90.156V19.84H97.086C99.802 19.84 101.888 20.512 103.344 21.856C104.8 23.2 105.528 25.132 105.528 27.652V40H96.162C93.782 40 91.892 39.468 90.492 38.404C89.092 37.34 88.392 35.786 88.392 33.742C88.392 31.698 89.134 30.144 90.618 29.08C92.102 28.016 93.964 27.484 96.204 27.484C97.464 27.484 98.808 27.708 100.236 28.156ZM119.511 40C116.767 40 114.415 39.076 112.455 37.228C110.495 35.38 109.515 33.014 109.515 30.13C109.515 27.218 110.495 24.782 112.455 22.822C114.443 20.834 116.893 19.84 119.805 19.84H129.675V39.412C129.675 40.672 129.507 41.806 129.171 42.814C128.863 43.822 128.415 44.676 127.827 45.376C127.239 46.076 126.707 46.622 126.231 47.014C125.755 47.406 125.181 47.812 124.509 48.232C122.773 49.128 120.659 49.576 118.167 49.576H113.463V46.048H117.789C120.253 46.048 122.003 45.74 123.039 45.124C124.943 44.06 125.895 42.296 125.895 39.832V23.368H119.805C117.817 23.368 116.235 23.984 115.059 25.216C113.883 26.448 113.295 28.086 113.295 30.13C113.295 32.09 113.897 33.644 115.101 34.792C116.333 35.912 117.803 36.472 119.511 36.472C121.359 36.472 122.983 35.968 124.383 34.96V38.74C122.871 39.58 121.247 40 119.511 40ZM137.228 22.486C139.188 20.442 141.638 19.42 144.578 19.42C146.006 19.42 147.336 19.7 148.568 20.26C149.828 20.792 150.92 21.534 151.844 22.486C152.796 23.438 153.538 24.558 154.07 25.846C154.602 27.106 154.868 28.464 154.868 29.92C154.868 31.376 154.602 32.748 154.07 34.036C153.566 35.296 152.852 36.402 151.928 37.354C151.004 38.306 149.912 39.062 148.652 39.622C147.392 40.154 146.034 40.42 144.578 40.42C143.094 40.42 141.722 40.154 140.462 39.622C139.23 39.062 138.152 38.306 137.228 37.354C136.304 36.402 135.576 35.296 135.044 34.036C134.54 32.748 134.288 31.376 134.288 29.92C134.288 26.952 135.268 24.474 137.228 22.486ZM144.578 22.948C142.618 22.948 141.036 23.592 139.832 24.88C138.656 26.168 138.068 27.848 138.068 29.92C138.068 31.992 138.656 33.672 139.832 34.96C141.036 36.248 142.618 36.892 144.578 36.892C146.566 36.892 148.148 36.248 149.324 34.96C150.5 33.644 151.088 31.964 151.088 29.92C151.088 27.876 150.5 26.21 149.324 24.922C148.148 23.606 146.566 22.948 144.578 22.948ZM159.492 19.84H166.758C169.866 19.84 172.092 20.302 173.436 21.226C174.64 22.038 175.396 23.018 175.704 24.166C176.04 25.286 176.208 26.77 176.208 28.618V40H172.512V28.66C172.512 28.156 172.498 27.736 172.47 27.4C172.442 27.036 172.344 26.588 172.176 26.056C172.008 25.496 171.77 25.048 171.462 24.712C171.154 24.348 170.706 24.04 170.118 23.788C169.53 23.508 168.816 23.368 167.976 23.368H163.188V40H159.492V19.84Z" fill="white"/>
</svg>
